<svg id="svg" version="1.1" width="500" height="500" xmlns="http://www.w3.org/2000/svg" xmlns:xlink="http://www.w3.org/1999/xlink" style="display: block;"><g id="svgg"><path id="path0" d="M195.400 79.971 C 193.560 82.304,192.530 113.961,194.212 116.480 C 196.975 120.617,205.960 119.795,206.697 115.338 C 208.230 106.065,207.240 81.876,205.238 79.717 C 202.440 76.698,197.889 76.815,195.400 79.971 M105.942 117.412 C 105.470 117.736,104.851 118.630,104.567 119.400 C 104.283 120.170,103.499 120.800,102.825 120.800 C 100.936 120.800,101.374 123.508,103.600 125.600 C 104.700 126.633,105.600 128.136,105.600 128.939 C 105.600 129.743,106.002 130.400,106.494 130.400 C 107.604 130.400,113.600 136.317,113.600 137.413 C 113.600 137.853,114.347 138.409,115.259 138.647 C 116.172 138.886,117.105 139.795,117.333 140.667 C 117.561 141.539,118.461 142.439,119.333 142.667 C 120.205 142.895,121.102 143.783,121.327 144.641 C 121.829 146.563,129.423 149.297,130.703 148.017 C 131.153 147.567,132.129 147.200,132.874 147.200 C 135.971 147.200,136.232 139.113,133.200 137.126 C 132.100 136.406,131.200 135.375,131.200 134.836 C 131.200 134.298,130.300 133.447,129.200 132.946 C 128.100 132.444,127.200 131.511,127.200 130.871 C 127.200 130.231,126.459 129.473,125.554 129.185 C 124.649 128.898,123.578 127.794,123.174 126.732 C 122.770 125.669,121.948 124.800,121.348 124.800 C 120.748 124.800,119.847 123.900,119.346 122.800 C 118.844 121.700,117.911 120.800,117.271 120.800 C 116.631 120.800,115.893 120.123,115.630 119.295 C 114.981 117.250,108.125 115.917,105.942 117.412 M287.819 117.348 C 286.658 117.652,284.185 119.971,276.238 128.204 C 275.709 128.752,274.809 129.633,274.238 130.162 C 273.667 130.691,272.777 131.591,272.261 132.162 C 271.744 132.733,270.016 134.396,268.421 135.858 C 261.658 142.057,267.345 151.571,275.501 147.701 C 277.083 146.950,278.756 145.630,279.217 144.768 C 279.679 143.905,280.584 143.200,281.228 143.200 C 281.873 143.200,282.400 142.839,282.400 142.397 C 282.400 141.955,285.280 138.760,288.800 135.296 C 292.320 131.833,295.200 128.618,295.200 128.153 C 295.200 127.688,295.920 127.079,296.800 126.800 C 299.172 126.047,298.934 121.760,296.368 118.992 C 294.383 116.851,291.688 116.333,287.819 117.348 M194.947 142.753 C 193.443 143.893,185.192 145.600,181.186 145.600 C 179.930 145.600,178.122 146.334,177.166 147.232 C 176.211 148.129,174.081 149.082,172.433 149.350 C 170.785 149.617,168.590 150.683,167.555 151.718 C 166.520 152.753,164.961 153.600,164.090 153.600 C 163.220 153.600,162.285 154.302,162.013 155.159 C 161.741 156.017,160.838 156.934,160.007 157.198 C 158.319 157.734,149.957 165.839,148.732 168.127 C 148.299 168.937,147.416 169.600,146.772 169.600 C 146.127 169.600,145.600 170.292,145.600 171.139 C 145.600 171.985,144.700 173.747,143.600 175.054 C 142.500 176.361,141.600 177.939,141.600 178.560 C 141.600 179.181,140.744 180.849,139.699 182.266 C 138.653 183.683,137.567 186.286,137.285 188.051 C 137.003 189.815,136.058 192.590,135.186 194.217 C 134.314 195.845,133.600 198.657,133.600 200.466 C 133.600 208.566,132.453 208.800,92.805 208.800 C 54.261 208.800,56.230 208.407,56.763 216.000 C 56.843 217.137,58.003 218.940,59.452 220.178 L 62.000 222.357 199.877 222.378 C 327.928 222.398,337.916 222.304,340.043 221.048 C 343.138 219.219,344.362 216.057,343.456 212.227 L 342.740 209.200 308.222 208.992 L 273.703 208.783 272.051 206.684 C 271.143 205.529,270.400 204.031,270.400 203.355 C 270.400 202.679,269.843 201.510,269.162 200.758 C 268.481 200.005,267.540 196.917,267.070 193.895 C 266.601 190.873,265.551 187.462,264.737 186.316 C 263.922 185.169,263.017 182.739,262.726 180.916 C 262.398 178.864,261.770 177.600,261.078 177.600 C 260.463 177.600,259.636 176.748,259.240 175.706 C 258.844 174.664,257.593 172.812,256.460 171.589 C 255.327 170.367,254.400 168.887,254.400 168.302 C 254.400 167.716,253.500 166.647,252.400 165.926 C 251.300 165.206,250.400 164.108,250.400 163.488 C 250.400 162.868,249.549 162.037,248.509 161.641 C 247.469 161.246,246.411 160.382,246.157 159.722 C 245.904 159.061,244.415 157.913,242.848 157.169 C 241.282 156.426,240.000 155.480,240.000 155.067 C 240.000 154.654,238.912 153.938,237.583 153.474 C 236.254 153.011,234.824 151.992,234.405 151.210 C 233.935 150.332,232.264 149.581,230.035 149.247 C 228.049 148.949,225.969 148.082,225.412 147.320 C 224.683 146.321,222.337 145.679,217.013 145.022 C 212.950 144.520,208.820 143.544,207.835 142.855 C 205.563 141.263,197.001 141.195,194.947 142.753 M206.855 157.134 C 209.025 157.757,213.046 158.512,215.791 158.811 C 218.712 159.129,221.557 159.966,222.654 160.828 C 223.684 161.638,225.497 162.545,226.684 162.842 C 227.871 163.140,229.183 164.021,229.600 164.800 C 230.017 165.579,231.187 166.424,232.200 166.678 C 234.342 167.216,244.024 176.692,245.200 179.402 C 245.640 180.416,246.810 182.045,247.800 183.023 C 248.790 184.000,249.600 185.450,249.600 186.245 C 249.600 187.039,250.500 188.909,251.600 190.400 C 252.725 191.925,253.600 194.201,253.600 195.603 C 253.600 196.973,254.129 198.793,254.775 199.647 C 256.553 201.999,256.242 203.881,253.644 206.479 L 251.288 208.835 200.866 208.618 C 151.645 208.405,150.407 208.362,148.885 206.800 C 146.440 204.291,146.332 198.498,148.687 196.231 C 149.504 195.444,150.393 193.360,150.662 191.600 C 150.931 189.840,151.823 187.850,152.644 187.178 C 153.465 186.506,154.386 184.964,154.690 183.752 C 154.995 182.539,155.987 180.929,156.895 180.173 C 157.803 179.418,158.864 177.990,159.253 177.000 C 159.642 176.010,160.452 175.200,161.052 175.200 C 161.652 175.200,162.553 174.300,163.054 173.200 C 163.556 172.100,164.369 171.200,164.862 171.200 C 165.355 171.200,166.747 170.210,167.955 169.000 C 171.911 165.038,174.352 163.338,176.877 162.783 C 178.244 162.483,180.017 161.583,180.816 160.784 C 181.719 159.881,184.034 159.142,186.934 158.830 C 189.500 158.554,193.220 157.827,195.200 157.214 C 199.869 155.768,202.049 155.753,206.855 157.134 M67.339 251.452 C 66.153 252.715,65.600 254.319,65.600 256.499 C 65.600 261.803,66.725 262.589,75.200 263.200 C 80.624 263.591,82.881 264.081,83.564 265.015 C 84.078 265.718,85.557 266.541,86.849 266.843 C 88.142 267.145,89.560 267.814,90.000 268.329 C 90.440 268.845,92.150 270.091,93.800 271.099 C 95.450 272.106,96.800 273.226,96.800 273.587 C 96.800 273.948,97.790 274.634,99.000 275.111 C 100.210 275.588,102.454 276.704,103.988 277.589 C 105.521 278.475,107.681 279.201,108.788 279.203 C 109.894 279.205,111.979 279.925,113.419 280.803 C 117.071 283.030,129.086 283.093,133.432 280.908 C 135.064 280.088,137.840 279.156,139.600 278.838 C 141.360 278.519,143.440 277.575,144.222 276.739 C 145.004 275.903,146.624 274.977,147.822 274.680 C 149.020 274.384,150.470 273.480,151.045 272.671 C 151.620 271.862,152.468 271.200,152.930 271.200 C 153.391 271.200,154.839 270.300,156.146 269.200 C 157.454 268.100,159.486 266.960,160.662 266.668 C 161.838 266.376,163.743 265.443,164.896 264.595 C 167.694 262.537,183.696 262.771,186.118 264.905 C 186.933 265.623,188.500 266.483,189.600 266.817 C 190.700 267.150,192.393 268.272,193.362 269.311 C 194.331 270.350,195.668 271.200,196.334 271.200 C 196.999 271.200,197.913 271.891,198.365 272.735 C 198.817 273.579,200.269 274.508,201.592 274.798 C 202.915 275.089,204.448 275.955,204.999 276.724 C 205.574 277.527,208.015 278.521,210.738 279.061 C 213.344 279.579,216.072 280.541,216.801 281.201 C 218.690 282.911,233.310 282.911,235.199 281.201 C 235.928 280.541,238.656 279.579,241.262 279.061 C 244.095 278.499,246.420 277.534,247.045 276.660 C 247.620 275.857,248.583 275.200,249.184 275.200 C 249.785 275.200,251.295 274.349,252.539 273.309 C 253.782 272.270,255.622 271.162,256.626 270.847 C 257.630 270.533,259.323 269.404,260.389 268.338 C 261.455 267.272,262.917 266.400,263.637 266.400 C 264.358 266.400,265.863 265.680,266.982 264.800 C 268.732 263.423,270.227 263.200,277.708 263.200 C 285.333 263.200,286.596 263.396,288.000 264.800 C 288.880 265.680,290.164 266.400,290.853 266.400 C 291.542 266.400,292.892 266.810,293.853 267.311 C 295.662 268.254,296.499 268.912,300.174 272.282 C 301.370 273.379,303.170 274.525,304.174 274.830 C 305.178 275.135,306.758 276.077,307.685 276.924 C 308.612 277.770,310.772 278.680,312.485 278.946 C 314.198 279.211,316.936 280.097,318.568 280.914 C 326.517 284.894,335.213 281.783,335.188 274.968 C 335.170 270.057,334.564 269.563,327.767 268.913 C 323.828 268.537,321.164 267.853,320.184 266.967 C 319.354 266.215,317.696 265.600,316.501 265.600 C 315.268 265.600,313.489 264.762,312.389 263.662 C 311.323 262.596,309.719 261.492,308.825 261.208 C 307.930 260.924,306.826 259.996,306.371 259.146 C 305.916 258.296,304.820 257.600,303.935 257.600 C 303.051 257.600,301.479 256.752,300.442 255.715 C 299.370 254.643,297.093 253.595,295.163 253.287 C 293.296 252.988,290.775 252.037,289.561 251.172 C 286.298 248.849,267.436 248.805,265.457 251.116 C 264.743 251.950,262.593 252.896,260.680 253.218 C 258.766 253.540,256.182 254.657,254.939 255.702 C 253.695 256.746,251.998 257.600,251.167 257.600 C 250.336 257.600,249.284 258.296,248.829 259.146 C 248.374 259.996,247.211 260.942,246.246 261.249 C 245.280 261.556,243.929 262.491,243.245 263.328 C 242.560 264.164,240.560 265.077,238.800 265.357 C 237.040 265.637,235.185 266.427,234.679 267.113 C 232.800 269.657,216.800 269.026,216.800 266.408 C 216.800 266.080,215.274 265.606,213.408 265.356 C 211.543 265.106,209.473 264.248,208.808 263.450 C 208.144 262.652,206.610 261.557,205.400 261.017 C 204.190 260.476,203.200 259.487,203.200 258.817 C 203.200 258.148,202.508 257.600,201.661 257.600 C 200.815 257.600,199.105 256.750,197.861 255.712 C 196.578 254.641,193.945 253.580,191.774 253.259 C 189.294 252.893,187.607 252.150,186.981 251.147 C 185.504 248.782,164.975 248.797,162.832 251.165 C 162.032 252.049,159.803 252.968,157.708 253.279 C 155.358 253.627,153.355 254.518,152.238 255.714 C 151.269 256.751,149.583 257.600,148.492 257.600 C 147.211 257.600,146.328 258.166,146.001 259.198 C 145.722 260.077,144.587 261.024,143.479 261.302 C 142.372 261.580,140.612 262.661,139.569 263.704 C 138.526 264.747,136.723 265.600,135.563 265.600 C 134.402 265.600,132.537 266.320,131.418 267.200 C 129.776 268.492,128.173 268.800,123.092 268.800 C 117.867 268.800,116.529 268.529,115.200 267.200 C 114.300 266.300,112.533 265.600,111.162 265.600 C 109.589 265.600,108.066 264.890,106.870 263.600 C 105.851 262.500,104.454 261.600,103.766 261.600 C 103.079 261.600,101.824 260.720,100.979 259.646 C 100.133 258.571,98.440 257.440,97.216 257.133 C 95.992 256.825,94.816 255.905,94.602 255.087 C 94.348 254.114,93.485 253.598,92.107 253.596 C 88.757 253.588,83.952 252.005,83.470 250.750 C 82.643 248.593,69.487 249.165,67.339 251.452 M67.000 307.576 C 62.620 313.600,66.087 318.374,75.366 319.096 C 79.942 319.451,82.762 320.067,83.734 320.921 C 84.540 321.631,86.100 322.484,87.200 322.818 C 89.314 323.459,92.091 325.375,96.165 329.000 C 97.525 330.210,99.248 331.200,99.995 331.200 C 100.741 331.200,101.974 331.888,102.735 332.728 C 103.590 333.673,106.133 334.607,109.399 335.176 C 112.304 335.682,115.921 336.614,117.438 337.248 C 121.197 338.818,125.516 338.694,130.997 336.858 C 133.529 336.009,137.098 335.083,138.929 334.799 C 140.760 334.516,142.879 333.597,143.639 332.757 C 144.398 331.918,146.197 331.010,147.636 330.740 C 149.274 330.433,150.402 329.679,150.651 328.725 C 150.871 327.886,151.739 327.200,152.581 327.200 C 153.423 327.200,154.886 326.310,155.832 325.221 C 156.778 324.133,158.553 322.998,159.776 322.699 C 160.999 322.400,162.859 321.491,163.908 320.678 C 166.830 318.414,182.899 318.504,185.818 320.800 C 186.937 321.680,188.442 322.400,189.163 322.400 C 189.883 322.400,191.373 323.300,192.473 324.400 C 193.573 325.500,194.789 326.400,195.175 326.400 C 195.561 326.400,196.895 327.234,198.139 328.254 C 199.382 329.273,201.544 330.566,202.943 331.127 C 204.341 331.688,205.662 332.608,205.879 333.173 C 206.096 333.737,207.996 334.458,210.103 334.774 C 212.209 335.089,216.108 336.030,218.766 336.864 C 224.571 338.684,228.459 338.795,232.162 337.248 C 233.679 336.614,237.331 335.676,240.277 335.163 C 244.075 334.501,245.871 333.789,246.446 332.715 C 246.891 331.882,247.911 331.200,248.711 331.200 C 249.512 331.200,251.134 330.303,252.317 329.207 C 253.500 328.110,255.362 326.989,256.455 326.715 C 257.548 326.440,258.790 325.567,259.214 324.773 C 259.639 323.979,261.040 323.099,262.328 322.816 C 263.615 322.533,265.473 321.604,266.457 320.751 C 269.175 318.393,286.431 318.431,288.800 320.800 C 289.680 321.680,291.123 322.400,292.007 322.400 C 292.891 322.400,294.733 323.469,296.100 324.776 C 297.468 326.082,299.264 327.367,300.093 327.630 C 300.922 327.893,301.600 328.583,301.600 329.165 C 301.600 329.746,302.850 330.456,304.377 330.743 C 305.904 331.029,307.624 331.935,308.199 332.756 C 308.848 333.682,310.755 334.473,313.222 334.841 C 315.410 335.167,319.146 336.101,321.525 336.917 C 326.225 338.528,330.400 338.860,330.400 337.621 C 330.400 337.192,331.480 336.283,332.800 335.600 C 334.896 334.516,335.198 333.931,335.188 330.979 C 335.170 326.171,334.538 325.608,328.077 324.649 C 324.904 324.178,321.814 323.300,321.211 322.696 C 320.608 322.093,318.812 321.600,317.221 321.600 C 315.287 321.600,313.730 321.003,312.526 319.800 C 311.535 318.810,309.751 317.558,308.562 317.017 C 307.373 316.477,306.400 315.487,306.400 314.817 C 306.400 314.046,305.653 313.600,304.362 313.600 C 303.241 313.600,301.531 312.746,300.562 311.702 C 299.516 310.576,297.386 309.567,295.320 309.219 C 293.407 308.896,291.257 307.950,290.543 307.116 C 288.809 305.091,266.795 304.787,265.288 306.767 C 264.800 307.409,262.600 308.395,260.400 308.958 C 258.200 309.520,255.950 310.586,255.399 311.327 C 254.848 312.067,253.245 312.927,251.836 313.236 C 250.427 313.546,248.601 314.654,247.779 315.699 C 246.957 316.745,245.883 317.600,245.393 317.600 C 244.904 317.600,243.705 318.350,242.730 319.266 C 241.755 320.182,239.482 321.129,237.679 321.371 C 235.875 321.613,234.400 322.093,234.400 322.439 C 234.400 324.746,222.212 324.956,218.628 322.710 C 217.654 322.100,215.813 321.600,214.538 321.600 C 212.364 321.600,208.529 319.259,204.172 315.273 C 203.166 314.353,201.844 313.600,201.233 313.600 C 200.622 313.600,199.105 312.752,197.861 311.715 C 196.618 310.679,194.287 309.590,192.681 309.294 C 191.076 308.999,188.859 308.047,187.755 307.179 C 184.669 304.752,165.000 304.812,161.690 307.260 C 160.456 308.172,157.950 309.120,156.123 309.365 C 154.295 309.610,152.800 310.245,152.800 310.777 C 152.800 311.906,149.417 313.600,147.162 313.600 C 146.297 313.600,145.600 314.143,145.600 314.817 C 145.600 315.487,144.610 316.476,143.400 317.017 C 142.190 317.557,140.656 318.652,139.992 319.450 C 139.317 320.260,137.198 321.112,135.192 321.380 C 133.216 321.643,131.186 322.420,130.681 323.107 C 129.310 324.968,118.287 324.870,116.196 322.978 C 115.359 322.220,113.516 321.600,112.101 321.600 C 110.422 321.600,108.832 320.904,107.527 319.600 C 106.427 318.500,105.066 317.600,104.503 317.600 C 103.940 317.600,102.633 316.700,101.600 315.600 C 100.567 314.500,99.227 313.600,98.624 313.600 C 98.021 313.600,96.672 312.745,95.628 311.700 C 94.489 310.561,92.308 309.588,90.181 309.269 C 88.230 308.976,85.877 308.031,84.951 307.169 C 82.190 304.597,68.948 304.897,67.000 307.576 " stroke="none" fill="#000000" fill-rule="evenodd"></path><path id="path1" d="M195.879 77.336 C 192.783 78.158,190.813 112.392,193.566 117.536 C 195.600 121.337,205.182 121.370,207.209 117.583 C 208.431 115.300,208.391 82.534,207.163 79.839 C 205.909 77.085,200.960 75.987,195.879 77.336 M205.238 79.717 C 207.240 81.876,208.230 106.065,206.697 115.338 C 205.960 119.795,196.975 120.617,194.212 116.480 C 192.530 113.961,193.560 82.304,195.400 79.971 C 197.889 76.815,202.440 76.698,205.238 79.717 M108.400 115.045 C 103.773 116.033,100.400 120.357,101.247 124.214 C 102.150 128.327,124.571 150.400,127.845 150.400 C 131.691 150.400,134.208 148.851,135.891 145.448 C 138.192 140.798,137.046 138.797,125.200 126.789 C 115.042 116.492,111.902 114.297,108.400 115.045 M287.200 115.978 C 284.364 117.492,266.351 135.502,264.828 138.348 C 261.936 143.751,266.002 150.400,272.198 150.400 C 276.811 150.400,299.207 128.430,299.189 123.923 C 299.171 119.523,298.448 117.985,295.747 116.608 C 291.626 114.508,290.160 114.399,287.200 115.978 M112.676 117.295 C 114.103 117.581,115.355 118.428,115.630 119.295 C 115.893 120.123,116.631 120.800,117.271 120.800 C 117.911 120.800,118.844 121.700,119.346 122.800 C 119.847 123.900,120.748 124.800,121.348 124.800 C 121.948 124.800,122.770 125.669,123.174 126.732 C 123.578 127.794,124.649 128.898,125.554 129.185 C 126.459 129.473,127.200 130.231,127.200 130.871 C 127.200 131.511,128.100 132.444,129.200 132.946 C 130.300 133.447,131.200 134.298,131.200 134.836 C 131.200 135.375,132.100 136.406,133.200 137.126 C 136.232 139.113,135.971 147.200,132.874 147.200 C 132.129 147.200,131.153 147.567,130.703 148.017 C 129.423 149.297,121.829 146.563,121.327 144.641 C 121.102 143.783,120.205 142.895,119.333 142.667 C 118.461 142.439,117.561 141.539,117.333 140.667 C 117.105 139.795,116.172 138.886,115.259 138.647 C 114.347 138.409,113.600 137.853,113.600 137.413 C 113.600 136.317,107.604 130.400,106.494 130.400 C 106.002 130.400,105.600 129.743,105.600 128.939 C 105.600 128.136,104.700 126.633,103.600 125.600 C 101.374 123.508,100.936 120.800,102.825 120.800 C 103.499 120.800,104.283 120.170,104.567 119.400 C 105.522 116.810,107.580 116.276,112.676 117.295 M296.368 118.992 C 298.934 121.760,299.172 126.047,296.800 126.800 C 295.920 127.079,295.200 127.688,295.200 128.153 C 295.200 128.618,292.320 131.833,288.800 135.296 C 285.280 138.760,282.400 141.955,282.400 142.397 C 282.400 142.839,281.873 143.200,281.228 143.200 C 280.584 143.200,279.679 143.905,279.217 144.768 C 278.756 145.630,277.083 146.950,275.501 147.701 C 267.345 151.571,261.658 142.057,268.421 135.858 C 270.016 134.396,271.744 132.733,272.261 132.162 C 272.777 131.591,273.667 130.691,274.238 130.162 C 274.809 129.633,275.709 128.752,276.238 128.204 C 287.190 116.857,286.899 117.069,291.768 116.893 C 293.614 116.826,294.906 117.416,296.368 118.992 M194.000 141.288 C 182.348 143.017,169.645 148.152,160.056 155.010 C 153.733 159.532,140.800 174.521,140.800 177.327 C 140.800 177.746,139.900 179.309,138.800 180.800 C 137.700 182.291,136.800 184.001,136.800 184.599 C 136.800 185.198,136.049 187.336,135.131 189.351 C 134.213 191.366,133.271 195.036,133.037 197.507 C 132.804 199.978,132.106 202.810,131.488 203.800 L 130.363 205.600 96.750 205.600 C 59.005 205.600,58.831 205.625,55.347 211.530 L 53.696 214.329 55.509 217.765 C 58.603 223.627,46.784 223.203,201.411 222.992 L 341.621 222.800 343.602 220.400 C 346.517 216.868,346.901 214.563,345.125 211.257 C 342.318 206.032,342.397 206.043,305.600 205.600 L 272.400 205.200 271.271 201.600 C 270.649 199.620,269.702 196.920,269.165 195.600 C 268.629 194.280,267.937 191.760,267.628 190.000 C 267.319 188.240,266.417 185.720,265.624 184.400 C 264.831 183.080,263.912 181.100,263.582 180.000 C 263.251 178.900,262.220 177.055,261.291 175.901 C 260.361 174.746,258.980 172.766,258.223 171.501 C 255.826 167.496,254.897 166.327,250.762 162.112 C 236.799 147.879,211.685 138.665,194.000 141.288 M207.835 142.855 C 208.820 143.544,212.950 144.520,217.013 145.022 C 222.337 145.679,224.683 146.321,225.412 147.320 C 225.969 148.082,228.049 148.949,230.035 149.247 C 232.264 149.581,233.935 150.332,234.405 151.210 C 234.824 151.992,236.254 153.011,237.583 153.474 C 238.912 153.938,240.000 154.654,240.000 155.067 C 240.000 155.480,241.282 156.426,242.848 157.169 C 244.415 157.913,245.904 159.061,246.157 159.722 C 246.411 160.382,247.469 161.246,248.509 161.641 C 249.549 162.037,250.400 162.868,250.400 163.488 C 250.400 164.108,251.300 165.206,252.400 165.926 C 253.500 166.647,254.400 167.716,254.400 168.302 C 254.400 168.887,255.327 170.367,256.460 171.589 C 257.593 172.812,258.844 174.664,259.240 175.706 C 259.636 176.748,260.463 177.600,261.078 177.600 C 261.770 177.600,262.398 178.864,262.726 180.916 C 263.017 182.739,263.922 185.169,264.737 186.316 C 265.551 187.462,266.601 190.873,267.070 193.895 C 267.540 196.917,268.481 200.005,269.162 200.758 C 269.843 201.510,270.400 202.679,270.400 203.355 C 270.400 204.031,271.143 205.529,272.051 206.684 L 273.703 208.783 308.222 208.992 L 342.740 209.200 343.456 212.227 C 344.362 216.057,343.138 219.219,340.043 221.048 C 337.916 222.304,327.928 222.398,199.877 222.378 L 62.000 222.357 59.452 220.178 C 58.003 218.940,56.843 217.137,56.763 216.000 C 56.230 208.407,54.261 208.800,92.805 208.800 C 132.453 208.800,133.600 208.566,133.600 200.466 C 133.600 198.657,134.314 195.845,135.186 194.217 C 136.058 192.590,137.003 189.815,137.285 188.051 C 137.567 186.286,138.653 183.683,139.699 182.266 C 140.744 180.849,141.600 179.181,141.600 178.560 C 141.600 177.939,142.500 176.361,143.600 175.054 C 144.700 173.747,145.600 171.985,145.600 171.139 C 145.600 170.292,146.127 169.600,146.772 169.600 C 147.416 169.600,148.299 168.937,148.732 168.127 C 149.957 165.839,158.319 157.734,160.007 157.198 C 160.838 156.934,161.741 156.017,162.013 155.159 C 162.285 154.302,163.220 153.600,164.090 153.600 C 164.961 153.600,166.520 152.753,167.555 151.718 C 168.590 150.683,170.785 149.617,172.433 149.350 C 174.081 149.082,176.211 148.129,177.166 147.232 C 178.122 146.334,179.930 145.600,181.186 145.600 C 185.192 145.600,193.443 143.893,194.947 142.753 C 197.001 141.195,205.563 141.263,207.835 142.855 M195.200 157.214 C 193.220 157.827,189.500 158.554,186.934 158.830 C 184.034 159.142,181.719 159.881,180.816 160.784 C 180.017 161.583,178.244 162.483,176.877 162.783 C 174.352 163.338,171.911 165.038,167.955 169.000 C 166.747 170.210,165.355 171.200,164.862 171.200 C 164.369 171.200,163.556 172.100,163.054 173.200 C 162.553 174.300,161.652 175.200,161.052 175.200 C 160.452 175.200,159.642 176.010,159.253 177.000 C 158.864 177.990,157.803 179.418,156.895 180.173 C 155.987 180.929,154.995 182.539,154.690 183.752 C 154.386 184.964,153.465 186.506,152.644 187.178 C 151.823 187.850,150.931 189.840,150.662 191.600 C 150.393 193.360,149.504 195.444,148.687 196.231 C 146.332 198.498,146.440 204.291,148.885 206.800 C 150.407 208.362,151.645 208.405,200.866 208.618 L 251.288 208.835 253.644 206.479 C 256.242 203.881,256.553 201.999,254.775 199.647 C 254.129 198.793,253.600 196.973,253.600 195.603 C 253.600 194.201,252.725 191.925,251.600 190.400 C 250.500 188.909,249.600 187.039,249.600 186.245 C 249.600 185.450,248.790 184.000,247.800 183.023 C 246.810 182.045,245.640 180.416,245.200 179.402 C 244.024 176.692,234.342 167.216,232.200 166.678 C 231.187 166.424,230.017 165.579,229.600 164.800 C 229.183 164.021,227.871 163.140,226.684 162.842 C 225.497 162.545,223.684 161.638,222.654 160.828 C 221.557 159.966,218.712 159.129,215.791 158.811 C 213.046 158.512,209.025 157.757,206.855 157.134 C 202.049 155.753,199.869 155.768,195.200 157.214 M210.163 159.218 C 224.339 160.995,248.800 179.082,248.800 187.786 C 248.800 188.407,249.661 190.419,250.714 192.258 C 253.041 196.322,254.127 202.801,252.759 204.450 C 251.947 205.428,244.162 205.600,200.685 205.600 L 149.566 205.600 148.707 203.716 C 148.025 202.218,148.178 201.187,149.458 198.679 C 150.342 196.945,151.317 194.188,151.624 192.554 C 151.931 190.920,152.506 189.382,152.902 189.137 C 153.299 188.892,154.351 187.265,155.240 185.521 C 158.706 178.727,173.845 164.000,177.363 164.000 C 177.628 164.000,179.720 163.113,182.010 162.030 C 188.804 158.816,198.909 157.806,210.163 159.218 M69.639 248.814 C 65.309 249.833,63.357 253.522,64.349 258.811 C 65.044 262.514,67.539 264.036,74.201 264.823 C 81.487 265.684,85.918 267.380,91.422 271.413 C 113.813 287.822,132.303 287.787,155.749 271.290 C 166.924 263.427,183.867 262.810,192.000 269.970 C 195.431 272.991,205.185 279.007,208.057 279.874 C 209.566 280.330,212.379 281.279,214.308 281.984 C 217.908 283.300,232.480 283.816,235.648 282.739 C 241.510 280.747,247.777 277.997,251.011 275.997 C 253.095 274.709,255.880 273.060,257.200 272.334 C 258.520 271.607,260.337 270.341,261.238 269.519 C 268.838 262.588,286.292 263.617,296.881 271.619 C 310.021 281.549,327.791 286.484,333.541 281.800 C 335.946 279.841,337.662 274.568,336.586 272.445 C 336.127 271.540,335.501 270.264,335.194 269.609 C 334.843 268.858,331.048 267.613,324.924 266.238 C 316.722 264.397,314.555 263.575,311.005 260.958 C 308.692 259.254,305.900 257.382,304.800 256.799 C 303.700 256.216,302.440 255.288,302.000 254.737 C 301.560 254.186,299.409 253.142,297.220 252.416 C 295.030 251.690,292.816 250.746,292.300 250.317 C 289.105 247.666,267.425 247.935,261.933 250.694 C 260.650 251.338,257.269 253.016,254.420 254.421 C 251.571 255.827,248.331 257.676,247.220 258.531 C 232.914 269.540,216.384 269.120,203.649 257.424 C 202.796 256.641,201.745 256.000,201.312 256.000 C 200.880 256.000,199.958 255.499,199.263 254.887 C 192.431 248.869,166.834 246.126,159.663 250.643 C 158.748 251.219,156.513 252.122,154.695 252.649 C 152.877 253.176,150.926 254.167,150.359 254.850 C 149.791 255.533,148.219 256.607,146.864 257.235 C 145.509 257.864,142.639 259.681,140.488 261.274 C 132.167 267.434,113.615 268.051,107.567 262.369 C 106.648 261.506,105.667 260.800,105.385 260.800 C 105.103 260.800,102.465 259.000,99.522 256.800 C 96.579 254.600,93.665 252.800,93.047 252.800 C 92.429 252.800,90.445 252.086,88.638 251.213 C 86.832 250.340,84.239 249.458,82.877 249.253 C 77.002 248.367,72.211 248.209,69.639 248.814 M83.470 250.750 C 83.952 252.005,88.757 253.588,92.107 253.596 C 93.485 253.598,94.348 254.114,94.602 255.087 C 94.816 255.905,95.992 256.825,97.216 257.133 C 98.440 257.440,100.133 258.571,100.979 259.646 C 101.824 260.720,103.079 261.600,103.766 261.600 C 104.454 261.600,105.851 262.500,106.870 263.600 C 108.066 264.890,109.589 265.600,111.162 265.600 C 112.533 265.600,114.300 266.300,115.200 267.200 C 116.529 268.529,117.867 268.800,123.092 268.800 C 128.173 268.800,129.776 268.492,131.418 267.200 C 132.537 266.320,134.402 265.600,135.563 265.600 C 136.723 265.600,138.526 264.747,139.569 263.704 C 140.612 262.661,142.372 261.580,143.479 261.302 C 144.587 261.024,145.722 260.077,146.001 259.198 C 146.328 258.166,147.211 257.600,148.492 257.600 C 149.583 257.600,151.269 256.751,152.238 255.714 C 153.355 254.518,155.358 253.627,157.708 253.279 C 159.803 252.968,162.032 252.049,162.832 251.165 C 164.975 248.797,185.504 248.782,186.981 251.147 C 187.607 252.150,189.294 252.893,191.774 253.259 C 193.945 253.580,196.578 254.641,197.861 255.712 C 199.105 256.750,200.815 257.600,201.661 257.600 C 202.508 257.600,203.200 258.148,203.200 258.817 C 203.200 259.487,204.190 260.476,205.400 261.017 C 206.610 261.557,208.144 262.652,208.808 263.450 C 209.473 264.248,211.543 265.106,213.408 265.356 C 215.274 265.606,216.800 266.080,216.800 266.408 C 216.800 269.026,232.800 269.657,234.679 267.113 C 235.185 266.427,237.040 265.637,238.800 265.357 C 240.560 265.077,242.560 264.164,243.245 263.328 C 243.929 262.491,245.280 261.556,246.246 261.249 C 247.211 260.942,248.374 259.996,248.829 259.146 C 249.284 258.296,250.336 257.600,251.167 257.600 C 251.998 257.600,253.695 256.746,254.939 255.702 C 256.182 254.657,258.766 253.540,260.680 253.218 C 262.593 252.896,264.743 251.950,265.457 251.116 C 267.436 248.805,286.298 248.849,289.561 251.172 C 290.775 252.037,293.296 252.988,295.163 253.287 C 297.093 253.595,299.370 254.643,300.442 255.715 C 301.479 256.752,303.051 257.600,303.935 257.600 C 304.820 257.600,305.916 258.296,306.371 259.146 C 306.826 259.996,307.930 260.924,308.825 261.208 C 309.719 261.492,311.323 262.596,312.389 263.662 C 313.489 264.762,315.268 265.600,316.501 265.600 C 317.696 265.600,319.354 266.215,320.184 266.967 C 321.164 267.853,323.828 268.537,327.767 268.913 C 334.564 269.563,335.170 270.057,335.188 274.968 C 335.213 281.783,326.517 284.894,318.568 280.914 C 316.936 280.097,314.198 279.211,312.485 278.946 C 310.772 278.680,308.612 277.770,307.685 276.924 C 306.758 276.077,305.178 275.135,304.174 274.830 C 303.170 274.525,301.370 273.379,300.174 272.282 C 296.499 268.912,295.662 268.254,293.853 267.311 C 292.892 266.810,291.542 266.400,290.853 266.400 C 290.164 266.400,288.880 265.680,288.000 264.800 C 286.596 263.396,285.333 263.200,277.708 263.200 C 270.227 263.200,268.732 263.423,266.982 264.800 C 265.863 265.680,264.358 266.400,263.637 266.400 C 262.917 266.400,261.455 267.272,260.389 268.338 C 259.323 269.404,257.630 270.533,256.626 270.847 C 255.622 271.162,253.782 272.270,252.539 273.309 C 251.295 274.349,249.785 275.200,249.184 275.200 C 248.583 275.200,247.620 275.857,247.045 276.660 C 246.420 277.534,244.095 278.499,241.262 279.061 C 238.656 279.579,235.928 280.541,235.199 281.201 C 233.310 282.911,218.690 282.911,216.801 281.201 C 216.072 280.541,213.344 279.579,210.738 279.061 C 208.015 278.521,205.574 277.527,204.999 276.724 C 204.448 275.955,202.915 275.089,201.592 274.798 C 200.269 274.508,198.817 273.579,198.365 272.735 C 197.913 271.891,196.999 271.200,196.334 271.200 C 195.668 271.200,194.331 270.350,193.362 269.311 C 192.393 268.272,190.700 267.150,189.600 266.817 C 188.500 266.483,186.933 265.623,186.118 264.905 C 183.696 262.771,167.694 262.537,164.896 264.595 C 163.743 265.443,161.838 266.376,160.662 266.668 C 159.486 266.960,157.454 268.100,156.146 269.200 C 154.839 270.300,153.391 271.200,152.930 271.200 C 152.468 271.200,151.620 271.862,151.045 272.671 C 150.470 273.480,149.020 274.384,147.822 274.680 C 146.624 274.977,145.004 275.903,144.222 276.739 C 143.440 277.575,141.360 278.519,139.600 278.838 C 137.840 279.156,135.064 280.088,133.432 280.908 C 129.086 283.093,117.071 283.030,113.419 280.803 C 111.979 279.925,109.894 279.205,108.788 279.203 C 107.681 279.201,105.521 278.475,103.988 277.589 C 102.454 276.704,100.210 275.588,99.000 275.111 C 97.790 274.634,96.800 273.948,96.800 273.587 C 96.800 273.226,95.450 272.106,93.800 271.099 C 92.150 270.091,90.440 268.845,90.000 268.329 C 89.560 267.814,88.142 267.145,86.849 266.843 C 85.557 266.541,84.078 265.718,83.564 265.015 C 82.881 264.081,80.624 263.591,75.200 263.200 C 66.725 262.589,65.600 261.803,65.600 256.499 C 65.600 250.989,67.704 249.600,76.054 249.600 C 81.382 249.600,83.133 249.872,83.470 250.750 M67.887 305.009 C 64.889 306.199,63.414 310.890,64.695 315.164 C 65.883 319.130,66.097 319.253,73.226 320.052 C 76.451 320.414,80.645 321.397,82.545 322.237 C 84.445 323.077,86.540 323.997,87.200 324.282 C 87.860 324.567,90.020 326.042,92.000 327.561 C 102.738 335.798,110.967 338.753,123.200 338.769 C 135.864 338.785,139.842 337.376,154.800 327.578 C 158.320 325.272,162.100 323.120,163.200 322.795 C 164.300 322.470,165.704 321.799,166.321 321.304 C 166.956 320.794,170.424 320.403,174.321 320.402 C 182.643 320.400,185.416 321.426,195.731 328.321 C 204.667 334.296,206.033 335.035,211.600 336.912 C 219.689 339.639,232.473 339.611,240.400 336.848 C 245.981 334.903,247.744 333.949,257.600 327.538 C 272.103 318.104,284.925 317.882,296.400 326.867 C 312.227 339.260,331.594 343.128,335.596 334.696 C 339.177 327.148,334.811 322.315,323.571 321.387 C 318.201 320.943,313.600 319.565,313.600 318.400 C 313.600 318.101,312.610 317.406,311.400 316.856 C 310.190 316.305,308.660 315.337,308.000 314.704 C 306.197 312.975,299.715 308.831,298.788 308.815 C 298.342 308.807,296.654 308.092,295.039 307.226 C 285.003 301.847,264.670 303.414,253.600 310.420 C 252.940 310.838,251.320 311.775,250.000 312.502 C 248.680 313.230,246.582 314.674,245.339 315.713 C 244.095 316.751,242.719 317.600,242.281 317.600 C 241.844 317.600,240.955 318.130,240.307 318.779 C 238.229 320.857,232.691 321.773,224.010 321.476 C 214.941 321.165,212.542 320.256,204.420 314.057 C 191.983 304.564,166.047 300.464,158.400 306.782 C 157.740 307.327,156.013 308.172,154.562 308.658 C 153.112 309.145,150.993 310.276,149.855 311.171 C 148.716 312.067,147.440 312.800,147.019 312.800 C 146.598 312.800,145.296 313.539,144.127 314.443 C 133.056 322.994,117.185 324.512,107.607 317.935 C 99.070 312.073,96.405 310.455,91.288 308.026 C 83.677 304.413,72.892 303.022,67.887 305.009 M84.951 307.169 C 85.877 308.031,88.230 308.976,90.181 309.269 C 92.308 309.588,94.489 310.561,95.628 311.700 C 96.672 312.745,98.021 313.600,98.624 313.600 C 99.227 313.600,100.567 314.500,101.600 315.600 C 102.633 316.700,103.940 317.600,104.503 317.600 C 105.066 317.600,106.427 318.500,107.527 319.600 C 108.832 320.904,110.422 321.600,112.101 321.600 C 113.516 321.600,115.359 322.220,116.196 322.978 C 118.287 324.870,129.310 324.968,130.681 323.107 C 131.186 322.420,133.216 321.643,135.192 321.380 C 137.198 321.112,139.317 320.260,139.992 319.450 C 140.656 318.652,142.190 317.557,143.400 317.017 C 144.610 316.476,145.600 315.487,145.600 314.817 C 145.600 314.143,146.297 313.600,147.162 313.600 C 149.417 313.600,152.800 311.906,152.800 310.777 C 152.800 310.245,154.295 309.610,156.123 309.365 C 157.950 309.120,160.456 308.172,161.690 307.260 C 165.000 304.812,184.669 304.752,187.755 307.179 C 188.859 308.047,191.076 308.999,192.681 309.294 C 194.287 309.590,196.618 310.679,197.861 311.715 C 199.105 312.752,200.622 313.600,201.233 313.600 C 201.844 313.600,203.166 314.353,204.172 315.273 C 208.529 319.259,212.364 321.600,214.538 321.600 C 215.813 321.600,217.654 322.100,218.628 322.710 C 222.212 324.956,234.400 324.746,234.400 322.439 C 234.400 322.093,235.875 321.613,237.679 321.371 C 239.482 321.129,241.755 320.182,242.730 319.266 C 243.705 318.350,244.904 317.600,245.393 317.600 C 245.883 317.600,246.957 316.745,247.779 315.699 C 248.601 314.654,250.427 313.546,251.836 313.236 C 253.245 312.927,254.848 312.067,255.399 311.327 C 255.950 310.586,258.200 309.520,260.400 308.958 C 262.600 308.395,264.800 307.409,265.288 306.767 C 266.795 304.787,288.809 305.091,290.543 307.116 C 291.257 307.950,293.407 308.896,295.320 309.219 C 297.386 309.567,299.516 310.576,300.562 311.702 C 301.531 312.746,303.241 313.600,304.362 313.600 C 305.653 313.600,306.400 314.046,306.400 314.817 C 306.400 315.487,307.373 316.477,308.562 317.017 C 309.751 317.558,311.535 318.810,312.526 319.800 C 313.730 321.003,315.287 321.600,317.221 321.600 C 318.812 321.600,320.608 322.093,321.211 322.696 C 321.814 323.300,324.904 324.178,328.077 324.649 C 334.538 325.608,335.170 326.171,335.188 330.979 C 335.198 333.931,334.896 334.516,332.800 335.600 C 331.480 336.283,330.400 337.192,330.400 337.621 C 330.400 338.860,326.225 338.528,321.525 336.917 C 319.146 336.101,315.410 335.167,313.222 334.841 C 310.755 334.473,308.848 333.682,308.199 332.756 C 307.624 331.935,305.904 331.029,304.377 330.743 C 302.850 330.456,301.600 329.746,301.600 329.165 C 301.600 328.583,300.922 327.893,300.093 327.630 C 299.264 327.367,297.468 326.082,296.100 324.776 C 294.733 323.469,292.891 322.400,292.007 322.400 C 291.123 322.400,289.680 321.680,288.800 320.800 C 286.431 318.431,269.175 318.393,266.457 320.751 C 265.473 321.604,263.615 322.533,262.328 322.816 C 261.040 323.099,259.639 323.979,259.214 324.773 C 258.790 325.567,257.548 326.440,256.455 326.715 C 255.362 326.989,253.500 328.110,252.317 329.207 C 251.134 330.303,249.512 331.200,248.711 331.200 C 247.911 331.200,246.891 331.882,246.446 332.715 C 245.871 333.789,244.075 334.501,240.277 335.163 C 237.331 335.676,233.679 336.614,232.162 337.248 C 228.459 338.795,224.571 338.684,218.766 336.864 C 216.108 336.030,212.209 335.089,210.103 334.774 C 207.996 334.458,206.096 333.737,205.879 333.173 C 205.662 332.608,204.341 331.688,202.943 331.127 C 201.544 330.566,199.382 329.273,198.139 328.254 C 196.895 327.234,195.561 326.400,195.175 326.400 C 194.789 326.400,193.573 325.500,192.473 324.400 C 191.373 323.300,189.883 322.400,189.163 322.400 C 188.442 322.400,186.937 321.680,185.818 320.800 C 182.899 318.504,166.830 318.414,163.908 320.678 C 162.859 321.491,160.999 322.400,159.776 322.699 C 158.553 322.998,156.778 324.133,155.832 325.221 C 154.886 326.310,153.423 327.200,152.581 327.200 C 151.739 327.200,150.871 327.886,150.651 328.725 C 150.402 329.679,149.274 330.433,147.636 330.740 C 146.197 331.010,144.398 331.918,143.639 332.757 C 142.879 333.597,140.760 334.516,138.929 334.799 C 137.098 335.083,133.529 336.009,130.997 336.858 C 125.516 338.694,121.197 338.818,117.438 337.248 C 115.921 336.614,112.304 335.682,109.399 335.176 C 106.133 334.607,103.590 333.673,102.735 332.728 C 101.974 331.888,100.741 331.200,99.995 331.200 C 99.248 331.200,97.525 330.210,96.165 329.000 C 92.091 325.375,89.314 323.459,87.200 322.818 C 86.100 322.484,84.540 321.631,83.734 320.921 C 82.762 320.067,79.942 319.451,75.366 319.096 C 66.087 318.374,62.620 313.600,67.000 307.576 C 68.948 304.897,82.190 304.597,84.951 307.169 " stroke="none" fill="#434343" fill-rule="evenodd"></path><path id="path2" d="M195.085 76.413 C 191.709 78.247,191.199 81.235,191.212 99.119 C 191.225 117.419,191.519 118.754,196.022 120.962 C 200.887 123.346,206.579 121.661,208.743 117.197 C 210.306 113.971,210.355 83.753,208.802 80.006 C 206.977 75.598,199.965 73.762,195.085 76.413 M204.502 77.279 C 207.661 78.126,208.124 80.933,208.083 98.983 C 208.059 109.211,207.710 116.647,207.209 117.583 C 205.182 121.370,195.600 121.337,193.566 117.536 C 190.813 112.392,192.783 78.158,195.879 77.336 C 197.901 76.800,202.600 76.768,204.502 77.279 M107.449 113.358 C 104.202 113.989,100.000 119.589,100.000 123.285 C 100.000 127.887,123.486 152.000,127.967 152.000 C 134.577 152.000,140.171 144.939,137.900 139.462 C 135.426 133.495,113.074 112.350,109.832 112.909 C 109.484 112.969,108.412 113.171,107.449 113.358 M287.200 114.352 C 283.093 116.618,264.376 135.885,262.965 139.299 C 260.703 144.769,266.094 152.000,272.434 152.000 C 275.371 152.000,297.194 132.044,300.009 126.784 C 303.886 119.538,294.431 110.361,287.200 114.352 M125.200 126.789 C 137.046 138.797,138.192 140.798,135.891 145.448 C 131.686 153.947,127.662 152.706,113.583 138.567 C 99.300 124.223,98.172 121.509,104.598 116.949 C 110.229 112.954,112.730 114.148,125.200 126.789 M295.747 116.608 C 302.835 120.222,301.089 124.759,287.313 138.523 C 273.722 152.103,271.757 153.004,266.485 148.079 C 261.218 143.159,262.473 140.083,275.028 127.137 C 287.478 114.299,289.350 113.347,295.747 116.608 M189.600 140.523 C 169.057 144.523,145.547 161.733,139.262 177.373 C 138.693 178.789,137.727 180.363,137.114 180.871 C 136.501 181.380,136.000 182.396,136.000 183.129 C 136.000 183.862,135.268 185.888,134.374 187.631 C 133.479 189.374,132.364 193.357,131.894 196.482 C 131.425 199.607,130.730 202.667,130.350 203.282 C 129.782 204.202,123.409 204.471,94.337 204.800 L 59.015 205.200 55.908 208.703 C 51.725 213.418,51.725 216.183,55.909 220.897 L 59.017 224.400 200.244 224.400 L 341.471 224.400 343.612 222.400 C 349.031 217.336,349.155 212.352,343.975 207.673 L 340.795 204.800 307.722 204.800 C 271.872 204.800,272.000 204.816,272.000 200.434 C 272.000 196.592,265.764 180.786,261.413 173.600 C 247.345 150.364,215.170 135.544,189.600 140.523 M218.137 143.487 C 227.514 145.997,234.801 149.571,244.463 156.398 C 246.975 158.173,254.231 165.401,255.823 167.714 C 256.386 168.531,257.466 170.235,258.223 171.501 C 258.980 172.766,260.361 174.746,261.291 175.901 C 262.220 177.055,263.251 178.900,263.582 180.000 C 263.912 181.100,264.831 183.080,265.624 184.400 C 266.417 185.720,267.319 188.240,267.628 190.000 C 267.937 191.760,268.629 194.280,269.165 195.600 C 269.702 196.920,270.649 199.620,271.271 201.600 L 272.400 205.200 305.600 205.600 C 342.397 206.043,342.318 206.032,345.125 211.257 C 346.901 214.563,346.517 216.868,343.602 220.400 L 341.621 222.800 201.411 222.992 C 46.784 223.203,58.603 223.627,55.509 217.765 L 53.696 214.329 55.347 211.530 C 58.831 205.625,59.005 205.600,96.750 205.600 L 130.363 205.600 131.488 203.800 C 132.106 202.810,132.804 199.978,133.037 197.507 C 133.271 195.036,134.213 191.366,135.131 189.351 C 136.049 187.336,136.800 185.198,136.800 184.599 C 136.800 184.001,137.700 182.291,138.800 180.800 C 139.900 179.309,140.800 177.746,140.800 177.327 C 140.800 174.521,153.733 159.532,160.056 155.010 C 169.645 148.152,182.348 143.017,194.000 141.288 C 199.198 140.517,211.086 141.600,218.137 143.487 M191.287 159.329 C 188.475 159.731,184.300 160.946,182.010 162.030 C 179.720 163.113,177.628 164.000,177.363 164.000 C 173.845 164.000,158.706 178.727,155.240 185.521 C 154.351 187.265,153.299 188.892,152.902 189.137 C 152.506 189.382,151.931 190.920,151.624 192.554 C 151.317 194.188,150.342 196.945,149.458 198.679 C 148.178 201.187,148.025 202.218,148.707 203.716 L 149.566 205.600 200.685 205.600 C 244.162 205.600,251.947 205.428,252.759 204.450 C 254.127 202.801,253.041 196.322,250.714 192.258 C 249.661 190.419,248.800 188.407,248.800 187.786 C 248.800 186.204,245.291 181.530,239.200 174.997 C 226.527 161.404,211.390 156.454,191.287 159.329 M216.800 161.795 C 230.126 167.857,231.946 168.998,237.433 174.736 C 242.721 180.266,246.500 185.640,247.877 189.591 C 248.396 191.079,249.315 192.859,249.921 193.548 C 250.526 194.237,251.375 196.496,251.808 198.570 C 253.193 205.217,256.483 204.811,201.937 204.720 C 151.998 204.637,149.906 204.525,150.142 201.950 C 150.376 199.396,153.730 190.094,154.906 188.737 C 155.508 188.042,156.000 187.191,156.000 186.844 C 156.000 182.458,172.691 166.979,180.325 164.285 C 182.050 163.677,183.864 162.845,184.355 162.437 C 187.467 159.854,211.488 159.379,216.800 161.795 M67.200 248.177 C 59.257 252.392,61.747 263.764,71.016 265.601 C 82.638 267.905,86.059 269.107,90.800 272.548 C 97.824 277.647,101.199 279.768,103.318 280.415 C 104.353 280.732,106.820 281.751,108.800 282.680 C 113.628 284.945,132.300 285.197,136.800 283.058 C 138.340 282.326,140.500 281.483,141.600 281.184 C 142.700 280.885,144.950 279.776,146.600 278.720 C 148.250 277.664,150.950 275.962,152.600 274.939 C 154.250 273.915,157.040 272.144,158.800 271.003 C 168.122 264.962,184.294 265.196,192.136 271.487 C 193.601 272.662,195.216 273.961,195.724 274.373 C 213.120 288.465,235.366 288.222,257.269 273.702 C 271.761 264.095,283.954 263.860,296.727 272.940 C 304.244 278.283,308.193 280.618,310.805 281.262 C 312.122 281.587,313.935 282.328,314.833 282.909 C 316.879 284.232,329.185 285.129,332.400 284.189 C 334.213 283.659,335.356 282.402,337.071 279.052 L 339.343 274.616 337.624 271.248 C 335.691 267.458,331.172 264.861,326.400 264.798 C 319.456 264.706,316.692 263.464,304.800 255.095 C 296.140 249.001,291.254 247.637,278.000 247.618 C 262.529 247.595,259.840 248.522,243.732 259.435 C 232.845 266.811,218.209 266.802,208.400 259.413 C 189.185 244.940,166.709 242.851,149.600 253.947 C 133.434 264.432,132.550 264.800,123.600 264.776 C 115.203 264.753,107.315 262.169,104.000 258.355 C 97.567 250.952,74.166 244.480,67.200 248.177 M82.877 249.253 C 84.239 249.458,86.832 250.340,88.638 251.213 C 90.445 252.086,92.429 252.800,93.047 252.800 C 93.665 252.800,96.579 254.600,99.522 256.800 C 102.465 259.000,105.103 260.800,105.385 260.800 C 105.667 260.800,106.648 261.506,107.567 262.369 C 113.615 268.051,132.167 267.434,140.488 261.274 C 142.639 259.681,145.509 257.864,146.864 257.235 C 148.219 256.607,149.791 255.533,150.359 254.850 C 150.926 254.167,152.877 253.176,154.695 252.649 C 156.513 252.122,158.748 251.219,159.663 250.643 C 166.834 246.126,192.431 248.869,199.263 254.887 C 199.958 255.499,200.880 256.000,201.312 256.000 C 201.745 256.000,202.796 256.641,203.649 257.424 C 216.384 269.120,232.914 269.540,247.220 258.531 C 248.331 257.676,251.571 255.827,254.420 254.421 C 257.269 253.016,260.650 251.338,261.933 250.694 C 267.425 247.935,289.105 247.666,292.300 250.317 C 292.816 250.746,295.030 251.690,297.220 252.416 C 299.409 253.142,301.560 254.186,302.000 254.737 C 302.440 255.288,303.700 256.216,304.800 256.799 C 305.900 257.382,308.692 259.254,311.005 260.958 C 314.555 263.575,316.722 264.397,324.924 266.238 C 331.048 267.613,334.843 268.858,335.194 269.609 C 335.501 270.264,336.127 271.540,336.586 272.445 C 337.662 274.568,335.946 279.841,333.541 281.800 C 327.791 286.484,310.021 281.549,296.881 271.619 C 286.292 263.617,268.838 262.588,261.238 269.519 C 260.337 270.341,258.520 271.607,257.200 272.334 C 255.880 273.060,253.095 274.709,251.011 275.997 C 247.777 277.997,241.510 280.747,235.648 282.739 C 232.480 283.816,217.908 283.300,214.308 281.984 C 212.379 281.279,209.566 280.330,208.057 279.874 C 205.185 279.007,195.431 272.991,192.000 269.970 C 183.867 262.810,166.924 263.427,155.749 271.290 C 142.595 280.546,135.293 283.256,123.517 283.255 C 111.148 283.254,103.961 280.602,91.422 271.413 C 85.918 267.380,81.487 265.684,74.201 264.823 C 67.539 264.036,65.044 262.514,64.349 258.811 C 62.642 249.711,67.905 246.996,82.877 249.253 M67.520 304.025 C 57.698 308.887,62.494 321.595,74.153 321.599 C 76.437 321.599,78.498 321.911,78.732 322.290 C 78.967 322.670,80.806 323.442,82.819 324.005 C 84.832 324.569,88.817 326.778,91.676 328.915 C 94.534 331.052,97.021 332.800,97.201 332.800 C 97.381 332.800,98.855 333.700,100.476 334.800 C 102.097 335.900,104.003 336.812,104.712 336.827 C 105.420 336.842,107.440 337.550,109.200 338.400 C 117.016 342.175,138.184 339.995,146.400 334.568 C 147.500 333.842,149.367 332.697,150.549 332.024 C 151.731 331.351,154.611 329.480,156.949 327.868 C 169.158 319.445,181.532 319.778,194.174 328.867 C 212.672 342.167,232.644 344.088,249.600 334.199 C 253.624 331.852,261.129 326.893,261.606 326.266 C 262.796 324.703,273.396 321.602,277.495 321.617 C 283.679 321.640,291.699 324.629,297.032 328.898 C 309.726 339.059,329.147 343.726,334.880 337.992 C 342.796 330.077,337.784 321.484,324.580 320.333 C 318.451 319.798,317.975 319.602,309.998 314.325 C 285.476 298.103,267.785 298.395,243.059 315.429 C 231.611 323.316,219.584 322.675,205.944 313.451 C 186.616 300.382,165.709 298.974,149.600 309.659 C 128.930 323.368,119.483 324.347,104.637 314.318 C 89.004 303.758,75.580 300.035,67.520 304.025 M81.288 304.806 C 88.424 305.964,94.820 309.155,107.607 317.935 C 117.185 324.512,133.056 322.994,144.127 314.443 C 145.296 313.539,146.598 312.800,147.019 312.800 C 147.440 312.800,148.716 312.067,149.855 311.171 C 150.993 310.276,153.112 309.145,154.562 308.658 C 156.013 308.172,157.740 307.327,158.400 306.782 C 166.047 300.464,191.983 304.564,204.420 314.057 C 212.542 320.256,214.941 321.165,224.010 321.476 C 232.691 321.773,238.229 320.857,240.307 318.779 C 240.955 318.130,241.844 317.600,242.281 317.600 C 242.719 317.600,244.095 316.751,245.339 315.713 C 246.582 314.674,248.680 313.230,250.000 312.502 C 251.320 311.775,252.940 310.838,253.600 310.420 C 264.670 303.414,285.003 301.847,295.039 307.226 C 296.654 308.092,298.342 308.807,298.788 308.815 C 299.715 308.831,306.197 312.975,308.000 314.704 C 308.660 315.337,310.190 316.305,311.400 316.856 C 312.610 317.406,313.600 318.101,313.600 318.400 C 313.600 319.565,318.201 320.943,323.571 321.387 C 334.811 322.315,339.177 327.148,335.596 334.696 C 331.594 343.128,312.227 339.260,296.400 326.867 C 284.925 317.882,272.103 318.104,257.600 327.538 C 247.744 333.949,245.981 334.903,240.400 336.848 C 232.473 339.611,219.689 339.639,211.600 336.912 C 206.033 335.035,204.667 334.296,195.731 328.321 C 185.416 321.426,182.643 320.400,174.321 320.402 C 170.424 320.403,166.956 320.794,166.321 321.304 C 165.704 321.799,164.300 322.470,163.200 322.795 C 162.100 323.120,158.320 325.272,154.800 327.578 C 139.842 337.376,135.864 338.785,123.200 338.769 C 110.967 338.753,102.738 335.798,92.000 327.561 C 90.020 326.042,87.860 324.567,87.200 324.282 C 86.540 323.997,84.445 323.077,82.545 322.237 C 80.645 321.397,76.451 320.414,73.226 320.052 C 66.097 319.253,65.883 319.130,64.695 315.164 C 62.006 306.189,67.744 302.607,81.288 304.806 " stroke="none" fill="#6d6d6d" fill-rule="evenodd"></path><path id="path3" d="M197.276 73.400 C 196.951 73.730,195.571 74.382,194.208 74.849 C 189.890 76.330,188.737 81.506,188.813 99.072 C 188.848 107.142,189.198 114.342,189.590 115.072 C 189.982 115.803,190.506 117.366,190.754 118.547 C 191.023 119.832,191.925 120.921,193.002 121.261 C 193.991 121.574,195.270 122.498,195.845 123.315 C 197.371 125.482,203.622 125.402,204.800 123.200 C 205.271 122.320,206.375 121.600,207.253 121.600 C 208.132 121.600,209.080 120.970,209.361 120.200 C 209.642 119.430,210.531 117.941,211.336 116.892 C 213.420 114.176,213.578 82.442,211.517 80.731 C 210.811 80.145,209.926 78.857,209.550 77.867 C 208.358 74.734,199.233 71.413,197.276 73.400 M205.527 76.362 C 209.320 78.324,209.826 80.923,209.867 98.643 C 209.909 116.812,209.489 118.661,204.791 120.958 C 200.096 123.254,194.309 121.706,192.234 117.600 C 190.919 114.997,190.795 83.800,192.085 80.100 C 193.637 75.647,200.469 73.747,205.527 76.362 M102.061 114.485 C 97.570 119.108,96.954 129.600,101.173 129.600 C 101.786 129.600,102.404 130.410,102.544 131.400 C 102.706 132.539,103.443 133.291,104.551 133.449 C 105.642 133.604,106.396 134.358,106.551 135.449 C 106.709 136.557,107.461 137.294,108.600 137.456 C 109.790 137.625,110.400 138.260,110.400 139.331 C 110.400 140.297,111.070 141.125,112.061 141.384 C 112.975 141.623,114.046 142.670,114.442 143.709 C 114.837 144.749,115.718 145.600,116.400 145.600 C 117.082 145.600,117.982 146.500,118.400 147.600 C 118.866 148.824,119.789 149.600,120.780 149.600 C 121.671 149.600,122.400 150.127,122.400 150.772 C 122.400 154.864,132.721 154.739,136.584 150.600 C 144.367 142.259,143.566 140.236,125.330 122.200 L 114.208 111.200 109.704 111.227 C 105.508 111.252,104.985 111.475,102.061 114.485 M285.108 112.978 C 281.607 115.674,262.400 135.297,262.400 136.177 C 262.400 136.601,261.680 137.863,260.800 138.982 C 259.920 140.100,259.200 141.691,259.200 142.516 C 259.200 143.341,259.920 144.632,260.800 145.386 C 261.680 146.139,262.400 147.178,262.400 147.693 C 262.400 150.571,267.021 153.600,271.411 153.600 C 276.814 153.600,278.023 152.707,291.701 138.617 L 301.600 128.418 301.600 122.916 C 301.600 113.145,292.225 107.496,285.108 112.978 M113.432 114.332 C 117.649 116.508,136.344 135.709,137.900 139.462 C 140.171 144.939,134.577 152.000,127.967 152.000 C 125.617 152.000,123.916 150.587,112.662 139.283 C 97.886 124.443,97.268 123.029,102.849 116.852 C 105.320 114.116,106.414 113.498,109.832 112.909 C 110.179 112.849,111.799 113.489,113.432 114.332 M297.215 115.797 C 304.068 121.513,302.597 125.106,287.174 140.319 C 273.997 153.317,272.417 154.093,267.057 150.200 C 259.243 144.524,260.598 140.012,274.282 126.149 C 288.206 112.041,291.130 110.722,297.215 115.797 M185.301 139.104 C 183.156 139.430,180.996 140.250,180.501 140.927 C 180.005 141.604,177.878 142.417,175.774 142.732 C 173.302 143.103,171.605 143.853,170.981 144.853 C 170.450 145.704,169.185 146.400,168.171 146.400 C 167.157 146.400,165.455 147.272,164.389 148.338 C 163.323 149.404,161.703 150.513,160.789 150.803 C 157.842 151.739,143.635 165.370,142.771 168.091 C 142.499 168.949,141.404 170.523,140.338 171.589 C 139.272 172.655,138.400 174.122,138.400 174.848 C 138.400 175.575,137.500 177.239,136.400 178.546 C 135.300 179.853,134.400 181.682,134.400 182.610 C 134.400 183.538,133.653 185.092,132.740 186.064 C 131.431 187.457,130.965 189.333,130.540 194.916 L 130.000 202.000 94.400 202.409 C 74.820 202.634,58.260 203.120,57.600 203.489 C 50.436 207.495,48.793 216.718,54.242 222.333 L 57.417 225.604 200.909 225.402 L 344.400 225.200 345.190 223.400 C 345.624 222.410,346.421 221.600,346.962 221.600 C 351.249 221.600,350.560 211.430,345.946 206.614 L 342.293 202.800 308.053 202.554 L 273.814 202.307 273.377 197.494 C 273.131 194.778,272.389 192.071,271.672 191.280 C 270.975 190.509,270.085 188.174,269.696 186.091 C 269.307 184.008,268.226 181.492,267.294 180.500 C 266.362 179.508,265.600 177.954,265.600 177.046 C 265.600 176.139,265.034 174.926,264.342 174.351 C 263.649 173.777,262.382 171.933,261.525 170.254 C 260.668 168.574,259.606 167.200,259.164 167.200 C 258.722 167.200,258.005 166.265,257.571 165.123 C 257.136 163.980,256.098 162.867,255.264 162.649 C 254.430 162.431,253.561 161.539,253.333 160.667 C 253.105 159.795,252.172 158.886,251.259 158.647 C 250.347 158.409,249.600 157.728,249.600 157.135 C 249.600 156.542,248.790 155.629,247.800 155.106 C 246.810 154.584,245.218 153.401,244.261 152.478 C 241.119 149.445,237.900 147.306,235.616 146.733 C 234.380 146.422,232.739 145.539,231.969 144.769 C 231.199 143.999,229.017 143.107,227.119 142.786 C 225.222 142.466,222.670 141.464,221.448 140.561 C 219.033 138.775,194.098 137.771,185.301 139.104 M221.164 142.756 C 240.836 148.910,256.350 162.386,265.424 181.200 C 268.016 186.577,272.000 198.227,272.000 200.434 C 272.000 204.816,271.872 204.800,307.722 204.800 L 340.795 204.800 343.975 207.673 C 349.155 212.352,349.031 217.336,343.612 222.400 L 341.471 224.400 200.244 224.400 L 59.017 224.400 55.909 220.897 C 51.725 216.183,51.725 213.418,55.908 208.703 L 59.015 205.200 94.337 204.800 C 123.409 204.471,129.782 204.202,130.350 203.282 C 130.730 202.667,131.425 199.607,131.894 196.482 C 132.364 193.357,133.479 189.374,134.374 187.631 C 135.268 185.888,136.000 183.862,136.000 183.129 C 136.000 182.396,136.501 181.380,137.114 180.871 C 137.727 180.363,138.693 178.789,139.262 177.373 C 145.547 161.733,169.057 144.523,189.600 140.523 C 196.034 139.270,214.110 140.549,221.164 142.756 M189.224 160.888 C 187.037 161.332,184.846 162.030,184.355 162.437 C 183.864 162.845,182.050 163.677,180.325 164.285 C 172.691 166.979,156.000 182.458,156.000 186.844 C 156.000 187.191,155.508 188.042,154.906 188.737 C 153.730 190.094,150.376 199.396,150.142 201.950 C 149.906 204.525,151.998 204.637,201.937 204.720 C 256.483 204.811,253.193 205.217,251.808 198.570 C 251.375 196.496,250.526 194.237,249.921 193.548 C 249.315 192.859,248.396 191.079,247.877 189.591 C 246.500 185.640,242.721 180.266,237.433 174.736 C 231.946 168.998,230.126 167.857,216.800 161.795 C 213.400 160.249,195.300 159.653,189.224 160.888 M214.089 162.744 C 214.576 164.011,218.498 165.600,221.142 165.600 C 222.078 165.600,223.452 166.310,224.196 167.178 C 224.939 168.046,226.545 169.007,227.764 169.313 C 228.984 169.619,230.642 170.709,231.449 171.735 C 232.256 172.761,233.430 173.600,234.058 173.600 C 234.686 173.600,235.200 173.981,235.200 174.446 C 235.200 174.912,236.730 176.812,238.600 178.670 C 240.470 180.527,242.624 183.386,243.387 185.023 C 244.150 186.660,245.094 188.000,245.485 188.000 C 245.876 188.000,246.416 189.379,246.686 191.065 C 246.955 192.751,247.901 194.787,248.788 195.589 C 249.792 196.498,250.400 198.057,250.400 199.724 L 250.400 202.400 201.220 202.400 L 152.040 202.400 152.820 200.348 C 153.249 199.219,153.600 197.381,153.600 196.263 C 153.600 195.146,154.500 193.161,155.600 191.854 C 156.700 190.547,157.600 188.736,157.600 187.830 C 157.600 186.925,158.410 185.344,159.400 184.318 C 160.390 183.292,162.820 180.490,164.800 178.091 C 166.780 175.693,168.824 173.701,169.342 173.665 C 169.860 173.629,170.954 172.748,171.772 171.708 C 172.591 170.667,174.147 169.535,175.230 169.193 C 176.314 168.851,177.636 167.951,178.169 167.195 C 178.701 166.438,180.650 165.616,182.499 165.368 C 184.349 165.120,186.793 164.191,187.931 163.303 C 190.621 161.204,213.312 160.719,214.089 162.744 M72.000 244.567 C 71.340 244.774,69.666 245.451,68.279 246.072 C 66.893 246.692,65.355 247.200,64.862 247.200 C 64.369 247.200,63.531 248.190,63.000 249.400 C 62.468 250.610,61.576 251.888,61.017 252.240 C 60.445 252.599,60.000 254.421,60.000 256.400 C 60.000 258.379,60.445 260.201,61.017 260.560 C 61.576 260.912,62.468 262.190,63.000 263.400 C 63.587 264.737,64.589 265.600,65.555 265.600 C 66.429 265.600,67.508 266.281,67.954 267.114 C 68.619 268.357,70.091 268.732,76.182 269.213 C 82.305 269.697,83.995 270.131,85.861 271.699 C 87.105 272.745,88.815 273.600,89.661 273.600 C 90.533 273.600,91.200 274.150,91.200 274.869 C 91.200 275.568,92.280 276.547,93.600 277.045 C 94.920 277.543,96.000 278.223,96.000 278.555 C 96.000 279.376,100.406 281.600,102.032 281.600 C 102.753 281.600,103.999 282.410,104.801 283.400 C 107.002 286.118,139.312 286.224,141.501 283.521 C 142.249 282.597,144.177 281.595,145.785 281.293 C 147.685 280.937,148.885 280.193,149.209 279.172 C 149.528 278.166,150.422 277.600,151.690 277.600 C 152.781 277.600,154.573 276.700,155.673 275.600 C 156.773 274.500,158.034 273.600,158.475 273.600 C 158.916 273.600,160.162 272.644,161.245 271.476 C 164.339 268.137,185.242 268.117,188.331 271.450 C 189.427 272.632,190.816 273.600,191.418 273.600 C 192.019 273.600,193.294 274.500,194.250 275.600 C 195.207 276.700,196.515 277.600,197.158 277.600 C 197.801 277.600,199.227 278.500,200.327 279.600 C 201.449 280.721,203.253 281.600,204.435 281.600 C 205.656 281.600,207.157 282.357,208.001 283.400 C 209.428 285.162,209.811 285.200,226.000 285.200 C 242.189 285.200,242.572 285.162,243.999 283.400 C 244.843 282.357,246.344 281.600,247.565 281.600 C 248.724 281.600,250.526 280.747,251.569 279.704 C 252.612 278.661,254.372 277.580,255.479 277.302 C 256.587 277.024,257.722 276.077,258.001 275.198 C 258.285 274.303,259.211 273.600,260.107 273.600 C 262.308 273.600,264.800 272.161,264.800 270.890 C 264.800 268.074,288.415 268.632,291.651 271.525 C 292.682 272.446,294.637 274.190,295.995 275.400 C 297.354 276.610,299.351 277.600,300.433 277.600 C 301.627 277.600,302.400 278.060,302.400 278.772 C 302.400 280.096,304.791 281.600,306.896 281.600 C 307.666 281.600,309.158 282.410,310.212 283.400 C 312.591 285.637,334.205 286.708,335.888 284.673 C 340.268 279.379,340.891 278.233,341.010 275.263 C 341.089 273.280,340.645 271.510,339.847 270.627 C 332.949 262.999,333.844 263.488,325.622 262.845 C 319.501 262.366,317.842 261.959,316.978 260.726 C 316.390 259.887,315.439 259.200,314.865 259.200 C 314.290 259.200,312.461 258.120,310.800 256.800 C 309.139 255.480,307.302 254.400,306.718 254.400 C 306.134 254.400,305.287 253.709,304.835 252.865 C 304.383 252.021,302.894 251.084,301.525 250.784 C 300.157 250.483,298.383 249.583,297.584 248.784 C 296.682 247.882,294.363 247.140,291.466 246.827 C 288.900 246.550,284.838 245.744,282.439 245.036 C 278.788 243.959,277.421 243.906,274.039 244.709 C 271.818 245.237,267.660 246.029,264.800 246.470 C 261.940 246.910,258.646 247.959,257.480 248.800 C 256.314 249.641,254.415 250.567,253.259 250.857 C 252.103 251.147,250.795 252.063,250.351 252.892 C 249.907 253.721,248.833 254.400,247.965 254.400 C 247.096 254.400,245.255 255.480,243.874 256.800 C 242.493 258.120,241.022 259.200,240.605 259.200 C 240.188 259.200,238.712 260.008,237.324 260.997 C 233.564 263.674,217.030 263.647,214.168 260.958 C 213.139 259.991,211.923 259.200,211.467 259.200 C 211.011 259.200,209.507 258.120,208.126 256.800 C 206.745 255.480,205.084 254.400,204.435 254.400 C 203.787 254.400,202.896 253.728,202.457 252.906 C 202.017 252.084,200.557 251.191,199.213 250.923 C 197.869 250.654,196.010 249.726,195.082 248.862 C 194.014 247.867,191.742 247.114,188.897 246.813 C 186.424 246.551,182.516 245.738,180.214 245.007 C 176.627 243.868,175.425 243.821,171.814 244.676 C 169.496 245.224,165.353 246.002,162.607 246.405 C 157.358 247.174,154.400 248.336,154.400 249.628 C 154.400 250.053,153.484 250.400,152.364 250.400 C 151.244 250.400,149.455 251.272,148.389 252.338 C 147.323 253.404,145.630 254.533,144.626 254.847 C 143.622 255.162,141.782 256.270,140.539 257.309 C 139.295 258.349,137.785 259.200,137.184 259.200 C 136.583 259.200,135.544 259.980,134.876 260.934 C 133.025 263.577,114.714 263.702,111.865 261.092 C 110.839 260.153,109.178 259.135,108.174 258.830 C 107.170 258.525,105.370 257.379,104.174 256.282 C 99.224 251.743,97.070 250.400,94.741 250.400 C 93.990 250.400,92.967 249.840,92.467 249.156 C 91.441 247.754,86.619 246.448,82.360 246.419 C 80.798 246.409,79.178 246.088,78.760 245.706 C 77.768 244.800,73.533 244.087,72.000 244.567 M90.211 250.250 C 95.135 252.358,102.604 256.748,104.000 258.355 C 107.315 262.169,115.203 264.753,123.600 264.776 C 132.550 264.800,133.434 264.432,149.600 253.947 C 157.753 248.660,161.942 247.607,174.800 247.617 C 190.015 247.628,195.143 249.428,208.400 259.413 C 218.209 266.802,232.845 266.811,243.732 259.435 C 259.840 248.522,262.529 247.595,278.000 247.618 C 291.254 247.637,296.140 249.001,304.800 255.095 C 316.692 263.464,319.456 264.706,326.400 264.798 C 331.172 264.861,335.691 267.458,337.624 271.248 L 339.343 274.616 337.071 279.052 C 335.356 282.402,334.213 283.659,332.400 284.189 C 329.185 285.129,316.879 284.232,314.833 282.909 C 313.935 282.328,312.122 281.587,310.805 281.262 C 308.193 280.618,304.244 278.283,296.727 272.940 C 283.954 263.860,271.761 264.095,257.269 273.702 C 235.366 288.222,213.120 288.465,195.724 274.373 C 195.216 273.961,193.601 272.662,192.136 271.487 C 184.294 265.196,168.122 264.962,158.800 271.003 C 157.040 272.144,154.250 273.915,152.600 274.939 C 150.950 275.962,148.250 277.664,146.600 278.720 C 144.950 279.776,142.700 280.885,141.600 281.184 C 140.500 281.483,138.340 282.326,136.800 283.058 C 132.300 285.197,113.628 284.945,108.800 282.680 C 106.820 281.751,104.353 280.732,103.318 280.415 C 101.199 279.768,97.824 277.647,90.800 272.548 C 86.059 269.107,82.638 267.905,71.016 265.601 C 61.747 263.764,59.257 252.392,67.200 248.177 C 70.909 246.209,83.400 247.334,90.211 250.250 M71.600 299.778 C 70.720 299.991,69.460 300.598,68.800 301.128 C 68.140 301.657,66.620 302.508,65.422 303.018 C 64.207 303.536,63.026 304.816,62.750 305.915 C 62.478 306.998,61.748 308.079,61.128 308.317 C 59.639 308.888,59.635 314.701,61.122 315.935 C 61.738 316.447,62.464 317.745,62.734 318.821 C 63.043 320.054,64.001 320.971,65.328 321.304 C 66.485 321.594,68.044 322.444,68.792 323.192 C 69.779 324.179,72.214 324.703,77.676 325.105 C 84.412 325.600,85.354 325.865,86.667 327.629 C 87.473 328.713,88.823 329.600,89.667 329.600 C 90.510 329.600,91.200 330.148,91.200 330.817 C 91.200 331.487,92.190 332.463,93.400 332.986 C 94.610 333.509,96.618 334.762,97.861 335.769 C 99.105 336.776,100.882 337.600,101.810 337.600 C 102.738 337.600,104.359 338.410,105.412 339.400 C 107.267 341.143,107.836 341.200,123.334 341.200 C 138.967 341.200,139.374 341.158,140.798 339.400 C 141.643 338.357,143.144 337.600,144.366 337.600 C 145.589 337.600,147.256 336.759,148.330 335.600 C 149.349 334.500,150.723 333.600,151.382 333.600 C 152.614 333.600,157.263 330.381,160.800 327.078 C 162.713 325.292,163.329 325.210,174.927 325.205 L 187.055 325.200 188.785 327.400 C 189.824 328.720,191.292 329.600,192.458 329.600 C 193.663 329.600,194.400 330.062,194.400 330.817 C 194.400 331.487,195.390 332.466,196.600 332.994 C 197.810 333.521,199.593 334.773,200.562 335.776 C 201.551 336.800,203.283 337.600,204.510 337.600 C 205.713 337.600,207.559 338.410,208.613 339.400 C 210.464 341.139,211.057 341.200,226.000 341.200 C 240.943 341.200,241.536 341.139,243.387 339.400 C 244.441 338.410,245.893 337.600,246.614 337.600 C 248.429 337.600,252.000 335.896,252.000 335.030 C 252.000 334.638,253.088 333.938,254.417 333.474 C 255.746 333.011,257.199 331.950,257.645 331.116 C 258.091 330.282,259.180 329.600,260.065 329.600 C 260.949 329.600,262.543 328.730,263.606 327.667 C 266.885 324.387,291.200 323.704,291.200 326.892 C 291.200 327.520,292.173 328.477,293.362 329.017 C 294.551 329.558,296.335 330.810,297.326 331.800 C 298.317 332.790,299.667 333.600,300.327 333.600 C 300.987 333.600,302.427 334.500,303.527 335.600 C 304.649 336.721,306.453 337.600,307.635 337.600 C 308.857 337.600,310.356 338.357,311.199 339.400 C 312.557 341.079,313.381 341.218,323.467 341.461 C 335.339 341.747,333.984 342.182,338.878 336.522 C 345.602 328.746,337.393 318.549,324.324 318.445 C 319.725 318.409,318.377 318.100,317.218 316.820 C 316.432 315.952,315.105 315.024,314.269 314.758 C 313.433 314.493,311.807 313.404,310.657 312.338 C 309.507 311.272,308.095 310.400,307.520 310.400 C 306.944 310.400,305.573 309.500,304.473 308.400 C 303.373 307.300,301.704 306.400,300.765 306.400 C 299.825 306.400,298.459 305.663,297.728 304.762 C 296.767 303.577,295.073 302.989,291.600 302.638 C 288.960 302.370,285.946 301.597,284.902 300.919 C 282.267 299.209,272.976 299.181,270.366 300.876 C 269.284 301.577,266.286 302.366,263.702 302.628 C 260.628 302.940,258.417 303.653,257.302 304.693 C 256.366 305.567,254.636 306.520,253.459 306.813 C 252.281 307.105,250.695 308.032,249.935 308.872 C 249.174 309.712,248.051 310.400,247.440 310.400 C 246.828 310.400,245.461 311.266,244.402 312.325 C 243.343 313.384,241.174 314.680,239.582 315.206 C 237.990 315.731,236.495 316.665,236.258 317.281 C 235.492 319.277,216.660 318.856,214.800 316.800 C 214.004 315.920,212.886 315.200,212.317 315.200 C 211.748 315.200,210.311 314.300,209.124 313.200 C 207.937 312.100,206.687 311.200,206.345 311.200 C 206.003 311.200,204.705 310.349,203.461 309.309 C 202.218 308.270,200.307 307.139,199.215 306.797 C 198.124 306.455,196.300 305.486,195.161 304.645 C 193.944 303.745,191.137 302.924,188.346 302.652 C 185.736 302.397,182.943 301.616,182.141 300.917 C 180.091 299.130,169.509 299.130,167.459 300.917 C 166.657 301.616,163.840 302.399,161.200 302.656 C 157.711 302.996,156.037 303.571,155.072 304.762 C 154.341 305.663,153.188 306.400,152.509 306.400 C 150.809 306.400,147.200 308.111,147.200 308.918 C 147.200 309.281,145.864 310.137,144.232 310.819 C 142.600 311.501,140.606 312.765,139.801 313.629 C 138.996 314.493,137.644 315.200,136.797 315.200 C 135.950 315.200,134.871 315.920,134.400 316.800 C 133.106 319.217,113.717 319.252,112.210 316.840 C 111.674 315.981,109.968 315.041,108.418 314.751 C 106.772 314.442,105.600 313.751,105.600 313.091 C 105.600 312.469,104.714 311.624,103.632 311.212 C 102.550 310.801,100.918 309.718,100.007 308.807 C 99.096 307.896,97.250 306.930,95.906 306.661 C 94.562 306.392,93.278 305.691,93.052 305.102 C 92.560 303.820,87.864 302.411,84.063 302.404 C 82.558 302.402,80.758 301.906,80.063 301.301 C 78.617 300.043,73.963 299.205,71.600 299.778 M81.733 303.574 C 89.099 304.983,94.724 307.622,104.637 314.318 C 119.483 324.347,128.930 323.368,149.600 309.659 C 165.709 298.974,186.616 300.382,205.944 313.451 C 219.584 322.675,231.611 323.316,243.059 315.429 C 267.785 298.395,285.476 298.103,309.998 314.325 C 317.975 319.602,318.451 319.798,324.580 320.333 C 337.784 321.484,342.796 330.077,334.880 337.992 C 329.147 343.726,309.726 339.059,297.032 328.898 C 291.699 324.629,283.679 321.640,277.495 321.617 C 273.396 321.602,262.796 324.703,261.606 326.266 C 261.129 326.893,253.624 331.852,249.600 334.199 C 232.644 344.088,212.672 342.167,194.174 328.867 C 181.532 319.778,169.158 319.445,156.949 327.868 C 154.611 329.480,151.731 331.351,150.549 332.024 C 149.367 332.697,147.500 333.842,146.400 334.568 C 138.184 339.995,117.016 342.175,109.200 338.400 C 107.440 337.550,105.420 336.842,104.712 336.827 C 104.003 336.812,102.097 335.900,100.476 334.800 C 98.855 333.700,97.381 332.800,97.201 332.800 C 97.021 332.800,94.534 331.052,91.676 328.915 C 88.817 326.778,84.832 324.569,82.819 324.005 C 80.806 323.442,78.967 322.670,78.732 322.290 C 78.498 321.911,76.437 321.599,74.153 321.599 C 65.476 321.596,60.772 316.155,63.169 308.894 C 65.125 302.968,70.507 301.426,81.733 303.574 " stroke="none" fill="#c1c1c1" fill-rule="evenodd"></path><path id="path4" d="M0.000 200.000 L 0.000 400.000 200.000 400.000 L 400.000 400.000 400.000 200.000 L 400.000 0.000 200.000 0.000 L 0.000 0.000 0.000 200.000 M205.483 74.435 C 207.343 75.334,209.174 76.878,209.550 77.867 C 209.926 78.857,210.811 80.145,211.517 80.731 C 213.578 82.442,213.420 114.176,211.336 116.892 C 210.531 117.941,209.642 119.430,209.361 120.200 C 209.080 120.970,208.132 121.600,207.253 121.600 C 206.375 121.600,205.271 122.320,204.800 123.200 C 203.622 125.402,197.371 125.482,195.845 123.315 C 195.270 122.498,193.991 121.574,193.002 121.261 C 191.925 120.921,191.023 119.832,190.754 118.547 C 190.506 117.366,189.982 115.803,189.590 115.072 C 189.198 114.342,188.848 107.142,188.813 99.072 C 188.737 81.506,189.890 76.330,194.208 74.849 C 195.571 74.382,196.951 73.730,197.276 73.400 C 198.350 72.309,202.049 72.776,205.483 74.435 M125.330 122.200 C 143.566 140.236,144.367 142.259,136.584 150.600 C 132.721 154.739,122.400 154.864,122.400 150.772 C 122.400 150.127,121.671 149.600,120.780 149.600 C 119.789 149.600,118.866 148.824,118.400 147.600 C 117.982 146.500,117.082 145.600,116.400 145.600 C 115.718 145.600,114.837 144.749,114.442 143.709 C 114.046 142.670,112.975 141.623,112.061 141.384 C 111.070 141.125,110.400 140.297,110.400 139.331 C 110.400 138.260,109.790 137.625,108.600 137.456 C 107.461 137.294,106.709 136.557,106.551 135.449 C 106.396 134.358,105.642 133.604,104.551 133.449 C 103.443 133.291,102.706 132.539,102.544 131.400 C 102.404 130.410,101.786 129.600,101.173 129.600 C 99.289 129.600,98.202 126.399,98.571 121.943 C 99.111 115.433,103.442 111.264,109.704 111.227 L 114.208 111.200 125.330 122.200 M298.399 114.306 C 301.522 117.337,301.600 117.546,301.600 122.916 L 301.600 128.418 291.701 138.617 C 278.023 152.707,276.814 153.600,271.411 153.600 C 267.021 153.600,262.400 150.571,262.400 147.693 C 262.400 147.178,261.680 146.139,260.800 145.386 C 259.920 144.632,259.200 143.341,259.200 142.516 C 259.200 141.691,259.920 140.100,260.800 138.982 C 261.680 137.863,262.400 136.601,262.400 136.177 C 262.400 135.297,281.607 115.674,285.108 112.978 C 289.064 109.930,294.444 110.468,298.399 114.306 M221.448 140.561 C 222.670 141.464,225.222 142.466,227.119 142.786 C 229.017 143.107,231.199 143.999,231.969 144.769 C 232.739 145.539,234.380 146.422,235.616 146.733 C 237.900 147.306,241.119 149.445,244.261 152.478 C 245.218 153.401,246.810 154.584,247.800 155.106 C 248.790 155.629,249.600 156.542,249.600 157.135 C 249.600 157.728,250.347 158.409,251.259 158.647 C 252.172 158.886,253.105 159.795,253.333 160.667 C 253.561 161.539,254.430 162.431,255.264 162.649 C 256.098 162.867,257.136 163.980,257.571 165.123 C 258.005 166.265,258.722 167.200,259.164 167.200 C 259.606 167.200,260.668 168.574,261.525 170.254 C 262.382 171.933,263.649 173.777,264.342 174.351 C 265.034 174.926,265.600 176.139,265.600 177.046 C 265.600 177.954,266.362 179.508,267.294 180.500 C 268.226 181.492,269.307 184.008,269.696 186.091 C 270.085 188.174,270.975 190.509,271.672 191.280 C 272.389 192.071,273.131 194.778,273.377 197.494 L 273.814 202.307 308.053 202.554 L 342.293 202.800 345.946 206.614 C 350.560 211.430,351.249 221.600,346.962 221.600 C 346.421 221.600,345.624 222.410,345.190 223.400 L 344.400 225.200 200.909 225.402 L 57.417 225.604 54.242 222.333 C 48.793 216.718,50.436 207.495,57.600 203.489 C 58.260 203.120,74.820 202.634,94.400 202.409 L 130.000 202.000 130.540 194.916 C 130.965 189.333,131.431 187.457,132.740 186.064 C 133.653 185.092,134.400 183.538,134.400 182.610 C 134.400 181.682,135.300 179.853,136.400 178.546 C 137.500 177.239,138.400 175.575,138.400 174.848 C 138.400 174.122,139.272 172.655,140.338 171.589 C 141.404 170.523,142.499 168.949,142.771 168.091 C 143.635 165.370,157.842 151.739,160.789 150.803 C 161.703 150.513,163.323 149.404,164.389 148.338 C 165.455 147.272,167.157 146.400,168.171 146.400 C 169.185 146.400,170.450 145.704,170.981 144.853 C 171.605 143.853,173.302 143.103,175.774 142.732 C 177.878 142.417,180.005 141.604,180.501 140.927 C 182.726 137.884,217.408 137.574,221.448 140.561 M187.931 163.303 C 186.793 164.191,184.349 165.120,182.499 165.368 C 180.650 165.616,178.701 166.438,178.169 167.195 C 177.636 167.951,176.314 168.851,175.230 169.193 C 174.147 169.535,172.591 170.667,171.772 171.708 C 170.954 172.748,169.860 173.629,169.342 173.665 C 168.824 173.701,166.780 175.693,164.800 178.091 C 162.820 180.490,160.390 183.292,159.400 184.318 C 158.410 185.344,157.600 186.925,157.600 187.830 C 157.600 188.736,156.700 190.547,155.600 191.854 C 154.500 193.161,153.600 195.146,153.600 196.263 C 153.600 197.381,153.249 199.219,152.820 200.348 L 152.040 202.400 201.220 202.400 L 250.400 202.400 250.400 199.724 C 250.400 198.057,249.792 196.498,248.788 195.589 C 247.901 194.787,246.955 192.751,246.686 191.065 C 246.416 189.379,245.876 188.000,245.485 188.000 C 245.094 188.000,244.150 186.660,243.387 185.023 C 242.624 183.386,240.470 180.527,238.600 178.670 C 236.730 176.812,235.200 174.912,235.200 174.446 C 235.200 173.981,234.686 173.600,234.058 173.600 C 233.430 173.600,232.256 172.761,231.449 171.735 C 230.642 170.709,228.984 169.619,227.764 169.313 C 226.545 169.007,224.939 168.046,224.196 167.178 C 223.452 166.310,222.078 165.600,221.142 165.600 C 218.498 165.600,214.576 164.011,214.089 162.744 C 213.312 160.719,190.621 161.204,187.931 163.303 M78.760 245.706 C 79.178 246.088,80.798 246.409,82.360 246.419 C 86.619 246.448,91.441 247.754,92.467 249.156 C 92.967 249.840,93.990 250.400,94.741 250.400 C 97.070 250.400,99.224 251.743,104.174 256.282 C 105.370 257.379,107.170 258.525,108.174 258.830 C 109.178 259.135,110.839 260.153,111.865 261.092 C 114.714 263.702,133.025 263.577,134.876 260.934 C 135.544 259.980,136.583 259.200,137.184 259.200 C 137.785 259.200,139.295 258.349,140.539 257.309 C 141.782 256.270,143.622 255.162,144.626 254.847 C 145.630 254.533,147.323 253.404,148.389 252.338 C 149.455 251.272,151.244 250.400,152.364 250.400 C 153.484 250.400,154.400 250.053,154.400 249.628 C 154.400 248.336,157.358 247.174,162.607 246.405 C 165.353 246.002,169.496 245.224,171.814 244.676 C 175.425 243.821,176.627 243.868,180.214 245.007 C 182.516 245.738,186.424 246.551,188.897 246.813 C 191.742 247.114,194.014 247.867,195.082 248.862 C 196.010 249.726,197.869 250.654,199.213 250.923 C 200.557 251.191,202.017 252.084,202.457 252.906 C 202.896 253.728,203.787 254.400,204.435 254.400 C 205.084 254.400,206.745 255.480,208.126 256.800 C 209.507 258.120,211.011 259.200,211.467 259.200 C 211.923 259.200,213.139 259.991,214.168 260.958 C 217.030 263.647,233.564 263.674,237.324 260.997 C 238.712 260.008,240.188 259.200,240.605 259.200 C 241.022 259.200,242.493 258.120,243.874 256.800 C 245.255 255.480,247.096 254.400,247.965 254.400 C 248.833 254.400,249.907 253.721,250.351 252.892 C 250.795 252.063,252.103 251.147,253.259 250.857 C 254.415 250.567,256.314 249.641,257.480 248.800 C 258.646 247.959,261.940 246.910,264.800 246.470 C 267.660 246.029,271.818 245.237,274.039 244.709 C 277.421 243.906,278.788 243.959,282.439 245.036 C 284.838 245.744,288.900 246.550,291.466 246.827 C 294.363 247.140,296.682 247.882,297.584 248.784 C 298.383 249.583,300.157 250.483,301.525 250.784 C 302.894 251.084,304.383 252.021,304.835 252.865 C 305.287 253.709,306.134 254.400,306.718 254.400 C 307.302 254.400,309.139 255.480,310.800 256.800 C 312.461 258.120,314.290 259.200,314.865 259.200 C 315.439 259.200,316.390 259.887,316.978 260.726 C 317.842 261.959,319.501 262.366,325.622 262.845 C 333.844 263.488,332.949 262.999,339.847 270.627 C 340.645 271.510,341.089 273.280,341.010 275.263 C 340.891 278.233,340.268 279.379,335.888 284.673 C 334.205 286.708,312.591 285.637,310.212 283.400 C 309.158 282.410,307.666 281.600,306.896 281.600 C 304.791 281.600,302.400 280.096,302.400 278.772 C 302.400 278.060,301.627 277.600,300.433 277.600 C 299.351 277.600,297.354 276.610,295.995 275.400 C 294.637 274.190,292.682 272.446,291.651 271.525 C 288.415 268.632,264.800 268.074,264.800 270.890 C 264.800 272.161,262.308 273.600,260.107 273.600 C 259.211 273.600,258.285 274.303,258.001 275.198 C 257.722 276.077,256.587 277.024,255.479 277.302 C 254.372 277.580,252.612 278.661,251.569 279.704 C 250.526 280.747,248.724 281.600,247.565 281.600 C 246.344 281.600,244.843 282.357,243.999 283.400 C 242.572 285.162,242.189 285.200,226.000 285.200 C 209.811 285.200,209.428 285.162,208.001 283.400 C 207.157 282.357,205.656 281.600,204.435 281.600 C 203.253 281.600,201.449 280.721,200.327 279.600 C 199.227 278.500,197.801 277.600,197.158 277.600 C 196.515 277.600,195.207 276.700,194.250 275.600 C 193.294 274.500,192.019 273.600,191.418 273.600 C 190.816 273.600,189.427 272.632,188.331 271.450 C 185.242 268.117,164.339 268.137,161.245 271.476 C 160.162 272.644,158.916 273.600,158.475 273.600 C 158.034 273.600,156.773 274.500,155.673 275.600 C 154.573 276.700,152.781 277.600,151.690 277.600 C 150.422 277.600,149.528 278.166,149.209 279.172 C 148.885 280.193,147.685 280.937,145.785 281.293 C 144.177 281.595,142.249 282.597,141.501 283.521 C 139.312 286.224,107.002 286.118,104.801 283.400 C 103.999 282.410,102.753 281.600,102.032 281.600 C 100.406 281.600,96.000 279.376,96.000 278.555 C 96.000 278.223,94.920 277.543,93.600 277.045 C 92.280 276.547,91.200 275.568,91.200 274.869 C 91.200 274.150,90.533 273.600,89.661 273.600 C 88.815 273.600,87.105 272.745,85.861 271.699 C 83.995 270.131,82.305 269.697,76.182 269.213 C 70.091 268.732,68.619 268.357,67.954 267.114 C 67.508 266.281,66.429 265.600,65.555 265.600 C 64.589 265.600,63.587 264.737,63.000 263.400 C 62.468 262.190,61.576 260.912,61.017 260.560 C 60.445 260.201,60.000 258.379,60.000 256.400 C 60.000 254.421,60.445 252.599,61.017 252.240 C 61.576 251.888,62.468 250.610,63.000 249.400 C 63.531 248.190,64.369 247.200,64.862 247.200 C 65.355 247.200,66.893 246.692,68.279 246.072 C 69.666 245.451,71.340 244.774,72.000 244.567 C 73.533 244.087,77.768 244.800,78.760 245.706 M80.063 301.301 C 80.758 301.906,82.558 302.402,84.063 302.404 C 87.864 302.411,92.560 303.820,93.052 305.102 C 93.278 305.691,94.562 306.392,95.906 306.661 C 97.250 306.930,99.096 307.896,100.007 308.807 C 100.918 309.718,102.550 310.801,103.632 311.212 C 104.714 311.624,105.600 312.469,105.600 313.091 C 105.600 313.751,106.772 314.442,108.418 314.751 C 109.968 315.041,111.674 315.981,112.210 316.840 C 113.717 319.252,133.106 319.217,134.400 316.800 C 134.871 315.920,135.950 315.200,136.797 315.200 C 137.644 315.200,138.996 314.493,139.801 313.629 C 140.606 312.765,142.600 311.501,144.232 310.819 C 145.864 310.137,147.200 309.281,147.200 308.918 C 147.200 308.111,150.809 306.400,152.509 306.400 C 153.188 306.400,154.341 305.663,155.072 304.762 C 156.037 303.571,157.711 302.996,161.200 302.656 C 163.840 302.399,166.657 301.616,167.459 300.917 C 169.509 299.130,180.091 299.130,182.141 300.917 C 182.943 301.616,185.736 302.397,188.346 302.652 C 191.137 302.924,193.944 303.745,195.161 304.645 C 196.300 305.486,198.124 306.455,199.215 306.797 C 200.307 307.139,202.218 308.270,203.461 309.309 C 204.705 310.349,206.003 311.200,206.345 311.200 C 206.687 311.200,207.937 312.100,209.124 313.200 C 210.311 314.300,211.748 315.200,212.317 315.200 C 212.886 315.200,214.004 315.920,214.800 316.800 C 216.660 318.856,235.492 319.277,236.258 317.281 C 236.495 316.665,237.990 315.731,239.582 315.206 C 241.174 314.680,243.343 313.384,244.402 312.325 C 245.461 311.266,246.828 310.400,247.440 310.400 C 248.051 310.400,249.174 309.712,249.935 308.872 C 250.695 308.032,252.281 307.105,253.459 306.813 C 254.636 306.520,256.366 305.567,257.302 304.693 C 258.417 303.653,260.628 302.940,263.702 302.628 C 266.286 302.366,269.284 301.577,270.366 300.876 C 272.976 299.181,282.267 299.209,284.902 300.919 C 285.946 301.597,288.960 302.370,291.600 302.638 C 295.073 302.989,296.767 303.577,297.728 304.762 C 298.459 305.663,299.825 306.400,300.765 306.400 C 301.704 306.400,303.373 307.300,304.473 308.400 C 305.573 309.500,306.944 310.400,307.520 310.400 C 308.095 310.400,309.507 311.272,310.657 312.338 C 311.807 313.404,313.433 314.493,314.269 314.758 C 315.105 315.024,316.432 315.952,317.218 316.820 C 318.377 318.100,319.725 318.409,324.324 318.445 C 335.098 318.531,342.952 325.295,340.838 332.668 C 340.186 334.940,339.719 335.626,335.939 339.861 C 333.459 342.640,313.519 342.269,311.199 339.400 C 310.356 338.357,308.857 337.600,307.635 337.600 C 306.453 337.600,304.649 336.721,303.527 335.600 C 302.427 334.500,300.987 333.600,300.327 333.600 C 299.667 333.600,298.317 332.790,297.326 331.800 C 296.335 330.810,294.551 329.558,293.362 329.017 C 292.173 328.477,291.200 327.520,291.200 326.892 C 291.200 323.704,266.885 324.387,263.606 327.667 C 262.543 328.730,260.949 329.600,260.065 329.600 C 259.180 329.600,258.091 330.282,257.645 331.116 C 257.199 331.950,255.746 333.011,254.417 333.474 C 253.088 333.938,252.000 334.638,252.000 335.030 C 252.000 335.896,248.429 337.600,246.614 337.600 C 245.893 337.600,244.441 338.410,243.387 339.400 C 241.536 341.139,240.943 341.200,226.000 341.200 C 211.057 341.200,210.464 341.139,208.613 339.400 C 207.559 338.410,205.713 337.600,204.510 337.600 C 203.283 337.600,201.551 336.800,200.562 335.776 C 199.593 334.773,197.810 333.521,196.600 332.994 C 195.390 332.466,194.400 331.487,194.400 330.817 C 194.400 330.062,193.663 329.600,192.458 329.600 C 191.292 329.600,189.824 328.720,188.785 327.400 L 187.055 325.200 174.927 325.205 C 163.329 325.210,162.713 325.292,160.800 327.078 C 157.263 330.381,152.614 333.600,151.382 333.600 C 150.723 333.600,149.349 334.500,148.330 335.600 C 147.256 336.759,145.589 337.600,144.366 337.600 C 143.144 337.600,141.643 338.357,140.798 339.400 C 138.528 342.203,108.394 342.203,105.412 339.400 C 104.359 338.410,102.738 337.600,101.810 337.600 C 100.882 337.600,99.105 336.776,97.861 335.769 C 96.618 334.762,94.610 333.509,93.400 332.986 C 92.190 332.463,91.200 331.487,91.200 330.817 C 91.200 330.148,90.510 329.600,89.667 329.600 C 88.823 329.600,87.473 328.713,86.667 327.629 C 85.354 325.865,84.412 325.600,77.676 325.105 C 72.214 324.703,69.779 324.179,68.792 323.192 C 68.044 322.444,66.485 321.594,65.328 321.304 C 64.001 320.971,63.043 320.054,62.734 318.821 C 62.464 317.745,61.738 316.447,61.122 315.935 C 59.635 314.701,59.639 308.888,61.128 308.317 C 61.748 308.079,62.478 306.998,62.750 305.915 C 63.026 304.816,64.207 303.536,65.422 303.018 C 66.620 302.508,68.140 301.657,68.800 301.128 C 71.378 299.060,77.596 299.156,80.063 301.301 " stroke="none" fill="#ffffff" fill-rule="evenodd"></path></g></svg>