<?xml version="1.0" standalone="no"?>
<!DOCTYPE svg PUBLIC "-//W3C//DTD SVG 20010904//EN"
 "http://www.w3.org/TR/2001/REC-SVG-20010904/DTD/svg10.dtd">
<svg version="1.0" xmlns="http://www.w3.org/2000/svg"
 width="100.000000pt" height="100.000000pt" viewBox="0 0 100.000000 100.000000"
 preserveAspectRatio="xMidYMid meet">

<g transform="translate(0.000000,100.000000) scale(0.100000,-0.100000)"
fill="#000000" stroke="none">
<path d="M483 925 c-7 -8 -13 -21 -13 -29 0 -26 25 -7 26 19 1 14 1 25 0 25 0
-1 -7 -7 -13 -15z"/>
<path d="M425 870 c-16 -17 -46 -35 -67 -41 -86 -23 -24 -47 122 -47 108 0
170 10 170 28 0 10 -26 20 -50 20 -11 0 -36 14 -57 32 -30 25 -33 27 -14 6
l23 -27 -71 1 -72 1 27 28 c15 16 25 29 23 29 -3 0 -18 -14 -34 -30z m130 -50
l40 -2 -45 -8 c-43 -6 -56 -6 -140 0 -34 3 -33 3 10 9 44 6 56 6 135 1z"/>
<path d="M476 753 c-3 -3 -6 -21 -6 -40 0 -31 -2 -32 -20 -21 -40 25 -42 10
-41 -279 l1 -153 25 0 c25 0 25 0 25 96 0 61 4 93 10 89 6 -3 10 -52 10 -113
l0 -106 -40 -41 -40 -41 39 -38 40 -39 40 32 c23 18 41 39 41 46 0 7 -16 25
-35 39 l-35 27 1 112 c1 62 5 139 9 172 6 51 7 43 9 -62 1 -116 2 -123 21
-123 19 0 20 7 20 119 0 73 4 122 10 126 7 5 8 11 1 19 -5 6 -11 36 -13 66 -2
41 -7 55 -18 55 -11 0 -17 -15 -21 -55 -5 -51 -6 -49 -7 27 -2 76 -10 102 -26
86z m-9 -145 c-2 -13 -4 -3 -4 22 0 25 2 35 4 23 2 -13 2 -33 0 -45z m0 -120
c-2 -13 -4 -5 -4 17 -1 22 1 32 4 23 2 -10 2 -28 0 -40z"/>
<path d="M587 744 c-4 -4 -7 -81 -7 -171 0 -157 1 -163 20 -163 20 0 20 5 18
167 -3 156 -9 189 -31 167z"/>
<path d="M354 727 c-2 -7 -3 -71 -2 -142 2 -92 7 -130 16 -133 9 -3 12 30 12
142 0 94 -4 146 -10 146 -6 0 -13 -6 -16 -13z"/>
</g>
</svg>
