<svg id="svg" version="1.1" width="500" height="500" xmlns="http://www.w3.org/2000/svg" xmlns:xlink="http://www.w3.org/1999/xlink" style="display: block;"><g id="svgg"><path id="path0" d="M255.800 41.335 C 254.310 41.587,253.600 42.193,253.600 43.213 C 253.600 44.042,253.113 45.008,252.517 45.360 C 249.093 47.383,248.603 54.338,251.600 58.400 C 252.700 59.891,253.600 61.501,253.600 61.978 C 253.600 62.454,254.330 63.469,255.222 64.233 C 256.114 64.997,257.062 66.710,257.328 68.040 C 257.594 69.369,258.468 70.808,259.271 71.238 C 260.085 71.674,260.963 73.343,261.255 75.010 C 261.543 76.654,262.219 78.360,262.758 78.800 C 264.333 80.085,265.600 82.930,265.600 85.180 C 265.600 86.327,266.354 88.284,267.275 89.531 C 268.256 90.857,269.189 93.746,269.525 96.498 C 269.842 99.084,270.734 102.403,271.508 103.872 C 275.159 110.803,274.974 155.802,271.265 163.072 C 270.349 164.868,269.600 167.622,269.600 169.194 C 269.600 172.359,267.695 177.600,266.545 177.600 C 266.140 177.600,265.621 179.257,265.393 181.283 C 265.165 183.309,264.218 185.994,263.289 187.251 C 262.360 188.507,261.600 190.040,261.600 190.656 C 261.600 191.272,260.700 193.103,259.600 194.724 C 258.500 196.345,257.600 198.015,257.600 198.436 C 257.600 198.856,256.955 199.845,256.166 200.634 C 255.377 201.423,254.229 203.313,253.614 204.834 C 253.000 206.355,251.661 208.500,250.640 209.600 C 246.899 213.627,245.950 214.846,244.798 217.100 C 244.152 218.365,240.378 222.635,236.411 226.589 C 226.111 236.857,225.290 237.600,224.237 237.600 C 223.716 237.600,222.804 238.295,222.210 239.144 C 221.615 239.992,220.155 240.932,218.964 241.230 C 217.774 241.529,216.800 242.293,216.800 242.928 C 216.800 243.562,215.601 244.582,214.136 245.195 C 212.671 245.807,211.026 246.845,210.481 247.502 C 209.936 248.159,208.472 248.921,207.228 249.194 C 205.984 249.467,204.339 250.383,203.573 251.230 C 202.807 252.076,200.920 253.005,199.381 253.294 C 197.841 253.583,195.930 254.470,195.135 255.265 C 194.340 256.060,192.319 256.963,190.645 257.271 C 188.970 257.580,186.771 258.476,185.759 259.263 C 184.746 260.051,181.866 260.942,179.359 261.243 C 176.851 261.545,174.260 262.246,173.600 262.801 C 171.628 264.460,169.257 264.894,157.763 265.699 C 151.733 266.121,144.148 266.662,140.906 266.900 C 137.173 267.174,134.695 267.015,134.146 266.466 C 133.662 265.982,130.261 265.593,126.440 265.584 C 117.720 265.563,109.806 264.424,108.117 262.945 C 107.393 262.310,104.700 261.539,102.134 261.230 C 99.191 260.876,96.902 260.102,95.934 259.134 C 95.090 258.290,93.734 257.600,92.919 257.600 C 90.564 257.600,86.565 255.984,86.133 254.857 C 85.915 254.290,84.278 253.593,82.494 253.308 C 80.526 252.993,78.934 252.199,78.447 251.288 C 78.005 250.462,76.378 249.549,74.831 249.259 C 73.257 248.963,71.651 248.042,71.182 247.166 C 70.721 246.305,69.799 245.600,69.133 245.600 C 68.467 245.600,66.432 244.880,64.611 244.000 C 60.486 242.007,59.514 242.007,55.389 244.000 C 53.568 244.880,51.520 245.600,50.839 245.600 C 50.088 245.600,49.599 246.310,49.597 247.400 C 49.595 248.390,48.875 250.379,47.997 251.819 C 46.111 254.913,45.965 257.043,47.549 258.357 C 48.180 258.882,48.932 260.382,49.220 261.691 C 49.508 263.000,50.611 265.008,51.671 266.153 C 52.732 267.297,53.600 268.590,53.600 269.025 C 53.600 269.460,54.410 270.616,55.400 271.593 C 56.390 272.569,58.991 275.491,61.180 278.084 C 65.869 283.641,73.383 291.114,78.792 295.600 C 80.914 297.360,83.574 299.790,84.703 301.000 C 85.832 302.210,87.160 303.200,87.654 303.200 C 88.148 303.200,89.204 303.920,90.000 304.800 C 90.796 305.680,91.867 306.400,92.380 306.400 C 92.892 306.400,94.522 307.480,96.000 308.800 C 97.478 310.120,99.288 311.200,100.020 311.200 C 100.753 311.200,101.985 311.900,102.759 312.755 C 103.533 313.610,105.171 314.530,106.400 314.800 C 107.629 315.070,109.243 315.964,109.988 316.787 C 110.733 317.610,112.789 318.528,114.556 318.826 C 116.323 319.125,118.463 320.063,119.310 320.910 C 120.158 321.758,122.705 322.803,124.970 323.232 C 127.235 323.662,129.658 324.529,130.354 325.159 C 131.050 325.788,133.835 326.661,136.543 327.097 C 139.250 327.533,142.524 328.437,143.818 329.106 C 145.112 329.775,150.092 330.717,154.885 331.200 C 159.678 331.683,165.632 332.600,168.115 333.239 C 174.096 334.777,189.573 334.754,196.282 333.198 C 199.132 332.537,205.149 331.618,209.653 331.156 C 214.157 330.694,218.916 329.761,220.228 329.082 C 221.540 328.403,224.763 327.544,227.390 327.173 C 230.016 326.802,232.783 325.939,233.538 325.256 C 234.293 324.572,236.765 323.662,239.030 323.232 C 241.295 322.803,243.880 321.720,244.774 320.826 C 245.669 319.931,247.216 319.200,248.214 319.200 C 249.212 319.200,251.353 318.300,252.972 317.200 C 254.591 316.100,256.447 315.200,257.096 315.200 C 257.746 315.200,259.319 314.323,260.592 313.252 C 261.866 312.181,263.847 311.068,264.996 310.780 C 266.144 310.491,267.255 309.811,267.464 309.267 C 267.672 308.723,270.398 306.735,273.521 304.847 C 276.645 302.960,279.200 301.086,279.200 300.683 C 279.200 300.280,279.830 299.720,280.600 299.438 C 282.420 298.773,287.471 294.137,296.111 285.200 C 299.939 281.240,304.001 277.051,305.136 275.892 C 306.271 274.733,307.200 273.401,307.200 272.932 C 307.200 272.463,307.716 271.791,308.346 271.438 C 309.820 270.613,313.190 265.941,314.729 262.589 C 315.388 261.153,316.462 259.772,317.115 259.522 C 317.768 259.271,318.525 258.054,318.796 256.816 C 319.068 255.579,319.970 253.951,320.800 253.200 C 321.630 252.449,322.530 250.829,322.800 249.600 C 323.070 248.371,323.964 246.757,324.787 246.012 C 325.610 245.267,326.528 243.211,326.826 241.444 C 327.125 239.677,328.046 237.554,328.873 236.727 C 329.701 235.899,330.598 233.687,330.868 231.811 C 331.138 229.935,332.030 227.442,332.851 226.272 C 333.671 225.101,334.702 221.908,335.142 219.175 C 335.582 216.443,336.486 213.377,337.151 212.363 C 337.900 211.219,338.556 207.531,338.877 202.659 C 339.161 198.337,340.068 191.920,340.891 188.400 C 342.881 179.894,342.879 168.204,340.885 160.133 C 340.051 156.760,339.142 150.463,338.864 146.141 C 338.556 141.342,337.899 137.580,337.178 136.479 C 336.528 135.487,335.625 132.544,335.170 129.938 C 334.716 127.332,333.681 123.940,332.870 122.400 C 332.059 120.860,331.140 118.160,330.827 116.400 C 330.515 114.640,329.622 112.604,328.844 111.875 C 328.065 111.147,327.203 109.137,326.926 107.410 C 326.650 105.683,325.699 103.613,324.812 102.811 C 323.925 102.009,323.193 100.778,323.185 100.076 C 323.177 99.374,322.097 97.216,320.785 95.280 C 319.473 93.343,318.400 91.286,318.400 90.708 C 318.400 90.129,317.680 89.271,316.800 88.800 C 315.920 88.329,315.200 87.466,315.200 86.882 C 315.200 86.298,314.120 84.461,312.800 82.800 C 311.480 81.139,310.400 79.500,310.400 79.159 C 310.400 77.815,286.201 52.800,284.901 52.800 C 284.465 52.800,283.904 52.159,283.656 51.376 C 283.407 50.593,282.123 49.544,280.802 49.046 C 279.481 48.547,278.400 47.568,278.400 46.869 C 278.400 46.150,277.733 45.600,276.861 45.600 C 276.015 45.600,274.146 44.610,272.708 43.400 C 270.054 41.166,262.366 40.228,255.800 41.335 M273.055 57.850 C 278.071 61.254,301.600 85.935,301.600 87.793 C 301.600 88.218,302.500 89.537,303.600 90.724 C 304.700 91.911,305.600 93.273,305.600 93.749 C 305.600 94.226,306.500 95.451,307.600 96.470 C 308.700 97.490,309.600 99.154,309.600 100.169 C 309.600 101.185,310.304 102.455,311.165 102.993 C 312.026 103.530,313.120 105.417,313.596 107.185 C 314.072 108.953,314.750 110.400,315.102 110.400 C 316.046 110.400,317.600 114.172,317.600 116.463 C 317.600 117.556,318.115 118.648,318.744 118.889 C 320.101 119.410,321.600 123.358,321.600 126.411 C 321.600 127.606,322.336 129.520,323.236 130.664 C 324.316 132.037,325.104 134.721,325.556 138.572 C 325.933 141.777,326.907 145.840,327.721 147.600 C 329.965 152.454,329.965 196.346,327.721 201.200 C 326.907 202.960,325.925 207.099,325.537 210.399 C 325.086 214.242,324.386 216.724,323.590 217.307 C 322.906 217.807,322.008 220.294,321.595 222.833 C 321.181 225.373,320.158 228.205,319.320 229.126 C 318.483 230.046,317.564 232.114,317.278 233.720 C 316.992 235.325,316.229 237.078,315.583 237.615 C 314.936 238.151,313.982 240.008,313.463 241.742 C 312.943 243.476,311.862 245.246,311.059 245.675 C 310.257 246.105,309.600 247.180,309.600 248.065 C 309.600 248.949,308.747 250.526,307.704 251.569 C 306.661 252.612,305.574 254.396,305.288 255.533 C 305.003 256.670,304.424 257.600,304.001 257.600 C 303.578 257.600,302.535 258.950,301.683 260.600 C 300.831 262.250,298.709 265.069,296.967 266.864 C 295.226 268.659,293.384 270.909,292.873 271.864 C 292.362 272.819,291.458 273.600,290.865 273.600 C 290.272 273.600,289.591 274.347,289.353 275.259 C 289.114 276.172,288.205 277.105,287.333 277.333 C 286.461 277.561,285.561 278.461,285.333 279.333 C 285.105 280.205,284.205 281.105,283.333 281.333 C 282.461 281.561,281.569 282.433,281.350 283.270 C 281.131 284.107,280.342 285.026,279.596 285.312 C 278.302 285.809,276.430 287.371,271.991 291.660 C 270.887 292.727,269.599 293.600,269.131 293.600 C 268.662 293.600,267.433 294.500,266.400 295.600 C 265.367 296.700,263.995 297.600,263.352 297.600 C 262.709 297.600,261.349 298.500,260.330 299.600 C 259.310 300.700,257.795 301.600,256.962 301.600 C 256.129 301.600,254.815 302.300,254.041 303.155 C 253.267 304.010,251.629 304.930,250.400 305.200 C 249.171 305.470,247.565 306.355,246.831 307.166 C 246.096 307.978,244.169 308.886,242.548 309.186 C 240.926 309.485,238.860 310.418,237.955 311.259 C 237.049 312.101,234.533 313.018,232.355 313.299 C 230.167 313.582,227.629 314.509,226.675 315.374 C 225.486 316.452,223.374 317.061,219.875 317.333 C 217.084 317.550,213.000 318.509,210.800 319.464 C 204.661 322.128,159.185 322.145,153.600 319.485 C 151.585 318.526,147.566 317.565,144.471 317.303 C 140.668 316.982,138.420 316.364,137.271 315.323 C 136.352 314.491,133.820 313.581,131.645 313.299 C 129.470 313.018,126.950 312.115,126.045 311.293 C 125.140 310.471,123.099 309.566,121.510 309.283 C 119.920 309.000,118.012 308.097,117.269 307.276 C 116.526 306.455,114.947 305.587,113.759 305.347 C 112.572 305.106,110.821 304.180,109.868 303.287 C 108.916 302.395,107.196 301.429,106.047 301.140 C 104.898 300.852,103.595 299.937,103.151 299.108 C 102.707 298.279,101.701 297.600,100.916 297.600 C 100.131 297.600,98.253 296.552,96.744 295.271 C 95.235 293.990,92.964 292.100,91.699 291.071 C 90.433 290.042,88.579 288.442,87.579 287.516 C 86.578 286.590,85.150 285.598,84.404 285.312 C 83.658 285.026,82.869 284.107,82.650 283.270 C 82.431 282.433,81.539 281.561,80.667 281.333 C 79.795 281.105,78.895 280.205,78.667 279.333 C 78.439 278.461,77.539 277.561,76.667 277.333 C 75.795 277.105,74.886 276.172,74.647 275.259 C 74.409 274.347,73.708 273.600,73.090 273.600 C 72.471 273.600,71.574 272.740,71.095 271.688 C 70.616 270.637,69.363 269.384,68.312 268.905 C 67.260 268.426,66.400 267.487,66.400 266.817 C 66.400 266.148,65.622 264.822,64.671 263.871 L 62.943 262.143 64.760 260.671 C 67.260 258.647,69.917 258.829,72.476 261.200 C 73.663 262.300,75.245 263.200,75.993 263.200 C 76.740 263.200,77.970 263.883,78.725 264.717 C 79.481 265.552,81.646 266.625,83.538 267.101 C 85.429 267.577,87.398 268.475,87.914 269.096 C 88.430 269.718,90.550 270.477,92.626 270.783 C 94.702 271.090,97.480 272.002,98.800 272.810 C 100.120 273.618,103.540 274.514,106.400 274.801 C 109.260 275.089,113.580 276.103,116.000 277.056 C 122.662 279.678,159.051 279.710,165.200 277.099 C 167.400 276.165,171.720 275.157,174.800 274.859 C 177.880 274.561,181.200 273.794,182.177 273.155 C 183.155 272.516,185.855 271.587,188.177 271.091 C 190.500 270.595,193.247 269.526,194.281 268.716 C 195.316 267.905,197.435 267.003,198.991 266.711 C 200.546 266.420,202.470 265.530,203.265 264.735 C 204.060 263.940,205.991 263.049,207.555 262.756 C 209.120 262.462,210.400 261.882,210.400 261.466 C 210.400 261.050,211.972 260.014,213.894 259.164 C 215.816 258.314,217.840 257.074,218.392 256.409 C 218.944 255.744,219.983 255.200,220.701 255.200 C 221.418 255.200,223.025 254.120,224.270 252.800 C 225.516 251.480,226.980 250.400,227.524 250.400 C 228.067 250.400,229.294 249.500,230.250 248.400 C 231.207 247.300,232.354 246.400,232.799 246.400 C 233.245 246.400,235.206 244.780,237.158 242.800 C 239.110 240.820,241.097 239.200,241.573 239.200 C 242.050 239.200,242.782 238.300,243.200 237.200 C 243.618 236.100,244.518 235.200,245.200 235.200 C 245.882 235.200,246.782 234.300,247.200 233.200 C 247.618 232.100,248.509 231.200,249.180 231.200 C 249.851 231.200,250.400 230.824,250.400 230.364 C 250.400 229.904,251.210 228.717,252.200 227.726 C 253.190 226.735,254.447 224.941,254.993 223.740 C 255.539 222.538,256.529 221.347,257.193 221.092 C 257.857 220.837,258.400 220.208,258.400 219.693 C 258.400 219.178,259.480 217.574,260.800 216.129 C 262.120 214.684,263.200 212.996,263.200 212.379 C 263.200 211.761,263.878 210.893,264.707 210.450 C 265.536 210.006,266.451 208.378,266.741 206.831 C 267.031 205.285,267.931 203.665,268.741 203.231 C 269.551 202.798,270.452 201.172,270.744 199.619 C 271.035 198.065,271.945 196.165,272.766 195.397 C 273.587 194.629,274.515 192.560,274.828 190.800 C 275.141 189.040,276.043 186.880,276.832 186.000 C 277.620 185.120,278.655 182.269,279.130 179.666 C 279.606 177.062,280.494 174.362,281.104 173.666 C 281.713 172.969,282.467 169.880,282.779 166.800 C 283.090 163.720,284.075 159.040,284.968 156.400 C 287.396 149.218,287.412 117.196,284.991 110.000 C 284.103 107.360,283.123 102.680,282.813 99.600 C 282.503 96.520,281.744 93.432,281.126 92.738 C 280.508 92.044,279.578 89.344,279.061 86.738 C 278.544 84.132,277.497 81.100,276.735 80.000 C 275.973 78.900,275.126 76.685,274.853 75.077 C 274.580 73.470,273.863 71.965,273.259 71.733 C 272.655 71.502,271.710 69.937,271.158 68.256 C 270.606 66.575,269.490 64.730,268.677 64.155 C 266.238 62.429,267.064 56.000,269.724 56.000 C 270.057 56.000,271.556 56.833,273.055 57.850 M147.897 93.795 C 146.762 94.847,145.584 97.034,145.280 98.654 C 144.976 100.274,144.371 101.600,143.935 101.600 C 143.500 101.600,142.463 103.187,141.631 105.127 C 140.800 107.067,139.411 108.879,138.546 109.154 C 137.681 109.428,136.792 110.345,136.571 111.190 C 136.347 112.044,135.153 112.979,133.884 113.293 C 132.628 113.604,131.150 114.492,130.599 115.266 C 130.048 116.040,128.434 116.929,127.010 117.242 C 125.587 117.554,124.058 118.287,123.611 118.870 C 123.165 119.454,121.793 120.443,120.563 121.070 L 118.327 122.208 121.140 122.736 C 122.688 123.026,124.414 123.921,124.977 124.724 C 125.540 125.528,127.170 126.442,128.599 126.756 C 130.028 127.070,131.670 128.001,132.248 128.826 C 132.825 129.650,134.266 130.693,135.449 131.143 C 136.632 131.592,137.600 132.485,137.600 133.126 C 137.600 133.768,138.302 134.515,139.159 134.787 C 140.017 135.059,140.966 136.073,141.269 137.041 C 141.571 138.008,142.670 139.818,143.709 141.061 C 144.749 142.305,145.600 144.109,145.600 145.070 C 145.600 146.030,146.583 147.876,147.784 149.172 L 149.969 151.528 150.827 148.468 C 151.300 146.785,152.273 144.979,152.990 144.455 C 153.707 143.930,154.554 142.466,154.871 141.202 C 155.690 137.940,160.011 132.301,162.542 131.192 C 163.720 130.676,165.306 129.567,166.066 128.727 C 166.826 127.887,168.085 127.200,168.863 127.200 C 169.641 127.200,171.295 126.355,172.539 125.322 C 173.782 124.289,175.814 123.196,177.054 122.893 L 179.308 122.342 176.769 119.971 C 175.373 118.667,173.746 117.600,173.153 117.600 C 171.527 117.600,168.000 115.841,168.000 115.030 C 168.000 114.638,166.912 113.938,165.583 113.474 C 164.254 113.011,162.801 111.950,162.355 111.116 C 161.909 110.282,161.023 109.600,160.387 109.600 C 159.751 109.600,159.005 108.700,158.729 107.600 C 158.452 106.500,157.753 105.600,157.175 105.600 C 156.597 105.600,155.692 104.250,155.164 102.600 C 154.635 100.950,153.573 98.880,152.803 98.000 C 152.033 97.120,151.079 95.383,150.682 94.141 L 149.961 91.882 147.897 93.795 M70.060 133.744 C 69.877 134.325,69.407 135.880,69.016 137.200 C 68.583 138.660,67.338 140.092,65.838 140.857 C 64.482 141.548,62.270 143.041,60.922 144.174 L 58.473 146.236 61.102 146.729 C 62.548 147.000,64.471 148.074,65.376 149.115 C 66.281 150.156,67.451 151.150,67.975 151.325 C 68.500 151.500,69.183 152.893,69.493 154.422 C 70.236 158.082,74.400 159.128,74.400 155.654 C 74.400 152.721,79.792 147.406,83.698 146.489 C 85.404 146.088,86.186 145.725,85.436 145.680 C 84.686 145.636,83.246 144.790,82.236 143.800 C 81.226 142.810,79.422 141.496,78.226 140.879 C 76.832 140.160,75.662 138.582,74.964 136.479 C 73.857 133.145,70.788 131.434,70.060 133.744 " stroke="none" fill="#000000" fill-rule="evenodd"></path><path id="path1" d="M257.422 39.467 C 248.953 43.353,245.941 52.764,250.800 60.157 C 254.922 66.429,258.119 71.927,259.779 75.600 C 260.376 76.920,261.524 79.260,262.332 80.800 C 263.139 82.340,264.059 84.860,264.377 86.400 C 264.695 87.940,265.601 90.324,266.390 91.697 C 267.179 93.070,268.071 95.770,268.373 97.697 C 268.674 99.624,269.704 104.080,270.660 107.600 C 272.220 113.339,272.400 115.982,272.400 133.200 C 272.400 150.418,272.220 153.061,270.660 158.800 C 269.704 162.320,268.675 166.820,268.376 168.800 C 268.076 170.780,267.149 173.522,266.315 174.894 C 265.482 176.266,264.800 178.038,264.800 178.831 C 264.800 180.152,260.927 189.156,259.136 192.000 C 258.720 192.660,257.714 194.645,256.899 196.411 C 256.085 198.178,254.829 200.112,254.109 200.709 C 253.389 201.307,252.800 202.235,252.800 202.772 C 252.800 204.742,242.469 218.078,235.192 225.502 C 227.622 233.225,224.484 235.791,212.400 244.137 C 205.919 248.612,190.752 256.153,186.000 257.261 C 184.680 257.569,183.220 258.117,182.755 258.479 C 180.724 260.063,161.168 263.914,150.800 264.772 C 129.864 266.504,105.090 262.305,87.600 254.061 C 85.400 253.024,83.060 251.935,82.400 251.642 C 81.740 251.349,79.526 250.140,77.480 248.955 C 75.435 247.770,72.195 245.942,70.280 244.893 C 68.366 243.843,66.560 242.610,66.266 242.152 C 65.088 240.315,55.798 241.120,52.317 243.360 C 45.513 247.738,43.547 254.483,47.123 261.184 C 59.822 284.980,98.814 317.357,123.200 324.353 C 124.300 324.669,127.000 325.597,129.200 326.415 C 158.557 337.333,198.013 338.143,228.761 328.460 C 238.724 325.322,253.391 319.433,255.404 317.763 C 256.019 317.252,257.755 316.279,259.261 315.600 C 276.267 307.938,305.548 281.151,316.197 263.514 C 316.965 262.241,318.668 259.580,319.981 257.600 C 321.294 255.620,322.735 253.100,323.183 252.000 C 323.632 250.900,324.366 249.460,324.816 248.800 C 325.265 248.140,326.168 246.340,326.823 244.800 C 327.479 243.260,328.911 240.327,330.007 238.282 C 331.103 236.237,332.000 234.132,332.000 233.603 C 332.000 233.074,332.538 231.507,333.196 230.121 C 333.853 228.734,335.146 225.080,336.069 222.000 C 337.674 216.641,338.190 214.312,341.377 198.000 C 343.348 187.914,343.756 163.160,342.069 156.000 C 341.395 153.140,340.456 147.584,339.981 143.654 C 339.507 139.724,338.417 134.425,337.559 131.879 C 336.702 129.334,336.000 126.851,336.000 126.362 C 336.000 125.201,332.437 115.894,330.043 110.800 C 329.009 108.600,327.910 105.953,327.601 104.918 C 327.293 103.882,326.176 101.762,325.120 100.206 C 324.064 98.650,323.200 96.942,323.200 96.411 C 323.200 95.879,322.480 94.615,321.600 93.600 C 320.720 92.585,320.000 91.360,319.999 90.878 C 319.998 90.395,319.098 88.954,317.999 87.676 C 316.900 86.397,316.000 85.097,316.000 84.786 C 316.000 84.475,315.010 82.966,313.800 81.434 C 312.590 79.901,310.700 77.464,309.600 76.017 C 308.500 74.570,307.060 72.762,306.400 71.999 C 305.740 71.235,303.760 68.914,302.000 66.839 C 300.240 64.765,295.326 59.948,291.081 56.134 C 280.786 46.887,279.379 45.734,276.693 44.345 C 275.432 43.692,274.400 42.862,274.400 42.499 C 274.400 41.592,264.774 37.579,262.800 37.664 C 261.920 37.702,259.500 38.513,257.422 39.467 M272.708 43.400 C 274.146 44.610,276.015 45.600,276.861 45.600 C 277.733 45.600,278.400 46.150,278.400 46.869 C 278.400 47.568,279.481 48.547,280.802 49.046 C 282.123 49.544,283.407 50.593,283.656 51.376 C 283.904 52.159,284.465 52.800,284.901 52.800 C 286.201 52.800,310.400 77.815,310.400 79.159 C 310.400 79.500,311.480 81.139,312.800 82.800 C 314.120 84.461,315.200 86.298,315.200 86.882 C 315.200 87.466,315.920 88.329,316.800 88.800 C 317.680 89.271,318.400 90.129,318.400 90.708 C 318.400 91.286,319.473 93.343,320.785 95.280 C 322.097 97.216,323.177 99.374,323.185 100.076 C 323.193 100.778,323.925 102.009,324.812 102.811 C 325.699 103.613,326.650 105.683,326.926 107.410 C 327.203 109.137,328.065 111.147,328.844 111.875 C 329.622 112.604,330.515 114.640,330.827 116.400 C 331.140 118.160,332.059 120.860,332.870 122.400 C 333.681 123.940,334.716 127.332,335.170 129.938 C 335.625 132.544,336.528 135.487,337.178 136.479 C 337.899 137.580,338.556 141.342,338.864 146.141 C 339.142 150.463,340.051 156.760,340.885 160.133 C 342.879 168.204,342.881 179.894,340.891 188.400 C 340.068 191.920,339.161 198.337,338.877 202.659 C 338.556 207.531,337.900 211.219,337.151 212.363 C 336.486 213.377,335.582 216.443,335.142 219.175 C 334.702 221.908,333.671 225.101,332.851 226.272 C 332.030 227.442,331.138 229.935,330.868 231.811 C 330.598 233.687,329.701 235.899,328.873 236.727 C 328.046 237.554,327.125 239.677,326.826 241.444 C 326.528 243.211,325.610 245.267,324.787 246.012 C 323.964 246.757,323.070 248.371,322.800 249.600 C 322.530 250.829,321.630 252.449,320.800 253.200 C 319.970 253.951,319.068 255.579,318.796 256.816 C 318.525 258.054,317.768 259.271,317.115 259.522 C 316.462 259.772,315.388 261.153,314.729 262.589 C 313.190 265.941,309.820 270.613,308.346 271.438 C 307.716 271.791,307.200 272.463,307.200 272.932 C 307.200 273.401,306.271 274.733,305.136 275.892 C 304.001 277.051,299.939 281.240,296.111 285.200 C 287.471 294.137,282.420 298.773,280.600 299.438 C 279.830 299.720,279.200 300.280,279.200 300.683 C 279.200 301.086,276.645 302.960,273.521 304.847 C 270.398 306.735,267.672 308.723,267.464 309.267 C 267.255 309.811,266.144 310.491,264.996 310.780 C 263.847 311.068,261.866 312.181,260.592 313.252 C 259.319 314.323,257.746 315.200,257.096 315.200 C 256.447 315.200,254.591 316.100,252.972 317.200 C 251.353 318.300,249.212 319.200,248.214 319.200 C 247.216 319.200,245.669 319.931,244.774 320.826 C 243.880 321.720,241.295 322.803,239.030 323.232 C 236.765 323.662,234.293 324.572,233.538 325.256 C 232.783 325.939,230.016 326.802,227.390 327.173 C 224.763 327.544,221.540 328.403,220.228 329.082 C 218.916 329.761,214.157 330.694,209.653 331.156 C 205.149 331.618,199.132 332.537,196.282 333.198 C 189.573 334.754,174.096 334.777,168.115 333.239 C 165.632 332.600,159.678 331.683,154.885 331.200 C 150.092 330.717,145.112 329.775,143.818 329.106 C 142.524 328.437,139.250 327.533,136.543 327.097 C 133.835 326.661,131.050 325.788,130.354 325.159 C 129.658 324.529,127.235 323.662,124.970 323.232 C 122.705 322.803,120.158 321.758,119.310 320.910 C 118.463 320.063,116.323 319.125,114.556 318.826 C 112.789 318.528,110.733 317.610,109.988 316.787 C 109.243 315.964,107.629 315.070,106.400 314.800 C 105.171 314.530,103.533 313.610,102.759 312.755 C 101.985 311.900,100.753 311.200,100.020 311.200 C 99.288 311.200,97.478 310.120,96.000 308.800 C 94.522 307.480,92.892 306.400,92.380 306.400 C 91.867 306.400,90.796 305.680,90.000 304.800 C 89.204 303.920,88.148 303.200,87.654 303.200 C 87.160 303.200,85.832 302.210,84.703 301.000 C 83.574 299.790,80.914 297.360,78.792 295.600 C 73.383 291.114,65.869 283.641,61.180 278.084 C 58.991 275.491,56.390 272.569,55.400 271.593 C 54.410 270.616,53.600 269.460,53.600 269.025 C 53.600 268.590,52.732 267.297,51.671 266.153 C 50.611 265.008,49.508 263.000,49.220 261.691 C 48.932 260.382,48.180 258.882,47.549 258.357 C 45.965 257.043,46.111 254.913,47.997 251.819 C 48.875 250.379,49.595 248.390,49.597 247.400 C 49.599 246.310,50.088 245.600,50.839 245.600 C 51.520 245.600,53.568 244.880,55.389 244.000 C 59.514 242.007,60.486 242.007,64.611 244.000 C 66.432 244.880,68.467 245.600,69.133 245.600 C 69.799 245.600,70.721 246.305,71.182 247.166 C 71.651 248.042,73.257 248.963,74.831 249.259 C 76.378 249.549,78.005 250.462,78.447 251.288 C 78.934 252.199,80.526 252.993,82.494 253.308 C 84.278 253.593,85.915 254.290,86.133 254.857 C 86.565 255.984,90.564 257.600,92.919 257.600 C 93.734 257.600,95.090 258.290,95.934 259.134 C 96.902 260.102,99.191 260.876,102.134 261.230 C 104.700 261.539,107.393 262.310,108.117 262.945 C 109.806 264.424,117.720 265.563,126.440 265.584 C 130.261 265.593,133.662 265.982,134.146 266.466 C 134.695 267.015,137.173 267.174,140.906 266.900 C 144.148 266.662,151.733 266.121,157.763 265.699 C 169.257 264.894,171.628 264.460,173.600 262.801 C 174.260 262.246,176.851 261.545,179.359 261.243 C 181.866 260.942,184.746 260.051,185.759 259.263 C 186.771 258.476,188.970 257.580,190.645 257.271 C 192.319 256.963,194.340 256.060,195.135 255.265 C 195.930 254.470,197.841 253.583,199.381 253.294 C 200.920 253.005,202.807 252.076,203.573 251.230 C 204.339 250.383,205.984 249.467,207.228 249.194 C 208.472 248.921,209.936 248.159,210.481 247.502 C 211.026 246.845,212.671 245.807,214.136 245.195 C 215.601 244.582,216.800 243.562,216.800 242.928 C 216.800 242.293,217.774 241.529,218.964 241.230 C 220.155 240.932,221.615 239.992,222.210 239.144 C 222.804 238.295,223.716 237.600,224.237 237.600 C 225.290 237.600,226.111 236.857,236.411 226.589 C 240.378 222.635,244.152 218.365,244.798 217.100 C 245.950 214.846,246.899 213.627,250.640 209.600 C 251.661 208.500,253.000 206.355,253.614 204.834 C 254.229 203.313,255.377 201.423,256.166 200.634 C 256.955 199.845,257.600 198.856,257.600 198.436 C 257.600 198.015,258.500 196.345,259.600 194.724 C 260.700 193.103,261.600 191.272,261.600 190.656 C 261.600 190.040,262.360 188.507,263.289 187.251 C 264.218 185.994,265.165 183.309,265.393 181.283 C 265.621 179.257,266.140 177.600,266.545 177.600 C 267.695 177.600,269.600 172.359,269.600 169.194 C 269.600 167.622,270.349 164.868,271.265 163.072 C 274.974 155.802,275.159 110.803,271.508 103.872 C 270.734 102.403,269.842 99.084,269.525 96.498 C 269.189 93.746,268.256 90.857,267.275 89.531 C 266.354 88.284,265.600 86.327,265.600 85.180 C 265.600 82.930,264.333 80.085,262.758 78.800 C 262.219 78.360,261.543 76.654,261.255 75.010 C 260.963 73.343,260.085 71.674,259.271 71.238 C 258.468 70.808,257.594 69.369,257.328 68.040 C 257.062 66.710,256.114 64.997,255.222 64.233 C 254.330 63.469,253.600 62.454,253.600 61.978 C 253.600 61.501,252.700 59.891,251.600 58.400 C 248.603 54.338,249.093 47.383,252.517 45.360 C 253.113 45.008,253.600 44.042,253.600 43.213 C 253.600 39.901,268.725 40.049,272.708 43.400 M268.160 56.960 C 266.660 58.460,266.984 62.956,268.677 64.155 C 269.490 64.730,270.606 66.575,271.158 68.256 C 271.710 69.937,272.655 71.502,273.259 71.733 C 273.863 71.965,274.580 73.470,274.853 75.077 C 275.126 76.685,275.973 78.900,276.735 80.000 C 277.497 81.100,278.544 84.132,279.061 86.738 C 279.578 89.344,280.508 92.044,281.126 92.738 C 281.744 93.432,282.503 96.520,282.813 99.600 C 283.123 102.680,284.103 107.360,284.991 110.000 C 287.412 117.196,287.396 149.218,284.968 156.400 C 284.075 159.040,283.090 163.720,282.779 166.800 C 282.467 169.880,281.713 172.969,281.104 173.666 C 280.494 174.362,279.606 177.062,279.130 179.666 C 278.655 182.269,277.620 185.120,276.832 186.000 C 276.043 186.880,275.141 189.040,274.828 190.800 C 274.515 192.560,273.587 194.629,272.766 195.397 C 271.945 196.165,271.035 198.065,270.744 199.619 C 270.452 201.172,269.551 202.798,268.741 203.231 C 267.931 203.665,267.031 205.285,266.741 206.831 C 266.451 208.378,265.536 210.006,264.707 210.450 C 263.878 210.893,263.200 211.761,263.200 212.379 C 263.200 212.996,262.120 214.684,260.800 216.129 C 259.480 217.574,258.400 219.178,258.400 219.693 C 258.400 220.208,257.857 220.837,257.193 221.092 C 256.529 221.347,255.539 222.538,254.993 223.740 C 254.447 224.941,253.190 226.735,252.200 227.726 C 251.210 228.717,250.400 229.904,250.400 230.364 C 250.400 230.824,249.851 231.200,249.180 231.200 C 248.509 231.200,247.618 232.100,247.200 233.200 C 246.782 234.300,245.882 235.200,245.200 235.200 C 244.518 235.200,243.618 236.100,243.200 237.200 C 242.782 238.300,242.050 239.200,241.573 239.200 C 241.097 239.200,239.110 240.820,237.158 242.800 C 235.206 244.780,233.245 246.400,232.799 246.400 C 232.354 246.400,231.207 247.300,230.250 248.400 C 229.294 249.500,228.067 250.400,227.524 250.400 C 226.980 250.400,225.516 251.480,224.270 252.800 C 223.025 254.120,221.418 255.200,220.701 255.200 C 219.983 255.200,218.944 255.744,218.392 256.409 C 217.840 257.074,215.816 258.314,213.894 259.164 C 211.972 260.014,210.400 261.050,210.400 261.466 C 210.400 261.882,209.120 262.462,207.555 262.756 C 205.991 263.049,204.060 263.940,203.265 264.735 C 202.470 265.530,200.546 266.420,198.991 266.711 C 197.435 267.003,195.316 267.905,194.281 268.716 C 193.247 269.526,190.500 270.595,188.177 271.091 C 185.855 271.587,183.155 272.516,182.177 273.155 C 181.200 273.794,177.880 274.561,174.800 274.859 C 171.720 275.157,167.400 276.165,165.200 277.099 C 159.051 279.710,122.662 279.678,116.000 277.056 C 113.580 276.103,109.260 275.089,106.400 274.801 C 103.540 274.514,100.120 273.618,98.800 272.810 C 97.480 272.002,94.702 271.090,92.626 270.783 C 90.550 270.477,88.430 269.718,87.914 269.096 C 87.398 268.475,85.429 267.577,83.538 267.101 C 81.646 266.625,79.481 265.552,78.725 264.717 C 77.970 263.883,76.740 263.200,75.993 263.200 C 75.245 263.200,73.663 262.300,72.476 261.200 C 69.917 258.829,67.260 258.647,64.760 260.671 L 62.943 262.143 64.671 263.871 C 65.622 264.822,66.400 266.148,66.400 266.817 C 66.400 267.487,67.260 268.426,68.312 268.905 C 69.363 269.384,70.616 270.637,71.095 271.688 C 71.574 272.740,72.471 273.600,73.090 273.600 C 73.708 273.600,74.409 274.347,74.647 275.259 C 74.886 276.172,75.795 277.105,76.667 277.333 C 77.539 277.561,78.439 278.461,78.667 279.333 C 78.895 280.205,79.795 281.105,80.667 281.333 C 81.539 281.561,82.431 282.433,82.650 283.270 C 82.869 284.107,83.658 285.026,84.404 285.312 C 85.150 285.598,86.578 286.590,87.579 287.516 C 88.579 288.442,90.433 290.042,91.699 291.071 C 92.964 292.100,95.235 293.990,96.744 295.271 C 98.253 296.552,100.131 297.600,100.916 297.600 C 101.701 297.600,102.707 298.279,103.151 299.108 C 103.595 299.937,104.898 300.852,106.047 301.140 C 107.196 301.429,108.916 302.395,109.868 303.287 C 110.821 304.180,112.572 305.106,113.759 305.347 C 114.947 305.587,116.526 306.455,117.269 307.276 C 118.012 308.097,119.920 309.000,121.510 309.283 C 123.099 309.566,125.140 310.471,126.045 311.293 C 126.950 312.115,129.470 313.018,131.645 313.299 C 133.820 313.581,136.352 314.491,137.271 315.323 C 138.420 316.364,140.668 316.982,144.471 317.303 C 147.566 317.565,151.585 318.526,153.600 319.485 C 159.185 322.145,204.661 322.128,210.800 319.464 C 213.000 318.509,217.084 317.550,219.875 317.333 C 223.374 317.061,225.486 316.452,226.675 315.374 C 227.629 314.509,230.167 313.582,232.355 313.299 C 234.533 313.018,237.049 312.101,237.955 311.259 C 238.860 310.418,240.926 309.485,242.548 309.186 C 244.169 308.886,246.096 307.978,246.831 307.166 C 247.565 306.355,249.171 305.470,250.400 305.200 C 251.629 304.930,253.267 304.010,254.041 303.155 C 254.815 302.300,256.129 301.600,256.962 301.600 C 257.795 301.600,259.310 300.700,260.330 299.600 C 261.349 298.500,262.709 297.600,263.352 297.600 C 263.995 297.600,265.367 296.700,266.400 295.600 C 267.433 294.500,268.662 293.600,269.131 293.600 C 269.599 293.600,270.887 292.727,271.991 291.660 C 276.430 287.371,278.302 285.809,279.596 285.312 C 280.342 285.026,281.131 284.107,281.350 283.270 C 281.569 282.433,282.461 281.561,283.333 281.333 C 284.205 281.105,285.105 280.205,285.333 279.333 C 285.561 278.461,286.461 277.561,287.333 277.333 C 288.205 277.105,289.114 276.172,289.353 275.259 C 289.591 274.347,290.272 273.600,290.865 273.600 C 291.458 273.600,292.362 272.819,292.873 271.864 C 293.384 270.909,295.226 268.659,296.967 266.864 C 298.709 265.069,300.831 262.250,301.683 260.600 C 302.535 258.950,303.578 257.600,304.001 257.600 C 304.424 257.600,305.003 256.670,305.288 255.533 C 305.574 254.396,306.661 252.612,307.704 251.569 C 308.747 250.526,309.600 248.949,309.600 248.065 C 309.600 247.180,310.257 246.105,311.059 245.675 C 311.862 245.246,312.943 243.476,313.463 241.742 C 313.982 240.008,314.936 238.151,315.583 237.615 C 316.229 237.078,316.992 235.325,317.278 233.720 C 317.564 232.114,318.483 230.046,319.320 229.126 C 320.158 228.205,321.181 225.373,321.595 222.833 C 322.008 220.294,322.906 217.807,323.590 217.307 C 324.386 216.724,325.086 214.242,325.537 210.399 C 325.925 207.099,326.907 202.960,327.721 201.200 C 329.965 196.346,329.965 152.454,327.721 147.600 C 326.907 145.840,325.933 141.777,325.556 138.572 C 325.104 134.721,324.316 132.037,323.236 130.664 C 322.336 129.520,321.600 127.606,321.600 126.411 C 321.600 123.358,320.101 119.410,318.744 118.889 C 318.115 118.648,317.600 117.556,317.600 116.463 C 317.600 114.172,316.046 110.400,315.102 110.400 C 314.750 110.400,314.072 108.953,313.596 107.185 C 313.120 105.417,312.026 103.530,311.165 102.993 C 310.304 102.455,309.600 101.185,309.600 100.169 C 309.600 99.154,308.700 97.490,307.600 96.470 C 306.500 95.451,305.600 94.226,305.600 93.749 C 305.600 93.273,304.700 91.911,303.600 90.724 C 302.500 89.537,301.600 88.218,301.600 87.793 C 301.600 84.893,272.632 56.000,269.724 56.000 C 269.392 56.000,268.688 56.432,268.160 56.960 M272.773 60.000 C 274.245 60.000,290.837 76.605,296.489 83.734 C 302.429 91.228,308.762 100.674,308.785 102.076 C 308.793 102.558,309.520 103.604,310.400 104.400 C 311.280 105.196,312.000 106.237,312.000 106.713 C 312.000 107.188,312.872 109.382,313.937 111.589 C 317.878 119.750,319.834 124.472,320.400 127.200 C 320.720 128.740,321.623 131.440,322.408 133.200 C 323.192 134.960,324.247 139.100,324.751 142.400 C 325.255 145.700,326.219 150.740,326.894 153.600 C 328.615 160.901,328.644 188.088,326.937 194.800 C 326.266 197.440,325.301 202.480,324.793 206.000 C 324.285 209.520,323.322 213.480,322.653 214.800 C 321.984 216.120,320.966 219.000,320.392 221.200 C 319.145 225.975,316.218 233.018,312.744 239.600 C 311.351 242.240,309.644 245.476,308.951 246.792 C 302.443 259.149,288.835 275.291,275.588 286.369 C 271.621 289.686,266.941 293.336,265.188 294.480 C 255.906 300.536,253.307 302.031,245.600 305.751 C 231.951 312.338,225.263 314.726,215.600 316.464 C 212.080 317.096,207.220 318.222,204.800 318.965 C 198.377 320.936,165.623 320.936,159.200 318.965 C 156.780 318.222,151.920 317.096,148.400 316.464 C 142.341 315.374,135.506 313.323,128.443 310.474 C 124.277 308.793,105.890 299.506,104.605 298.434 C 104.052 297.972,101.620 296.282,99.200 294.678 C 78.041 280.650,54.485 251.458,74.638 264.239 C 76.927 265.691,80.060 267.371,81.600 267.973 C 83.140 268.575,84.784 269.357,85.253 269.710 C 86.542 270.680,97.510 274.445,101.600 275.321 C 103.580 275.746,108.080 276.882,111.600 277.847 C 120.398 280.257,161.742 280.523,168.400 278.211 C 170.600 277.448,174.920 276.303,178.000 275.668 C 184.201 274.388,191.509 271.998,196.400 269.648 C 198.160 268.803,202.300 266.817,205.600 265.236 C 214.936 260.762,227.007 253.460,231.600 249.508 C 243.872 238.949,245.392 237.421,257.128 223.853 C 257.769 223.113,258.939 221.493,259.728 220.253 C 260.517 219.014,261.351 217.820,261.582 217.600 C 261.986 217.213,266.626 210.067,268.594 206.800 C 269.485 205.320,274.684 194.781,277.275 189.200 C 279.034 185.414,281.645 177.637,282.916 172.400 C 283.557 169.760,284.617 165.723,285.272 163.429 C 288.790 151.112,288.940 110.278,285.491 103.803 C 285.082 103.034,284.374 100.334,283.917 97.803 C 283.127 93.418,278.980 80.293,277.548 77.648 C 277.177 76.961,276.145 74.780,275.256 72.800 C 273.644 69.210,272.898 67.875,270.281 63.899 C 268.786 61.627,269.114 57.594,270.667 59.147 C 271.136 59.616,272.084 60.000,272.773 60.000 M146.899 92.028 C 145.745 93.400,144.800 95.055,144.800 95.705 C 144.800 101.121,136.206 110.134,125.439 116.008 C 116.214 121.041,115.720 121.810,120.227 124.111 C 134.484 131.390,137.236 133.521,142.014 140.979 C 143.064 142.617,144.365 145.432,144.905 147.234 C 145.782 150.162,148.088 152.800,149.772 152.800 C 150.394 152.800,152.154 149.706,155.180 143.293 C 158.123 137.055,167.350 128.000,170.762 128.000 C 171.090 128.000,173.475 126.694,176.061 125.098 L 180.763 122.195 179.262 120.088 C 178.437 118.928,176.426 117.497,174.793 116.907 C 169.629 115.039,160.666 108.739,159.154 105.913 C 158.590 104.861,157.858 104.000,157.527 104.000 C 157.195 104.000,156.492 102.650,155.964 101.000 C 155.435 99.350,154.373 97.280,153.603 96.400 C 152.833 95.520,151.865 93.743,151.452 92.450 C 150.416 89.212,149.352 89.113,146.899 92.028 M152.803 98.000 C 153.573 98.880,154.635 100.950,155.164 102.600 C 155.692 104.250,156.597 105.600,157.175 105.600 C 157.753 105.600,158.452 106.500,158.729 107.600 C 159.005 108.700,159.751 109.600,160.387 109.600 C 161.023 109.600,161.909 110.282,162.355 111.116 C 162.801 111.950,164.254 113.011,165.583 113.474 C 166.912 113.938,168.000 114.638,168.000 115.030 C 168.000 115.841,171.527 117.600,173.153 117.600 C 173.746 117.600,175.373 118.667,176.769 119.971 L 179.308 122.342 177.054 122.893 C 175.814 123.196,173.782 124.289,172.539 125.322 C 171.295 126.355,169.641 127.200,168.863 127.200 C 168.085 127.200,166.826 127.887,166.066 128.727 C 165.306 129.567,163.720 130.676,162.542 131.192 C 160.011 132.301,155.690 137.940,154.871 141.202 C 154.554 142.466,153.707 143.930,152.990 144.455 C 152.273 144.979,151.300 146.785,150.827 148.468 L 149.969 151.528 147.784 149.172 C 146.583 147.876,145.600 146.030,145.600 145.070 C 145.600 144.109,144.749 142.305,143.709 141.061 C 142.670 139.818,141.571 138.008,141.269 137.041 C 140.966 136.073,140.017 135.059,139.159 134.787 C 138.302 134.515,137.600 133.768,137.600 133.126 C 137.600 132.485,136.632 131.592,135.449 131.143 C 134.266 130.693,132.825 129.650,132.248 128.826 C 131.670 128.001,130.028 127.070,128.599 126.756 C 127.170 126.442,125.540 125.528,124.977 124.724 C 124.414 123.921,122.688 123.026,121.140 122.736 L 118.327 122.208 120.563 121.070 C 121.793 120.443,123.165 119.454,123.611 118.870 C 124.058 118.287,125.587 117.554,127.010 117.242 C 128.434 116.929,130.048 116.040,130.599 115.266 C 131.150 114.492,132.628 113.604,133.884 113.293 C 135.153 112.979,136.347 112.044,136.571 111.190 C 136.792 110.345,137.681 109.428,138.546 109.154 C 139.411 108.879,140.800 107.067,141.631 105.127 C 142.463 103.187,143.500 101.600,143.935 101.600 C 144.371 101.600,144.976 100.274,145.280 98.654 C 145.584 97.034,146.762 94.847,147.897 93.795 L 149.961 91.882 150.682 94.141 C 151.079 95.383,152.033 97.120,152.803 98.000 M69.803 132.200 C 69.367 132.750,68.390 134.534,67.631 136.165 C 66.661 138.249,65.203 139.637,62.719 140.839 C 56.875 143.668,55.606 146.610,59.809 147.585 C 63.156 148.361,68.105 153.123,68.727 156.166 C 69.501 159.952,74.246 160.117,75.433 156.400 C 76.514 153.015,79.824 149.667,83.800 147.937 C 85.670 147.123,87.200 146.147,87.200 145.768 C 87.200 144.820,83.690 141.600,82.656 141.600 C 80.914 141.600,77.467 138.099,75.875 134.713 C 74.165 131.075,71.552 129.993,69.803 132.200 M74.964 136.479 C 75.662 138.582,76.832 140.160,78.226 140.879 C 79.422 141.496,81.226 142.810,82.236 143.800 C 83.246 144.790,84.686 145.636,85.436 145.680 C 86.186 145.725,85.404 146.088,83.698 146.489 C 79.792 147.406,74.400 152.721,74.400 155.654 C 74.400 159.128,70.236 158.082,69.493 154.422 C 69.183 152.893,68.500 151.500,67.975 151.325 C 67.451 151.150,66.281 150.156,65.376 149.115 C 64.471 148.074,62.548 147.000,61.102 146.729 L 58.473 146.236 60.922 144.174 C 62.270 143.041,64.482 141.548,65.838 140.857 C 67.338 140.092,68.583 138.660,69.016 137.200 C 69.407 135.880,69.877 134.325,70.060 133.744 C 70.788 131.434,73.857 133.145,74.964 136.479 " stroke="none" fill="#4c4c4c" fill-rule="evenodd"></path><path id="path2" d="M260.800 36.534 C 249.072 40.128,242.907 53.276,249.606 60.406 C 250.483 61.340,251.200 62.460,251.200 62.896 C 251.200 63.332,252.065 64.862,253.123 66.295 C 254.180 67.729,256.214 71.308,257.642 74.251 C 259.069 77.193,260.865 80.860,261.632 82.400 C 262.399 83.940,263.290 86.446,263.614 87.968 C 263.937 89.491,264.845 92.011,265.633 93.568 C 266.421 95.126,267.301 98.380,267.590 100.800 C 267.878 103.220,268.795 107.231,269.626 109.714 C 272.646 118.727,272.464 149.928,269.348 157.600 C 268.723 159.140,267.971 162.560,267.678 165.200 C 267.385 167.840,266.483 171.274,265.673 172.832 C 264.863 174.389,263.934 176.879,263.608 178.363 C 263.282 179.848,262.157 182.678,261.108 184.651 C 260.058 186.624,259.200 188.676,259.200 189.211 C 259.200 189.746,258.530 191.043,257.710 192.092 C 256.891 193.141,255.940 194.900,255.598 196.000 C 255.255 197.100,254.277 198.900,253.424 200.000 C 252.570 201.100,250.731 203.810,249.336 206.023 C 237.558 224.706,215.839 243.022,194.400 252.350 C 192.860 253.020,191.060 253.904,190.400 254.316 C 173.941 264.574,118.657 266.528,100.632 257.488 C 98.999 256.670,97.048 256.000,96.295 256.000 C 94.303 256.000,76.629 247.602,73.600 245.216 C 57.556 232.578,37.584 245.455,46.332 262.798 C 47.615 265.341,48.987 267.642,49.380 267.911 C 49.774 268.180,51.759 270.749,53.791 273.621 C 58.537 280.329,69.172 291.692,75.923 297.266 C 78.825 299.663,81.920 302.287,82.800 303.096 C 83.680 303.906,84.940 304.800,85.600 305.084 C 86.260 305.368,88.420 306.865,90.400 308.411 C 92.380 309.958,95.109 311.737,96.464 312.365 C 97.819 312.993,99.391 314.067,99.959 314.750 C 100.526 315.433,102.387 316.411,104.095 316.923 C 105.803 317.435,107.200 318.127,107.200 318.460 C 107.200 318.794,108.910 319.712,111.000 320.500 C 113.090 321.289,115.880 322.541,117.200 323.285 C 118.520 324.028,120.500 324.877,121.600 325.173 C 122.700 325.468,124.680 326.204,126.000 326.808 C 130.576 328.901,141.229 331.937,147.200 332.849 C 150.500 333.354,153.619 334.108,154.132 334.525 C 157.231 337.046,200.825 337.318,208.131 334.862 C 210.039 334.220,214.120 333.280,217.200 332.773 C 223.397 331.752,234.351 328.566,237.865 326.763 C 239.110 326.123,240.560 325.600,241.085 325.600 C 241.611 325.600,244.192 324.531,246.820 323.225 C 249.449 321.919,252.001 320.839,252.492 320.825 C 252.983 320.811,254.271 320.102,255.355 319.250 C 256.439 318.397,258.223 317.474,259.319 317.199 C 260.415 316.924,262.332 315.822,263.580 314.750 C 264.828 313.677,266.253 312.800,266.746 312.800 C 267.608 312.800,276.646 306.711,280.800 303.332 C 293.898 292.676,303.372 283.191,310.607 273.487 C 311.381 272.449,312.848 270.520,313.868 269.200 C 314.888 267.880,317.123 264.460,318.835 261.600 C 320.547 258.740,322.589 255.541,323.374 254.492 C 324.158 253.443,324.800 252.055,324.800 251.408 C 324.800 250.760,325.700 249.161,326.800 247.854 C 327.900 246.547,328.811 244.875,328.825 244.139 C 328.839 243.402,329.737 241.360,330.821 239.600 C 331.905 237.840,332.794 235.846,332.796 235.169 C 332.798 234.492,333.517 232.532,334.393 230.814 C 335.269 229.096,336.224 226.422,336.514 224.872 C 336.805 223.322,337.673 220.602,338.443 218.827 C 339.212 217.052,340.088 213.620,340.389 211.200 C 340.689 208.780,341.706 203.200,342.648 198.800 C 344.878 188.385,345.103 160.439,343.024 152.000 C 342.320 149.140,341.324 143.920,340.812 140.400 C 339.488 131.308,335.227 118.195,330.739 109.400 C 329.673 107.309,328.800 105.129,328.800 104.555 C 328.800 103.981,327.919 102.317,326.842 100.857 C 325.765 99.397,324.665 97.204,324.397 95.984 C 324.129 94.764,323.210 93.133,322.355 92.359 C 321.500 91.585,320.800 90.595,320.800 90.159 C 320.800 89.024,313.205 78.132,308.156 72.025 C 302.779 65.521,290.071 52.745,285.600 49.348 C 283.180 47.509,281.020 45.811,280.800 45.576 C 276.555 41.029,264.263 35.472,260.800 36.534 M269.400 39.718 C 272.150 40.885,274.400 42.137,274.400 42.499 C 274.400 42.862,275.432 43.692,276.693 44.345 C 279.379 45.734,280.786 46.887,291.081 56.134 C 295.326 59.948,300.240 64.765,302.000 66.839 C 303.760 68.914,305.740 71.235,306.400 71.999 C 307.060 72.762,308.500 74.570,309.600 76.017 C 310.700 77.464,312.590 79.901,313.800 81.434 C 315.010 82.966,316.000 84.475,316.000 84.786 C 316.000 85.097,316.900 86.397,317.999 87.676 C 319.098 88.954,319.998 90.395,319.999 90.878 C 320.000 91.360,320.720 92.585,321.600 93.600 C 322.480 94.615,323.200 95.879,323.200 96.411 C 323.200 96.942,324.064 98.650,325.120 100.206 C 326.176 101.762,327.293 103.882,327.601 104.918 C 327.910 105.953,329.009 108.600,330.043 110.800 C 332.437 115.894,336.000 125.201,336.000 126.362 C 336.000 126.851,336.702 129.334,337.559 131.879 C 338.417 134.425,339.507 139.724,339.981 143.654 C 340.456 147.584,341.395 153.140,342.069 156.000 C 343.756 163.160,343.348 187.914,341.377 198.000 C 338.190 214.312,337.674 216.641,336.069 222.000 C 335.146 225.080,333.853 228.734,333.196 230.121 C 332.538 231.507,332.000 233.074,332.000 233.603 C 332.000 234.132,331.103 236.237,330.007 238.282 C 328.911 240.327,327.479 243.260,326.823 244.800 C 326.168 246.340,325.265 248.140,324.816 248.800 C 324.366 249.460,323.632 250.900,323.183 252.000 C 322.735 253.100,321.294 255.620,319.981 257.600 C 318.668 259.580,316.965 262.241,316.197 263.514 C 305.548 281.151,276.267 307.938,259.261 315.600 C 257.755 316.279,256.019 317.252,255.404 317.763 C 253.391 319.433,238.724 325.322,228.761 328.460 C 198.013 338.143,158.557 337.333,129.200 326.415 C 127.000 325.597,124.300 324.669,123.200 324.353 C 98.814 317.357,59.822 284.980,47.123 261.184 C 43.547 254.483,45.513 247.738,52.317 243.360 C 55.798 241.120,65.088 240.315,66.266 242.152 C 66.560 242.610,68.366 243.843,70.280 244.893 C 72.195 245.942,75.435 247.770,77.480 248.955 C 79.526 250.140,81.740 251.349,82.400 251.642 C 83.060 251.935,85.400 253.024,87.600 254.061 C 105.090 262.305,129.864 266.504,150.800 264.772 C 161.168 263.914,180.724 260.063,182.755 258.479 C 183.220 258.117,184.680 257.569,186.000 257.261 C 198.363 254.377,221.583 239.386,235.192 225.502 C 242.469 218.078,252.800 204.742,252.800 202.772 C 252.800 202.235,253.389 201.307,254.109 200.709 C 254.829 200.112,256.085 198.178,256.899 196.411 C 257.714 194.645,258.720 192.660,259.136 192.000 C 260.927 189.156,264.800 180.152,264.800 178.831 C 264.800 178.038,265.482 176.266,266.315 174.894 C 267.149 173.522,268.076 170.780,268.376 168.800 C 268.675 166.820,269.704 162.320,270.660 158.800 C 272.220 153.061,272.400 150.418,272.400 133.200 C 272.400 115.982,272.220 113.339,270.660 107.600 C 269.704 104.080,268.674 99.624,268.373 97.697 C 268.071 95.770,267.179 93.070,266.390 91.697 C 265.601 90.324,264.695 87.940,264.377 86.400 C 264.059 84.860,263.139 82.340,262.332 80.800 C 261.524 79.260,260.376 76.920,259.779 75.600 C 258.119 71.927,254.922 66.429,250.800 60.157 C 242.815 48.008,255.665 33.888,269.400 39.718 M269.356 60.046 C 269.090 61.063,269.478 62.679,270.281 63.899 C 272.898 67.875,273.644 69.210,275.256 72.800 C 276.145 74.780,277.177 76.961,277.548 77.648 C 278.980 80.293,283.127 93.418,283.917 97.803 C 284.374 100.334,285.082 103.034,285.491 103.803 C 288.940 110.278,288.790 151.112,285.272 163.429 C 284.617 165.723,283.557 169.760,282.916 172.400 C 281.645 177.637,279.034 185.414,277.275 189.200 C 274.684 194.781,269.485 205.320,268.594 206.800 C 266.626 210.067,261.986 217.213,261.582 217.600 C 261.351 217.820,260.517 219.014,259.728 220.253 C 258.939 221.493,257.769 223.113,257.128 223.853 C 245.392 237.421,243.872 238.949,231.600 249.508 C 227.007 253.460,214.936 260.762,205.600 265.236 C 202.300 266.817,198.160 268.803,196.400 269.648 C 191.509 271.998,184.201 274.388,178.000 275.668 C 174.920 276.303,170.600 277.448,168.400 278.211 C 161.742 280.523,120.398 280.257,111.600 277.847 C 108.080 276.882,103.580 275.746,101.600 275.321 C 97.510 274.445,86.542 270.680,85.253 269.710 C 84.784 269.357,83.140 268.575,81.600 267.973 C 80.060 267.371,76.927 265.691,74.638 264.239 C 54.485 251.458,78.041 280.650,99.200 294.678 C 101.620 296.282,104.052 297.972,104.605 298.434 C 110.773 303.583,137.146 314.440,148.400 316.464 C 151.920 317.096,156.780 318.222,159.200 318.965 C 165.623 320.936,198.377 320.936,204.800 318.965 C 207.220 318.222,212.080 317.096,215.600 316.464 C 225.263 314.726,231.951 312.338,245.600 305.751 C 253.307 302.031,255.906 300.536,265.188 294.480 C 274.288 288.543,286.709 276.904,295.720 265.870 C 301.501 258.793,306.197 252.021,308.951 246.792 C 309.644 245.476,311.351 242.240,312.744 239.600 C 316.218 233.018,319.145 225.975,320.392 221.200 C 320.966 219.000,321.984 216.120,322.653 214.800 C 323.322 213.480,324.285 209.520,324.793 206.000 C 325.301 202.480,326.266 197.440,326.937 194.800 C 328.644 188.088,328.615 160.901,326.894 153.600 C 326.219 150.740,325.255 145.700,324.751 142.400 C 324.247 139.100,323.192 134.960,322.408 133.200 C 321.623 131.440,320.720 128.740,320.400 127.200 C 319.834 124.472,317.878 119.750,313.937 111.589 C 312.872 109.382,312.000 107.188,312.000 106.713 C 312.000 106.237,311.280 105.196,310.400 104.400 C 309.520 103.604,308.793 102.558,308.785 102.076 C 308.762 100.674,302.429 91.228,296.489 83.734 C 290.837 76.605,274.245 60.000,272.773 60.000 C 272.084 60.000,271.136 59.616,270.667 59.147 C 270.063 58.543,269.681 58.806,269.356 60.046 M280.858 68.332 C 291.086 78.544,304.000 94.100,304.000 96.208 C 304.000 96.592,304.858 98.053,305.907 99.453 C 306.956 100.854,308.060 102.810,308.361 103.800 C 308.662 104.790,309.215 105.600,309.590 105.600 C 309.965 105.600,310.869 107.400,311.600 109.600 C 312.331 111.800,313.210 113.600,313.555 113.600 C 313.899 113.600,314.804 115.579,315.564 117.999 C 316.325 120.418,317.250 122.584,317.620 122.812 C 317.990 123.041,318.715 125.265,319.232 127.754 C 319.749 130.243,320.820 133.567,321.613 135.140 C 322.406 136.713,323.455 141.548,323.945 145.885 C 324.434 150.222,325.263 154.542,325.786 155.485 C 327.064 157.790,327.628 183.918,326.514 189.200 C 324.821 197.230,324.067 201.320,323.226 207.053 C 322.754 210.272,321.861 213.692,321.243 214.653 C 320.624 215.614,319.866 217.840,319.558 219.600 C 319.034 222.590,317.807 225.690,313.225 235.600 C 312.208 237.800,311.144 240.140,310.862 240.800 C 310.580 241.460,309.120 243.980,307.617 246.400 C 306.114 248.820,304.344 251.970,303.683 253.400 C 303.022 254.830,302.160 256.000,301.767 256.000 C 301.374 256.000,300.373 257.260,299.544 258.800 C 298.715 260.340,297.767 261.600,297.439 261.600 C 297.110 261.600,296.265 262.713,295.562 264.074 C 292.723 269.564,264.837 295.200,261.704 295.200 C 261.325 295.200,260.105 295.916,258.993 296.791 C 254.654 300.204,234.853 309.736,228.170 311.628 C 226.097 312.216,222.920 313.240,221.111 313.906 C 219.303 314.571,215.883 315.345,213.511 315.625 C 211.140 315.906,207.220 316.734,204.800 317.466 C 198.406 319.401,166.705 319.395,159.200 317.458 C 156.340 316.719,151.515 315.710,148.479 315.215 C 145.442 314.720,142.022 313.838,140.879 313.254 C 139.735 312.670,137.540 311.929,136.000 311.606 C 134.460 311.283,131.690 310.340,129.844 309.509 C 127.998 308.679,126.299 308.000,126.069 308.000 C 125.456 308.000,113.788 302.137,109.600 299.725 C 107.620 298.585,104.978 297.074,103.729 296.369 C 94.481 291.144,67.623 266.457,69.330 264.750 C 70.181 263.899,72.392 264.645,77.600 267.540 C 81.833 269.894,88.476 272.800,89.623 272.800 C 90.284 272.800,92.137 273.504,93.743 274.365 C 95.348 275.225,99.123 276.327,102.131 276.813 C 105.139 277.299,108.860 278.209,110.400 278.836 C 119.194 282.411,161.531 282.418,171.032 278.845 C 172.664 278.231,176.520 277.287,179.600 276.746 C 182.680 276.206,186.455 275.097,187.988 274.282 C 189.522 273.467,191.293 272.800,191.925 272.800 C 193.519 272.800,209.704 265.178,214.800 262.028 C 225.149 255.630,230.353 252.151,232.107 250.460 C 232.826 249.767,234.619 248.300,236.092 247.200 C 243.972 241.314,264.800 217.847,264.800 214.854 C 264.800 214.441,265.547 213.308,266.459 212.337 C 268.260 210.420,269.661 207.997,273.593 200.000 C 278.817 189.374,280.800 184.867,280.800 183.619 C 280.800 182.913,281.474 181.001,282.297 179.368 C 283.120 177.736,284.205 174.002,284.708 171.071 C 285.211 168.141,286.153 164.472,286.802 162.919 C 290.265 154.630,290.030 112.198,286.462 101.614 C 285.644 99.186,284.601 95.400,284.144 93.200 C 283.209 88.695,279.893 79.112,278.037 75.554 C 277.362 74.259,276.808 72.799,276.805 72.308 C 276.802 71.817,275.990 70.387,275.000 69.131 C 267.920 60.143,272.086 59.575,280.858 68.332 M146.927 89.643 C 145.778 90.547,144.408 92.797,143.881 94.643 C 143.355 96.489,142.489 98.540,141.958 99.200 C 141.427 99.860,140.372 101.625,139.613 103.122 C 137.417 107.454,132.751 110.944,122.275 116.091 C 115.560 119.391,113.412 124.800,118.816 124.800 C 119.349 124.800,120.643 125.454,121.692 126.254 C 122.741 127.054,124.860 128.196,126.400 128.793 C 127.940 129.390,129.844 130.535,130.631 131.339 C 131.418 132.143,132.355 132.800,132.713 132.800 C 135.447 132.800,142.437 142.953,144.508 149.933 C 146.040 155.096,152.800 155.746,152.800 150.730 C 152.800 150.227,153.470 148.957,154.290 147.908 C 155.109 146.859,156.057 145.117,156.395 144.038 C 157.974 139.004,168.706 128.800,172.422 128.800 C 173.249 128.800,181.411 123.353,181.992 122.413 C 182.891 120.958,180.349 118.171,176.400 116.283 C 165.243 110.949,156.800 103.862,156.800 99.829 C 156.800 99.214,155.900 97.491,154.800 96.000 C 153.700 94.509,152.800 92.695,152.800 91.969 C 152.800 88.687,149.702 87.460,146.927 89.643 M151.452 92.450 C 151.865 93.743,152.833 95.520,153.603 96.400 C 154.373 97.280,155.435 99.350,155.964 101.000 C 156.492 102.650,157.195 104.000,157.527 104.000 C 157.858 104.000,158.590 104.861,159.154 105.913 C 160.666 108.739,169.629 115.039,174.793 116.907 C 176.426 117.497,178.437 118.928,179.262 120.088 L 180.763 122.195 176.061 125.098 C 173.475 126.694,171.090 128.000,170.762 128.000 C 167.350 128.000,158.123 137.055,155.180 143.293 C 152.154 149.706,150.394 152.800,149.772 152.800 C 148.088 152.800,145.782 150.162,144.905 147.234 C 144.365 145.432,143.064 142.617,142.014 140.979 C 137.236 133.521,134.484 131.390,120.227 124.111 C 115.720 121.810,116.214 121.041,125.439 116.008 C 136.206 110.134,144.800 101.121,144.800 95.705 C 144.800 94.108,148.784 89.461,149.849 89.816 C 150.317 89.972,151.038 91.158,151.452 92.450 M69.030 130.559 C 68.571 131.132,67.929 132.500,67.603 133.600 C 66.740 136.514,64.824 138.424,61.189 139.994 C 55.005 142.665,54.056 146.032,58.818 148.400 C 64.149 151.050,67.002 153.611,67.523 156.214 C 68.743 162.313,76.800 162.374,76.800 156.284 C 76.800 154.272,81.578 149.995,85.140 148.820 C 90.364 147.096,89.528 143.749,82.999 140.250 C 79.668 138.465,78.387 137.173,76.800 134.000 C 74.692 129.783,70.971 128.136,69.030 130.559 M75.875 134.713 C 77.467 138.099,80.914 141.600,82.656 141.600 C 83.690 141.600,87.200 144.820,87.200 145.768 C 87.200 146.147,85.670 147.123,83.800 147.937 C 79.824 149.667,76.514 153.015,75.433 156.400 C 74.246 160.117,69.501 159.952,68.727 156.166 C 68.105 153.123,63.156 148.361,59.809 147.585 C 55.606 146.610,56.875 143.668,62.719 140.839 C 65.203 139.637,66.661 138.249,67.631 136.165 C 70.611 129.762,73.323 129.285,75.875 134.713 " stroke="none" fill="#7f7f7f" fill-rule="evenodd"></path><path id="path3" d="M258.209 34.926 C 257.004 35.134,255.564 35.949,255.009 36.738 C 254.454 37.526,253.190 38.426,252.200 38.739 C 251.150 39.071,250.400 39.952,250.400 40.854 C 250.400 41.704,249.873 42.400,249.228 42.400 C 245.740 42.400,245.133 59.604,248.537 61.987 C 249.492 62.655,250.511 64.285,250.802 65.608 C 251.092 66.931,251.979 68.361,252.772 68.785 C 253.565 69.209,254.450 70.816,254.739 72.355 C 255.028 73.895,255.911 75.614,256.702 76.177 C 257.493 76.740,258.368 78.640,258.646 80.400 C 258.924 82.160,259.827 84.153,260.652 84.828 C 261.584 85.591,262.318 87.519,262.588 89.912 C 262.827 92.032,263.724 94.719,264.581 95.883 C 265.710 97.415,266.289 99.949,266.679 105.057 C 267.018 109.499,267.808 113.336,268.809 115.408 C 271.222 120.402,271.192 145.860,268.767 150.869 C 267.685 153.103,266.974 156.635,266.663 161.322 C 266.310 166.634,265.821 168.810,264.702 170.045 C 263.883 170.950,262.982 173.470,262.701 175.645 C 262.419 177.820,261.502 180.358,260.663 181.285 C 259.823 182.212,258.913 184.372,258.639 186.085 C 258.365 187.798,257.493 189.660,256.702 190.223 C 255.911 190.786,255.028 192.504,254.739 194.043 C 254.451 195.581,253.588 197.280,252.822 197.820 C 252.056 198.359,251.170 199.622,250.853 200.626 C 250.535 201.630,249.404 203.323,248.338 204.389 C 247.272 205.455,246.400 206.936,246.400 207.679 C 246.400 208.423,245.669 209.790,244.775 210.716 C 240.682 214.957,238.400 217.718,238.400 218.428 C 238.400 218.852,237.851 219.200,237.180 219.200 C 236.509 219.200,235.637 220.051,235.242 221.091 C 234.846 222.130,233.775 223.177,232.861 223.416 C 231.948 223.655,231.200 224.433,231.200 225.145 C 231.200 225.857,230.300 226.782,229.200 227.200 C 228.100 227.618,227.200 228.509,227.200 229.180 C 227.200 229.851,226.852 230.400,226.428 230.400 C 226.003 230.400,224.550 231.480,223.200 232.800 C 221.850 234.120,220.256 235.200,219.658 235.200 C 219.060 235.200,218.368 235.729,218.120 236.375 C 217.872 237.021,216.389 238.085,214.824 238.739 C 213.258 239.393,211.777 240.452,211.531 241.092 C 211.285 241.732,210.120 242.495,208.942 242.787 C 207.764 243.079,206.080 243.971,205.200 244.767 C 204.320 245.564,202.700 246.479,201.600 246.800 C 200.500 247.121,198.880 248.014,198.000 248.785 C 197.120 249.555,195.157 250.419,193.638 250.705 C 192.120 250.991,190.140 251.892,189.238 252.707 C 188.337 253.522,185.800 254.420,183.600 254.701 C 181.400 254.982,178.700 255.870,177.600 256.675 C 176.209 257.691,173.014 258.397,167.112 258.990 C 162.443 259.459,157.511 260.419,156.151 261.122 C 152.291 263.118,130.374 262.944,124.175 260.868 C 121.659 260.025,116.291 259.080,112.247 258.768 C 107.347 258.390,104.760 257.851,104.492 257.150 C 104.044 255.984,99.139 254.411,95.924 254.404 C 94.782 254.402,93.203 253.687,92.414 252.816 C 91.626 251.944,89.680 251.000,88.090 250.717 C 86.501 250.434,84.480 249.553,83.600 248.760 C 82.720 247.967,80.980 247.065,79.733 246.756 C 78.486 246.446,76.612 245.339,75.569 244.296 C 74.526 243.253,72.980 242.400,72.134 242.400 C 71.288 242.400,70.057 241.590,69.400 240.600 C 68.290 238.928,67.621 238.800,60.000 238.800 C 52.379 238.800,51.710 238.928,50.600 240.600 C 49.943 241.590,48.933 242.400,48.356 242.400 C 47.780 242.400,47.057 243.190,46.751 244.155 C 46.444 245.121,45.457 246.507,44.556 247.236 C 41.704 249.546,41.959 264.000,44.851 264.000 C 45.251 264.000,46.105 265.260,46.748 266.800 C 47.392 268.340,48.477 269.600,49.159 269.600 C 49.859 269.600,50.400 270.285,50.400 271.172 C 50.400 272.037,51.480 273.974,52.800 275.478 C 54.120 276.981,55.200 278.466,55.200 278.778 C 55.200 279.090,57.000 281.080,59.200 283.200 C 61.400 285.320,63.200 287.390,63.200 287.799 C 63.200 288.208,64.100 288.953,65.200 289.454 C 66.300 289.956,67.200 290.889,67.200 291.529 C 67.200 292.169,67.888 292.910,68.728 293.177 C 69.569 293.444,70.837 294.548,71.547 295.631 C 72.256 296.714,73.369 297.600,74.018 297.600 C 74.668 297.600,75.200 298.131,75.200 298.779 C 75.200 299.428,76.280 300.517,77.600 301.200 C 78.920 301.883,80.000 302.810,80.000 303.261 C 80.000 303.713,81.170 304.578,82.600 305.184 C 84.030 305.790,85.826 307.031,86.592 307.943 C 87.358 308.854,88.666 309.600,89.499 309.600 C 90.332 309.600,91.197 310.304,91.422 311.164 C 91.656 312.056,92.811 312.957,94.116 313.263 C 95.372 313.558,97.225 314.654,98.232 315.700 C 99.240 316.745,100.752 317.600,101.591 317.600 C 102.431 317.600,104.089 318.500,105.276 319.600 C 106.463 320.700,108.313 321.600,109.389 321.600 C 110.464 321.600,111.941 322.331,112.672 323.224 C 113.412 324.129,115.417 325.062,117.200 325.330 C 118.960 325.595,121.188 326.526,122.150 327.398 C 123.171 328.324,125.506 329.155,127.750 329.392 C 130.045 329.634,132.324 330.458,133.392 331.431 C 134.802 332.716,136.592 333.140,141.792 333.423 C 147.105 333.712,148.765 334.118,150.264 335.491 C 153.187 338.170,210.813 338.170,213.736 335.491 C 215.235 334.118,216.895 333.712,222.208 333.423 C 227.572 333.131,229.163 332.738,230.660 331.332 C 231.737 330.320,233.541 329.600,234.999 329.600 C 237.988 329.600,241.541 328.344,242.735 326.866 C 243.211 326.276,245.040 325.582,246.800 325.321 C 248.592 325.057,250.584 324.134,251.328 323.224 C 252.059 322.331,253.605 321.600,254.765 321.600 C 255.947 321.600,257.751 320.721,258.873 319.600 C 259.973 318.500,261.551 317.600,262.379 317.600 C 263.955 317.600,266.400 315.620,266.400 314.343 C 266.400 313.934,267.317 313.600,268.438 313.600 C 269.559 313.600,271.269 312.750,272.238 311.711 C 273.207 310.672,274.810 309.568,275.801 309.257 C 276.791 308.946,277.974 307.996,278.429 307.146 C 278.884 306.296,279.777 305.600,280.414 305.600 C 281.051 305.600,282.689 304.610,284.054 303.400 C 285.418 302.190,287.565 300.300,288.824 299.200 C 291.903 296.509,293.022 295.469,294.162 294.238 C 294.691 293.667,295.591 292.767,296.162 292.238 C 296.733 291.709,297.633 290.809,298.162 290.238 C 298.691 289.667,299.591 288.767,300.162 288.238 C 300.733 287.709,301.633 286.809,302.162 286.238 C 302.691 285.667,303.591 284.752,304.162 284.206 C 304.733 283.659,306.010 282.219,306.999 281.006 C 307.988 279.792,309.878 277.492,311.199 275.894 C 312.520 274.296,313.600 272.448,313.600 271.786 C 313.600 271.125,314.500 269.994,315.600 269.274 C 316.700 268.553,317.600 267.444,317.600 266.810 C 317.600 266.175,318.318 265.272,319.195 264.803 C 320.171 264.280,320.976 262.780,321.272 260.931 C 321.594 258.914,322.320 257.662,323.460 257.156 C 324.614 256.645,325.381 255.299,325.830 253.000 C 326.234 250.932,326.934 249.600,327.616 249.600 C 328.260 249.600,329.125 248.152,329.647 246.200 C 330.147 244.330,331.189 242.204,331.963 241.475 C 332.738 240.747,333.607 238.677,333.895 236.875 C 334.183 235.074,334.731 233.600,335.112 233.600 C 336.082 233.600,337.398 229.845,337.868 225.738 C 338.096 223.747,338.854 221.844,339.652 221.261 C 340.690 220.502,341.175 218.545,341.575 213.517 C 341.939 208.930,342.601 206.036,343.655 204.429 C 345.983 200.875,346.044 148.018,343.724 144.476 C 342.775 143.028,342.028 139.821,341.634 135.497 C 341.205 130.786,340.588 128.291,339.575 127.172 C 338.780 126.293,337.855 123.561,337.521 121.099 C 337.146 118.332,336.282 115.952,335.257 114.861 C 334.346 113.891,333.600 112.200,333.600 111.104 C 333.600 110.008,332.700 107.891,331.600 106.400 C 330.500 104.909,329.600 103.058,329.600 102.286 C 329.600 101.514,328.700 99.911,327.600 98.724 C 326.500 97.537,325.600 95.727,325.600 94.702 C 325.600 93.595,324.787 92.304,323.600 91.526 C 322.449 90.772,321.600 89.453,321.600 88.418 C 321.600 87.429,320.520 85.261,319.200 83.600 C 317.880 81.939,316.800 80.294,316.800 79.944 C 316.800 79.594,316.080 79.079,315.200 78.800 C 314.320 78.521,313.600 77.734,313.600 77.052 C 313.600 76.369,312.528 74.504,311.218 72.906 C 309.909 71.308,308.019 68.980,307.018 67.734 C 304.735 64.888,291.301 51.428,288.266 48.946 C 283.757 45.258,279.766 42.400,279.126 42.400 C 278.767 42.400,277.584 41.590,276.498 40.600 C 270.661 35.279,265.478 33.671,258.209 34.926 M269.200 38.211 C 271.872 39.293,279.391 44.066,280.800 45.576 C 281.020 45.811,283.180 47.509,285.600 49.348 C 290.071 52.745,302.779 65.521,308.156 72.025 C 313.205 78.132,320.800 89.024,320.800 90.159 C 320.800 90.595,321.500 91.585,322.355 92.359 C 323.210 93.133,324.129 94.764,324.397 95.984 C 324.665 97.204,325.765 99.397,326.842 100.857 C 327.919 102.317,328.800 103.981,328.800 104.555 C 328.800 105.129,329.673 107.309,330.739 109.400 C 335.227 118.195,339.488 131.308,340.812 140.400 C 341.324 143.920,342.320 149.140,343.024 152.000 C 345.103 160.439,344.878 188.385,342.648 198.800 C 341.706 203.200,340.689 208.780,340.389 211.200 C 340.088 213.620,339.212 217.052,338.443 218.827 C 337.673 220.602,336.805 223.322,336.514 224.872 C 336.224 226.422,335.269 229.096,334.393 230.814 C 333.517 232.532,332.798 234.492,332.796 235.169 C 332.794 235.846,331.905 237.840,330.821 239.600 C 329.737 241.360,328.839 243.402,328.825 244.139 C 328.811 244.875,327.900 246.547,326.800 247.854 C 325.700 249.161,324.800 250.760,324.800 251.408 C 324.800 252.055,324.158 253.443,323.374 254.492 C 322.589 255.541,320.547 258.740,318.835 261.600 C 317.123 264.460,314.888 267.880,313.868 269.200 C 312.848 270.520,311.381 272.449,310.607 273.487 C 303.372 283.191,293.898 292.676,280.800 303.332 C 276.646 306.711,267.608 312.800,266.746 312.800 C 266.253 312.800,264.828 313.677,263.580 314.750 C 262.332 315.822,260.415 316.924,259.319 317.199 C 258.223 317.474,256.439 318.397,255.355 319.250 C 254.271 320.102,252.983 320.811,252.492 320.825 C 252.001 320.839,249.449 321.919,246.820 323.225 C 244.192 324.531,241.611 325.600,241.085 325.600 C 240.560 325.600,239.110 326.123,237.865 326.763 C 234.351 328.566,223.397 331.752,217.200 332.773 C 214.120 333.280,210.039 334.220,208.131 334.862 C 200.825 337.318,157.231 337.046,154.132 334.525 C 153.619 334.108,150.500 333.354,147.200 332.849 C 141.229 331.937,130.576 328.901,126.000 326.808 C 124.680 326.204,122.700 325.468,121.600 325.173 C 120.500 324.877,118.520 324.028,117.200 323.285 C 115.880 322.541,113.090 321.289,111.000 320.500 C 108.910 319.712,107.200 318.794,107.200 318.460 C 107.200 318.127,105.803 317.435,104.095 316.923 C 102.387 316.411,100.526 315.433,99.959 314.750 C 99.391 314.067,97.819 312.993,96.464 312.365 C 95.109 311.737,92.380 309.958,90.400 308.411 C 88.420 306.865,86.260 305.368,85.600 305.084 C 84.940 304.800,83.680 303.906,82.800 303.096 C 81.920 302.287,78.825 299.663,75.923 297.266 C 69.172 291.692,58.537 280.329,53.791 273.621 C 51.759 270.749,49.774 268.180,49.380 267.911 C 48.987 267.642,47.615 265.341,46.332 262.798 C 37.584 245.455,57.556 232.578,73.600 245.216 C 76.629 247.602,94.303 256.000,96.295 256.000 C 97.048 256.000,98.999 256.670,100.632 257.488 C 118.657 266.528,173.941 264.574,190.400 254.316 C 191.060 253.904,192.860 253.020,194.400 252.350 C 215.839 243.022,237.558 224.706,249.336 206.023 C 250.731 203.810,252.570 201.100,253.424 200.000 C 254.277 198.900,255.255 197.100,255.598 196.000 C 255.940 194.900,256.891 193.141,257.710 192.092 C 258.530 191.043,259.200 189.746,259.200 189.211 C 259.200 188.676,260.058 186.624,261.108 184.651 C 262.157 182.678,263.282 179.848,263.608 178.363 C 263.934 176.879,264.863 174.389,265.673 172.832 C 266.483 171.274,267.385 167.840,267.678 165.200 C 267.971 162.560,268.723 159.140,269.348 157.600 C 272.464 149.928,272.646 118.727,269.626 109.714 C 268.795 107.231,267.878 103.220,267.590 100.800 C 267.301 98.380,266.421 95.126,265.633 93.568 C 264.845 92.011,263.937 89.491,263.614 87.968 C 263.290 86.446,262.399 83.940,261.632 82.400 C 260.865 80.860,259.069 77.193,257.642 74.251 C 256.214 71.308,254.180 67.729,253.123 66.295 C 252.065 64.862,251.200 63.332,251.200 62.896 C 251.200 62.460,250.483 61.340,249.606 60.406 C 244.153 54.602,247.861 42.435,256.294 38.460 C 262.015 35.763,263.101 35.742,269.200 38.211 M272.294 64.223 C 272.792 65.665,274.010 67.874,275.000 69.131 C 275.990 70.387,276.802 71.817,276.805 72.308 C 276.808 72.799,277.362 74.259,278.037 75.554 C 279.893 79.112,283.209 88.695,284.144 93.200 C 284.601 95.400,285.644 99.186,286.462 101.614 C 290.030 112.198,290.265 154.630,286.802 162.919 C 286.153 164.472,285.211 168.141,284.708 171.071 C 284.205 174.002,283.120 177.736,282.297 179.368 C 281.474 181.001,280.800 182.913,280.800 183.619 C 280.800 184.867,278.817 189.374,273.593 200.000 C 269.661 207.997,268.260 210.420,266.459 212.337 C 265.547 213.308,264.800 214.441,264.800 214.854 C 264.800 217.847,243.972 241.314,236.092 247.200 C 234.619 248.300,232.826 249.767,232.107 250.460 C 230.353 252.151,225.149 255.630,214.800 262.028 C 209.704 265.178,193.519 272.800,191.925 272.800 C 191.293 272.800,189.522 273.467,187.988 274.282 C 186.455 275.097,182.680 276.206,179.600 276.746 C 176.520 277.287,172.664 278.231,171.032 278.845 C 161.531 282.418,119.194 282.411,110.400 278.836 C 108.860 278.209,105.139 277.299,102.131 276.813 C 99.123 276.327,95.348 275.225,93.743 274.365 C 92.137 273.504,90.284 272.800,89.623 272.800 C 88.476 272.800,81.833 269.894,77.600 267.540 C 72.392 264.645,70.181 263.899,69.330 264.750 C 67.623 266.457,94.481 291.144,103.729 296.369 C 104.978 297.074,107.620 298.585,109.600 299.725 C 113.788 302.137,125.456 308.000,126.069 308.000 C 126.299 308.000,127.998 308.679,129.844 309.509 C 131.690 310.340,134.460 311.283,136.000 311.606 C 137.540 311.929,139.735 312.670,140.879 313.254 C 142.022 313.838,145.442 314.720,148.479 315.215 C 151.515 315.710,156.340 316.719,159.200 317.458 C 166.705 319.395,198.406 319.401,204.800 317.466 C 207.220 316.734,211.140 315.906,213.511 315.625 C 215.883 315.345,219.303 314.571,221.111 313.906 C 222.920 313.240,226.097 312.216,228.170 311.628 C 234.853 309.736,254.654 300.204,258.993 296.791 C 260.105 295.916,261.325 295.200,261.704 295.200 C 264.837 295.200,292.723 269.564,295.562 264.074 C 296.265 262.713,297.110 261.600,297.439 261.600 C 297.767 261.600,298.715 260.340,299.544 258.800 C 300.373 257.260,301.374 256.000,301.767 256.000 C 302.160 256.000,303.022 254.830,303.683 253.400 C 304.344 251.970,306.114 248.820,307.617 246.400 C 309.120 243.980,310.580 241.460,310.862 240.800 C 311.144 240.140,312.208 237.800,313.225 235.600 C 317.807 225.690,319.034 222.590,319.558 219.600 C 319.866 217.840,320.624 215.614,321.243 214.653 C 321.861 213.692,322.754 210.272,323.226 207.053 C 324.067 201.320,324.821 197.230,326.514 189.200 C 327.628 183.918,327.064 157.790,325.786 155.485 C 325.263 154.542,324.434 150.222,323.945 145.885 C 323.455 141.548,322.406 136.713,321.613 135.140 C 320.820 133.567,319.749 130.243,319.232 127.754 C 318.715 125.265,317.990 123.041,317.620 122.812 C 317.250 122.584,316.325 120.418,315.564 117.999 C 314.804 115.579,313.899 113.600,313.555 113.600 C 313.210 113.600,312.331 111.800,311.600 109.600 C 310.869 107.400,309.965 105.600,309.590 105.600 C 309.215 105.600,308.662 104.790,308.361 103.800 C 308.060 102.810,306.956 100.854,305.907 99.453 C 304.858 98.053,304.000 96.592,304.000 96.208 C 304.000 94.100,291.086 78.544,280.858 68.332 C 273.528 61.014,270.721 59.667,272.294 64.223 M281.687 71.762 C 282.228 72.773,282.995 73.600,283.392 73.600 C 284.220 73.600,286.400 75.630,286.400 76.400 C 286.400 76.683,286.850 77.380,287.400 77.950 C 287.950 78.520,289.840 80.714,291.600 82.827 C 293.360 84.939,295.582 87.496,296.538 88.508 C 297.494 89.520,298.496 91.041,298.764 91.888 C 299.033 92.735,299.912 93.600,300.718 93.810 C 301.647 94.053,302.382 95.252,302.726 97.087 C 303.025 98.678,303.931 100.335,304.741 100.769 C 305.551 101.202,306.450 102.816,306.739 104.355 C 307.028 105.895,307.915 107.614,308.710 108.177 C 309.506 108.740,310.406 110.540,310.710 112.177 C 311.015 113.814,311.912 115.614,312.704 116.177 C 313.517 116.754,314.392 118.765,314.713 120.791 C 315.025 122.766,315.935 125.106,316.735 125.991 C 317.574 126.918,318.397 129.456,318.679 131.982 C 318.948 134.391,319.837 137.271,320.654 138.382 C 321.762 139.885,322.269 142.441,322.643 148.400 C 322.919 152.800,323.869 159.640,324.755 163.600 C 326.780 172.652,326.787 175.542,324.807 184.441 C 323.931 188.378,322.971 195.376,322.674 199.990 C 322.343 205.126,321.731 208.783,321.097 209.417 C 319.802 210.712,318.410 215.602,318.404 218.876 C 318.402 220.313,317.743 221.946,316.835 222.768 C 315.975 223.547,315.037 225.741,314.752 227.644 C 314.466 229.547,313.557 231.714,312.732 232.461 C 311.907 233.208,310.989 235.120,310.694 236.710 C 310.398 238.299,309.520 240.050,308.742 240.601 C 307.963 241.152,307.086 242.697,306.792 244.036 C 306.498 245.374,305.390 247.338,304.329 248.398 C 303.268 249.459,302.400 251.244,302.400 252.364 C 302.400 253.690,301.957 254.400,301.131 254.400 C 300.432 254.400,299.453 255.480,298.955 256.800 C 298.457 258.120,297.579 259.200,297.005 259.200 C 296.430 259.200,295.648 260.010,295.265 261.000 C 294.883 261.990,293.632 263.673,292.485 264.739 C 291.338 265.806,290.400 267.148,290.400 267.721 C 290.400 268.294,289.500 269.353,288.400 270.074 C 287.300 270.794,286.400 272.021,286.400 272.799 C 286.400 273.577,285.653 274.409,284.741 274.647 C 283.828 274.886,282.886 275.828,282.647 276.741 C 282.399 277.691,281.559 278.400,280.682 278.400 C 279.839 278.400,278.954 278.911,278.714 279.535 C 278.475 280.159,275.786 282.524,272.739 284.789 C 269.693 287.055,267.200 289.209,267.200 289.576 C 267.200 289.943,266.120 290.620,264.800 291.080 C 263.480 291.540,262.400 292.475,262.400 293.158 C 262.400 293.955,261.671 294.400,260.364 294.400 C 259.244 294.400,257.459 295.268,256.398 296.329 C 255.338 297.390,253.411 298.490,252.118 298.774 C 250.824 299.058,249.151 299.970,248.400 300.800 C 247.649 301.630,245.901 302.549,244.517 302.841 C 243.133 303.133,241.280 304.025,240.400 304.822 C 239.520 305.618,237.360 306.524,235.600 306.834 C 233.840 307.144,231.680 308.031,230.800 308.806 C 229.915 309.585,227.163 310.458,224.641 310.759 C 222.134 311.059,219.254 311.947,218.241 312.733 C 216.915 313.762,214.260 314.308,208.745 314.686 C 204.535 314.975,198.955 315.838,196.345 316.603 C 189.800 318.522,174.200 318.522,167.655 316.603 C 165.045 315.838,159.465 314.975,155.255 314.686 C 149.740 314.308,147.085 313.762,145.759 312.733 C 144.746 311.947,141.866 311.056,139.359 310.752 C 136.663 310.426,134.253 309.628,133.462 308.800 C 132.726 308.030,130.518 307.159,128.554 306.865 C 126.591 306.571,124.379 305.661,123.640 304.844 C 122.900 304.027,121.108 303.136,119.658 302.864 C 118.207 302.591,116.393 301.676,115.627 300.830 C 114.861 299.983,113.176 299.058,111.882 298.774 C 110.589 298.490,108.662 297.390,107.602 296.329 C 106.541 295.268,104.756 294.400,103.636 294.400 C 102.345 294.400,101.600 293.954,101.600 293.180 C 101.600 292.509,100.789 291.652,99.798 291.275 C 98.807 290.898,96.197 288.921,93.998 286.882 C 91.799 284.842,89.203 282.964,88.229 282.707 C 87.254 282.451,86.234 281.536,85.960 280.675 C 85.687 279.813,84.594 278.778,83.532 278.374 C 82.469 277.970,81.600 277.098,81.600 276.435 C 81.600 275.773,80.734 275.013,79.676 274.747 C 78.617 274.482,77.564 273.548,77.335 272.673 C 77.106 271.797,76.172 270.886,75.259 270.647 C 74.347 270.409,73.600 269.703,73.600 269.079 C 73.600 268.204,73.956 268.134,75.147 268.772 C 75.998 269.227,77.297 269.600,78.032 269.600 C 78.767 269.600,80.439 270.500,81.746 271.600 C 83.294 272.903,85.103 273.600,86.933 273.600 C 88.854 273.600,90.190 274.151,91.153 275.340 C 92.257 276.703,93.667 277.161,97.661 277.450 C 101.075 277.696,103.485 278.354,104.952 279.439 C 106.738 280.760,108.744 281.129,115.772 281.430 C 121.417 281.672,125.230 282.234,126.800 283.055 C 130.341 284.906,149.434 284.909,154.400 283.059 C 156.609 282.235,161.156 281.607,166.170 281.432 C 172.900 281.196,174.735 280.853,176.590 279.482 C 178.122 278.349,180.475 277.700,183.963 277.448 C 188.092 277.149,189.311 276.740,190.241 275.339 C 191.099 274.045,192.199 273.600,194.534 273.600 C 196.815 273.600,198.219 273.054,199.673 271.600 C 200.918 270.355,202.579 269.600,204.075 269.600 C 205.564 269.600,207.146 268.885,208.238 267.718 C 209.207 266.682,211.390 265.579,213.089 265.265 C 215.175 264.879,216.309 264.192,216.582 263.147 C 216.829 262.202,217.680 261.600,218.769 261.600 C 219.750 261.600,221.231 260.850,222.060 259.934 C 222.889 259.018,224.745 257.776,226.184 257.175 C 227.623 256.574,228.800 255.694,228.800 255.221 C 228.800 254.748,229.735 254.005,230.877 253.571 C 232.020 253.136,233.142 252.065,233.371 251.190 C 233.599 250.316,234.447 249.600,235.255 249.600 C 237.078 249.600,254.400 232.836,254.400 231.071 C 254.400 230.365,255.120 229.598,256.000 229.368 C 256.919 229.128,257.600 228.277,257.600 227.368 C 257.600 226.463,258.280 225.609,259.190 225.371 C 260.065 225.142,261.117 224.069,261.529 222.987 C 261.941 221.904,262.825 220.808,263.494 220.551 C 264.163 220.295,265.139 218.655,265.662 216.908 C 266.233 215.002,267.212 213.574,268.107 213.340 C 268.928 213.125,269.600 212.338,269.600 211.590 C 269.600 210.843,270.500 209.161,271.600 207.854 C 272.700 206.547,273.600 204.618,273.600 203.567 C 273.600 202.489,274.282 201.291,275.166 200.818 C 276.084 200.327,276.951 198.745,277.264 196.990 C 277.558 195.346,278.525 193.202,279.414 192.226 C 280.303 191.250,281.323 188.601,281.681 186.339 C 282.044 184.043,282.923 181.794,283.671 181.247 C 284.576 180.585,285.200 178.473,285.594 174.734 C 285.923 171.615,286.925 167.817,287.889 166.031 C 289.251 163.507,289.603 161.470,289.614 156.031 C 289.622 152.274,290.162 146.680,290.814 143.600 C 292.199 137.059,292.358 127.975,291.156 123.995 C 290.692 122.458,290.045 116.629,289.718 111.042 C 289.239 102.844,288.839 100.569,287.645 99.250 C 286.734 98.244,286.041 96.001,285.839 93.408 C 285.365 87.313,285.029 86.108,283.222 84.025 C 282.330 82.997,281.600 81.020,281.600 79.633 C 281.600 78.199,280.737 75.941,279.600 74.400 C 277.080 70.985,276.792 67.482,279.152 68.955 C 280.005 69.488,281.146 70.751,281.687 71.762 M146.262 87.309 C 144.089 88.105,142.400 91.379,142.400 94.795 C 142.400 95.762,141.689 97.195,140.820 97.982 C 139.952 98.768,139.007 100.174,138.721 101.106 C 137.978 103.530,130.648 110.313,128.128 110.908 C 126.958 111.184,125.280 112.051,124.400 112.833 C 123.520 113.616,121.276 114.661,119.414 115.156 C 113.801 116.645,112.010 125.600,117.324 125.600 C 117.876 125.600,119.227 126.500,120.327 127.600 C 121.427 128.700,123.231 129.600,124.335 129.600 C 125.521 129.600,126.692 130.252,127.195 131.191 C 127.663 132.065,128.971 133.013,130.101 133.297 C 132.705 133.950,138.400 139.314,138.400 141.112 C 138.400 141.861,139.248 143.321,140.284 144.357 C 141.406 145.479,142.350 147.598,142.618 149.599 C 143.728 157.871,153.600 160.029,153.600 152.000 C 153.600 150.426,154.003 149.600,154.772 149.600 C 156.305 149.600,157.600 147.103,157.600 144.146 C 157.600 142.461,158.056 141.667,159.196 141.369 C 160.074 141.140,161.043 140.288,161.350 139.476 C 162.176 137.289,166.084 133.600,167.575 133.600 C 168.289 133.600,169.773 132.700,170.873 131.600 C 171.973 130.500,173.576 129.600,174.436 129.600 C 175.296 129.600,176.805 128.790,177.788 127.800 C 178.772 126.810,180.662 125.640,181.988 125.200 C 187.622 123.331,184.084 115.790,177.080 114.740 C 175.150 114.451,173.600 113.782,173.600 113.238 C 173.600 112.199,170.298 110.400,168.391 110.400 C 167.767 110.400,166.873 109.684,166.405 108.809 C 165.937 107.935,164.664 106.996,163.577 106.723 C 162.490 106.450,161.600 105.688,161.600 105.029 C 161.600 104.370,160.700 102.761,159.600 101.454 C 158.500 100.147,157.600 98.385,157.600 97.539 C 157.600 96.692,156.922 95.322,156.093 94.493 C 155.264 93.664,154.166 91.715,153.654 90.163 C 152.411 86.398,150.630 85.710,146.262 87.309 M151.337 89.324 C 152.142 90.052,152.800 91.242,152.800 91.969 C 152.800 92.695,153.700 94.509,154.800 96.000 C 155.900 97.491,156.800 99.214,156.800 99.829 C 156.800 103.862,165.243 110.949,176.400 116.283 C 180.349 118.171,182.891 120.958,181.992 122.413 C 181.411 123.353,173.249 128.800,172.422 128.800 C 168.706 128.800,157.974 139.004,156.395 144.038 C 156.057 145.117,155.109 146.859,154.290 147.908 C 153.470 148.957,152.800 150.227,152.800 150.730 C 152.800 155.746,146.040 155.096,144.508 149.933 C 142.437 142.953,135.447 132.800,132.713 132.800 C 132.355 132.800,131.418 132.143,130.631 131.339 C 129.844 130.535,127.940 129.390,126.400 128.793 C 124.860 128.196,122.741 127.054,121.692 126.254 C 120.643 125.454,119.349 124.800,118.816 124.800 C 113.412 124.800,115.560 119.391,122.275 116.091 C 132.751 110.944,137.417 107.454,139.613 103.122 C 140.372 101.625,141.427 99.860,141.958 99.200 C 142.489 98.540,143.355 96.489,143.881 94.643 C 145.326 89.576,148.843 87.067,151.337 89.324 M68.059 128.329 C 67.544 128.949,66.913 130.749,66.657 132.329 C 66.369 134.103,65.743 135.200,65.020 135.200 C 64.377 135.200,63.673 135.879,63.456 136.709 C 63.188 137.730,62.068 138.376,59.987 138.709 C 53.460 139.753,51.634 149.600,57.968 149.600 C 58.874 149.600,60.049 150.294,60.578 151.142 C 61.108 151.991,62.539 153.163,63.758 153.747 C 65.410 154.539,66.099 155.575,66.463 157.813 C 66.731 159.466,67.097 160.904,67.276 161.009 C 73.238 164.521,76.992 163.320,77.906 157.608 C 78.316 155.045,78.907 154.234,81.142 153.174 C 82.646 152.460,84.073 151.364,84.313 150.738 C 84.553 150.112,85.648 149.600,86.747 149.600 C 92.191 149.600,91.081 140.676,85.449 139.159 C 81.755 138.165,77.600 134.502,77.600 132.240 C 77.600 128.006,70.681 125.170,68.059 128.329 M76.800 134.000 C 78.387 137.173,79.668 138.465,82.999 140.250 C 89.528 143.749,90.364 147.096,85.140 148.820 C 81.578 149.995,76.800 154.272,76.800 156.284 C 76.800 162.374,68.743 162.313,67.523 156.214 C 67.002 153.611,64.149 151.050,58.818 148.400 C 54.056 146.032,55.005 142.665,61.189 139.994 C 64.824 138.424,66.740 136.514,67.603 133.600 C 69.295 127.890,73.844 128.088,76.800 134.000 " stroke="none" fill="#c8c8c8" fill-rule="evenodd"></path><path id="path4" d="M0.000 200.000 L 0.000 400.000 200.000 400.000 L 400.000 400.000 400.000 200.000 L 400.000 0.000 200.000 0.000 L 0.000 0.000 0.000 200.000 M272.129 36.995 C 273.446 37.988,275.412 39.610,276.498 40.600 C 277.584 41.590,278.767 42.400,279.126 42.400 C 279.766 42.400,283.757 45.258,288.266 48.946 C 291.301 51.428,304.735 64.888,307.018 67.734 C 308.019 68.980,309.909 71.308,311.218 72.906 C 312.528 74.504,313.600 76.369,313.600 77.052 C 313.600 77.734,314.320 78.521,315.200 78.800 C 316.080 79.079,316.800 79.594,316.800 79.944 C 316.800 80.294,317.880 81.939,319.200 83.600 C 320.520 85.261,321.600 87.429,321.600 88.418 C 321.600 89.453,322.449 90.772,323.600 91.526 C 324.787 92.304,325.600 93.595,325.600 94.702 C 325.600 95.727,326.500 97.537,327.600 98.724 C 328.700 99.911,329.600 101.514,329.600 102.286 C 329.600 103.058,330.500 104.909,331.600 106.400 C 332.700 107.891,333.600 110.008,333.600 111.104 C 333.600 112.200,334.346 113.891,335.257 114.861 C 336.282 115.952,337.146 118.332,337.521 121.099 C 337.855 123.561,338.780 126.293,339.575 127.172 C 340.588 128.291,341.205 130.786,341.634 135.497 C 342.028 139.821,342.775 143.028,343.724 144.476 C 346.044 148.018,345.983 200.875,343.655 204.429 C 342.601 206.036,341.939 208.930,341.575 213.517 C 341.175 218.545,340.690 220.502,339.652 221.261 C 338.854 221.844,338.096 223.747,337.868 225.738 C 337.398 229.845,336.082 233.600,335.112 233.600 C 334.731 233.600,334.183 235.074,333.895 236.875 C 333.607 238.677,332.738 240.747,331.963 241.475 C 331.189 242.204,330.147 244.330,329.647 246.200 C 329.125 248.152,328.260 249.600,327.616 249.600 C 326.934 249.600,326.234 250.932,325.830 253.000 C 325.381 255.299,324.614 256.645,323.460 257.156 C 322.320 257.662,321.594 258.914,321.272 260.931 C 320.976 262.780,320.171 264.280,319.195 264.803 C 318.318 265.272,317.600 266.175,317.600 266.810 C 317.600 267.444,316.700 268.553,315.600 269.274 C 314.500 269.994,313.600 271.125,313.600 271.786 C 313.600 272.448,312.520 274.296,311.199 275.894 C 309.878 277.492,307.988 279.792,306.999 281.006 C 306.010 282.219,304.733 283.659,304.162 284.206 C 303.591 284.752,302.691 285.667,302.162 286.238 C 301.633 286.809,300.733 287.709,300.162 288.238 C 299.591 288.767,298.691 289.667,298.162 290.238 C 297.633 290.809,296.733 291.709,296.162 292.238 C 295.591 292.767,294.691 293.667,294.162 294.238 C 293.022 295.469,291.903 296.509,288.824 299.200 C 287.565 300.300,285.418 302.190,284.054 303.400 C 282.689 304.610,281.051 305.600,280.414 305.600 C 279.777 305.600,278.884 306.296,278.429 307.146 C 277.974 307.996,276.791 308.946,275.801 309.257 C 274.810 309.568,273.207 310.672,272.238 311.711 C 271.269 312.750,269.559 313.600,268.438 313.600 C 267.317 313.600,266.400 313.934,266.400 314.343 C 266.400 315.620,263.955 317.600,262.379 317.600 C 261.551 317.600,259.973 318.500,258.873 319.600 C 257.751 320.721,255.947 321.600,254.765 321.600 C 253.605 321.600,252.059 322.331,251.328 323.224 C 250.584 324.134,248.592 325.057,246.800 325.321 C 245.040 325.582,243.211 326.276,242.735 326.866 C 241.541 328.344,237.988 329.600,234.999 329.600 C 233.541 329.600,231.737 330.320,230.660 331.332 C 229.163 332.738,227.572 333.131,222.208 333.423 C 216.895 333.712,215.235 334.118,213.736 335.491 C 210.813 338.170,153.187 338.170,150.264 335.491 C 148.765 334.118,147.105 333.712,141.792 333.423 C 136.592 333.140,134.802 332.716,133.392 331.431 C 132.324 330.458,130.045 329.634,127.750 329.392 C 125.506 329.155,123.171 328.324,122.150 327.398 C 121.188 326.526,118.960 325.595,117.200 325.330 C 115.417 325.062,113.412 324.129,112.672 323.224 C 111.941 322.331,110.464 321.600,109.389 321.600 C 108.313 321.600,106.463 320.700,105.276 319.600 C 104.089 318.500,102.431 317.600,101.591 317.600 C 100.752 317.600,99.240 316.745,98.232 315.700 C 97.225 314.654,95.372 313.558,94.116 313.263 C 92.811 312.957,91.656 312.056,91.422 311.164 C 91.197 310.304,90.332 309.600,89.499 309.600 C 88.666 309.600,87.358 308.854,86.592 307.943 C 85.826 307.031,84.030 305.790,82.600 305.184 C 81.170 304.578,80.000 303.713,80.000 303.261 C 80.000 302.810,78.920 301.883,77.600 301.200 C 76.280 300.517,75.200 299.428,75.200 298.779 C 75.200 298.131,74.668 297.600,74.018 297.600 C 73.369 297.600,72.256 296.714,71.547 295.631 C 70.837 294.548,69.569 293.444,68.728 293.177 C 67.888 292.910,67.200 292.169,67.200 291.529 C 67.200 290.889,66.300 289.956,65.200 289.454 C 64.100 288.953,63.200 288.208,63.200 287.799 C 63.200 287.390,61.400 285.320,59.200 283.200 C 57.000 281.080,55.200 279.090,55.200 278.778 C 55.200 278.466,54.120 276.981,52.800 275.478 C 51.480 273.974,50.400 272.037,50.400 271.172 C 50.400 270.285,49.859 269.600,49.159 269.600 C 48.477 269.600,47.392 268.340,46.748 266.800 C 46.105 265.260,45.251 264.000,44.851 264.000 C 41.959 264.000,41.704 249.546,44.556 247.236 C 45.457 246.507,46.444 245.121,46.751 244.155 C 47.057 243.190,47.780 242.400,48.356 242.400 C 48.933 242.400,49.943 241.590,50.600 240.600 C 51.710 238.928,52.379 238.800,60.000 238.800 C 67.621 238.800,68.290 238.928,69.400 240.600 C 70.057 241.590,71.288 242.400,72.134 242.400 C 72.980 242.400,74.526 243.253,75.569 244.296 C 76.612 245.339,78.486 246.446,79.733 246.756 C 80.980 247.065,82.720 247.967,83.600 248.760 C 84.480 249.553,86.501 250.434,88.090 250.717 C 89.680 251.000,91.626 251.944,92.414 252.816 C 93.203 253.687,94.782 254.402,95.924 254.404 C 99.139 254.411,104.044 255.984,104.492 257.150 C 104.760 257.851,107.347 258.390,112.247 258.768 C 116.291 259.080,121.659 260.025,124.175 260.868 C 130.374 262.944,152.291 263.118,156.151 261.122 C 157.511 260.419,162.443 259.459,167.112 258.990 C 173.014 258.397,176.209 257.691,177.600 256.675 C 178.700 255.870,181.400 254.982,183.600 254.701 C 185.800 254.420,188.337 253.522,189.238 252.707 C 190.140 251.892,192.120 250.991,193.638 250.705 C 195.157 250.419,197.120 249.555,198.000 248.785 C 198.880 248.014,200.500 247.121,201.600 246.800 C 202.700 246.479,204.320 245.564,205.200 244.767 C 206.080 243.971,207.764 243.079,208.942 242.787 C 210.120 242.495,211.285 241.732,211.531 241.092 C 211.777 240.452,213.258 239.393,214.824 238.739 C 216.389 238.085,217.872 237.021,218.120 236.375 C 218.368 235.729,219.060 235.200,219.658 235.200 C 220.256 235.200,221.850 234.120,223.200 232.800 C 224.550 231.480,226.003 230.400,226.428 230.400 C 226.852 230.400,227.200 229.851,227.200 229.180 C 227.200 228.509,228.100 227.618,229.200 227.200 C 230.300 226.782,231.200 225.857,231.200 225.145 C 231.200 224.433,231.948 223.655,232.861 223.416 C 233.775 223.177,234.846 222.130,235.242 221.091 C 235.637 220.051,236.509 219.200,237.180 219.200 C 237.851 219.200,238.400 218.852,238.400 218.428 C 238.400 217.718,240.682 214.957,244.775 210.716 C 245.669 209.790,246.400 208.423,246.400 207.679 C 246.400 206.936,247.272 205.455,248.338 204.389 C 249.404 203.323,250.535 201.630,250.853 200.626 C 251.170 199.622,252.056 198.359,252.822 197.820 C 253.588 197.280,254.451 195.581,254.739 194.043 C 255.028 192.504,255.911 190.786,256.702 190.223 C 257.493 189.660,258.365 187.798,258.639 186.085 C 258.913 184.372,259.823 182.212,260.663 181.285 C 261.502 180.358,262.419 177.820,262.701 175.645 C 262.982 173.470,263.883 170.950,264.702 170.045 C 265.821 168.810,266.310 166.634,266.663 161.322 C 266.974 156.635,267.685 153.103,268.767 150.869 C 271.192 145.860,271.222 120.402,268.809 115.408 C 267.808 113.336,267.018 109.499,266.679 105.057 C 266.289 99.949,265.710 97.415,264.581 95.883 C 263.724 94.719,262.827 92.032,262.588 89.912 C 262.318 87.519,261.584 85.591,260.652 84.828 C 259.827 84.153,258.924 82.160,258.646 80.400 C 258.368 78.640,257.493 76.740,256.702 76.177 C 255.911 75.614,255.028 73.895,254.739 72.355 C 254.450 70.816,253.565 69.209,252.772 68.785 C 251.979 68.361,251.092 66.931,250.802 65.608 C 250.511 64.285,249.492 62.655,248.537 61.987 C 245.133 59.604,245.740 42.400,249.228 42.400 C 249.873 42.400,250.400 41.704,250.400 40.854 C 250.400 39.952,251.150 39.071,252.200 38.739 C 253.190 38.426,254.454 37.526,255.009 36.738 C 257.056 33.830,268.152 33.996,272.129 36.995 M277.600 69.838 C 277.600 70.856,278.500 72.909,279.600 74.400 C 280.737 75.941,281.600 78.199,281.600 79.633 C 281.600 81.020,282.330 82.997,283.222 84.025 C 285.029 86.108,285.365 87.313,285.839 93.408 C 286.041 96.001,286.734 98.244,287.645 99.250 C 288.839 100.569,289.239 102.844,289.718 111.042 C 290.045 116.629,290.692 122.458,291.156 123.995 C 292.358 127.975,292.199 137.059,290.814 143.600 C 290.162 146.680,289.622 152.274,289.614 156.031 C 289.603 161.470,289.251 163.507,287.889 166.031 C 286.925 167.817,285.923 171.615,285.594 174.734 C 285.200 178.473,284.576 180.585,283.671 181.247 C 282.923 181.794,282.044 184.043,281.681 186.339 C 281.323 188.601,280.303 191.250,279.414 192.226 C 278.525 193.202,277.558 195.346,277.264 196.990 C 276.951 198.745,276.084 200.327,275.166 200.818 C 274.282 201.291,273.600 202.489,273.600 203.567 C 273.600 204.618,272.700 206.547,271.600 207.854 C 270.500 209.161,269.600 210.843,269.600 211.590 C 269.600 212.338,268.928 213.125,268.107 213.340 C 267.212 213.574,266.233 215.002,265.662 216.908 C 265.139 218.655,264.163 220.295,263.494 220.551 C 262.825 220.808,261.941 221.904,261.529 222.987 C 261.117 224.069,260.065 225.142,259.190 225.371 C 258.280 225.609,257.600 226.463,257.600 227.368 C 257.600 228.277,256.919 229.128,256.000 229.368 C 255.120 229.598,254.400 230.365,254.400 231.071 C 254.400 232.836,237.078 249.600,235.255 249.600 C 234.447 249.600,233.599 250.316,233.371 251.190 C 233.142 252.065,232.020 253.136,230.877 253.571 C 229.735 254.005,228.800 254.748,228.800 255.221 C 228.800 255.694,227.623 256.574,226.184 257.175 C 224.745 257.776,222.889 259.018,222.060 259.934 C 221.231 260.850,219.750 261.600,218.769 261.600 C 217.680 261.600,216.829 262.202,216.582 263.147 C 216.309 264.192,215.175 264.879,213.089 265.265 C 211.390 265.579,209.207 266.682,208.238 267.718 C 207.146 268.885,205.564 269.600,204.075 269.600 C 202.579 269.600,200.918 270.355,199.673 271.600 C 198.219 273.054,196.815 273.600,194.534 273.600 C 192.199 273.600,191.099 274.045,190.241 275.339 C 189.311 276.740,188.092 277.149,183.963 277.448 C 180.475 277.700,178.122 278.349,176.590 279.482 C 174.735 280.853,172.900 281.196,166.170 281.432 C 161.156 281.607,156.609 282.235,154.400 283.059 C 149.434 284.909,130.341 284.906,126.800 283.055 C 125.230 282.234,121.417 281.672,115.772 281.430 C 108.744 281.129,106.738 280.760,104.952 279.439 C 103.485 278.354,101.075 277.696,97.661 277.450 C 93.667 277.161,92.257 276.703,91.153 275.340 C 90.190 274.151,88.854 273.600,86.933 273.600 C 85.103 273.600,83.294 272.903,81.746 271.600 C 80.439 270.500,78.767 269.600,78.032 269.600 C 77.297 269.600,75.998 269.227,75.147 268.772 C 73.956 268.134,73.600 268.204,73.600 269.079 C 73.600 269.703,74.347 270.409,75.259 270.647 C 76.172 270.886,77.106 271.797,77.335 272.673 C 77.564 273.548,78.617 274.482,79.676 274.747 C 80.734 275.013,81.600 275.773,81.600 276.435 C 81.600 277.098,82.469 277.970,83.532 278.374 C 84.594 278.778,85.687 279.813,85.960 280.675 C 86.234 281.536,87.254 282.451,88.229 282.707 C 89.203 282.964,91.799 284.842,93.998 286.882 C 96.197 288.921,98.807 290.898,99.798 291.275 C 100.789 291.652,101.600 292.509,101.600 293.180 C 101.600 293.954,102.345 294.400,103.636 294.400 C 104.756 294.400,106.541 295.268,107.602 296.329 C 108.662 297.390,110.589 298.490,111.882 298.774 C 113.176 299.058,114.861 299.983,115.627 300.830 C 116.393 301.676,118.207 302.591,119.658 302.864 C 121.108 303.136,122.900 304.027,123.640 304.844 C 124.379 305.661,126.591 306.571,128.554 306.865 C 130.518 307.159,132.726 308.030,133.462 308.800 C 134.253 309.628,136.663 310.426,139.359 310.752 C 141.866 311.056,144.746 311.947,145.759 312.733 C 147.085 313.762,149.740 314.308,155.255 314.686 C 159.465 314.975,165.045 315.838,167.655 316.603 C 174.200 318.522,189.800 318.522,196.345 316.603 C 198.955 315.838,204.535 314.975,208.745 314.686 C 214.260 314.308,216.915 313.762,218.241 312.733 C 219.254 311.947,222.134 311.059,224.641 310.759 C 227.163 310.458,229.915 309.585,230.800 308.806 C 231.680 308.031,233.840 307.144,235.600 306.834 C 237.360 306.524,239.520 305.618,240.400 304.822 C 241.280 304.025,243.133 303.133,244.517 302.841 C 245.901 302.549,247.649 301.630,248.400 300.800 C 249.151 299.970,250.824 299.058,252.118 298.774 C 253.411 298.490,255.338 297.390,256.398 296.329 C 257.459 295.268,259.244 294.400,260.364 294.400 C 261.671 294.400,262.400 293.955,262.400 293.158 C 262.400 292.475,263.480 291.540,264.800 291.080 C 266.120 290.620,267.200 289.943,267.200 289.576 C 267.200 289.209,269.693 287.055,272.739 284.789 C 275.786 282.524,278.475 280.159,278.714 279.535 C 278.954 278.911,279.839 278.400,280.682 278.400 C 281.559 278.400,282.399 277.691,282.647 276.741 C 282.886 275.828,283.828 274.886,284.741 274.647 C 285.653 274.409,286.400 273.577,286.400 272.799 C 286.400 272.021,287.300 270.794,288.400 270.074 C 289.500 269.353,290.400 268.294,290.400 267.721 C 290.400 267.148,291.338 265.806,292.485 264.739 C 293.632 263.673,294.883 261.990,295.265 261.000 C 295.648 260.010,296.430 259.200,297.005 259.200 C 297.579 259.200,298.457 258.120,298.955 256.800 C 299.453 255.480,300.432 254.400,301.131 254.400 C 301.957 254.400,302.400 253.690,302.400 252.364 C 302.400 251.244,303.268 249.459,304.329 248.398 C 305.390 247.338,306.498 245.374,306.792 244.036 C 307.086 242.697,307.963 241.152,308.742 240.601 C 309.520 240.050,310.398 238.299,310.694 236.710 C 310.989 235.120,311.907 233.208,312.732 232.461 C 313.557 231.714,314.466 229.547,314.752 227.644 C 315.037 225.741,315.975 223.547,316.835 222.768 C 317.743 221.946,318.402 220.313,318.404 218.876 C 318.410 215.602,319.802 210.712,321.097 209.417 C 321.731 208.783,322.343 205.126,322.674 199.990 C 322.971 195.376,323.931 188.378,324.807 184.441 C 326.787 175.542,326.780 172.652,324.755 163.600 C 323.869 159.640,322.919 152.800,322.643 148.400 C 322.269 142.441,321.762 139.885,320.654 138.382 C 319.837 137.271,318.948 134.391,318.679 131.982 C 318.397 129.456,317.574 126.918,316.735 125.991 C 315.935 125.106,315.025 122.766,314.713 120.791 C 314.392 118.765,313.517 116.754,312.704 116.177 C 311.912 115.614,311.015 113.814,310.710 112.177 C 310.406 110.540,309.506 108.740,308.710 108.177 C 307.915 107.614,307.028 105.895,306.739 104.355 C 306.450 102.816,305.551 101.202,304.741 100.769 C 303.931 100.335,303.025 98.678,302.726 97.087 C 302.382 95.252,301.647 94.053,300.718 93.810 C 299.912 93.600,299.033 92.735,298.764 91.888 C 298.496 91.041,297.494 89.520,296.538 88.508 C 295.582 87.496,293.360 84.939,291.600 82.827 C 289.840 80.714,287.950 78.520,287.400 77.950 C 286.850 77.380,286.400 76.683,286.400 76.400 C 286.400 75.630,284.220 73.600,283.392 73.600 C 282.995 73.600,282.228 72.773,281.687 71.762 C 280.060 68.722,277.600 67.564,277.600 69.838 M151.496 86.871 C 152.171 87.130,153.142 88.611,153.654 90.163 C 154.166 91.715,155.264 93.664,156.093 94.493 C 156.922 95.322,157.600 96.692,157.600 97.539 C 157.600 98.385,158.500 100.147,159.600 101.454 C 160.700 102.761,161.600 104.370,161.600 105.029 C 161.600 105.688,162.490 106.450,163.577 106.723 C 164.664 106.996,165.937 107.935,166.405 108.809 C 166.873 109.684,167.767 110.400,168.391 110.400 C 170.298 110.400,173.600 112.199,173.600 113.238 C 173.600 113.782,175.150 114.451,177.080 114.740 C 184.084 115.790,187.622 123.331,181.988 125.200 C 180.662 125.640,178.772 126.810,177.788 127.800 C 176.805 128.790,175.296 129.600,174.436 129.600 C 173.576 129.600,171.973 130.500,170.873 131.600 C 169.773 132.700,168.289 133.600,167.575 133.600 C 166.084 133.600,162.176 137.289,161.350 139.476 C 161.043 140.288,160.074 141.140,159.196 141.369 C 158.056 141.667,157.600 142.461,157.600 144.146 C 157.600 147.103,156.305 149.600,154.772 149.600 C 154.003 149.600,153.600 150.426,153.600 152.000 C 153.600 160.029,143.728 157.871,142.618 149.599 C 142.350 147.598,141.406 145.479,140.284 144.357 C 139.248 143.321,138.400 141.861,138.400 141.112 C 138.400 139.314,132.705 133.950,130.101 133.297 C 128.971 133.013,127.663 132.065,127.195 131.191 C 126.692 130.252,125.521 129.600,124.335 129.600 C 123.231 129.600,121.427 128.700,120.327 127.600 C 119.227 126.500,117.876 125.600,117.324 125.600 C 112.010 125.600,113.801 116.645,119.414 115.156 C 121.276 114.661,123.520 113.616,124.400 112.833 C 125.280 112.051,126.958 111.184,128.128 110.908 C 130.648 110.313,137.978 103.530,138.721 101.106 C 139.007 100.174,139.952 98.768,140.820 97.982 C 141.689 97.195,142.400 95.762,142.400 94.795 C 142.400 89.051,146.919 85.114,151.496 86.871 M76.355 128.978 C 77.040 129.956,77.600 131.424,77.600 132.240 C 77.600 134.502,81.755 138.165,85.449 139.159 C 91.081 140.676,92.191 149.600,86.747 149.600 C 85.648 149.600,84.553 150.112,84.313 150.738 C 84.073 151.364,82.646 152.460,81.142 153.174 C 78.907 154.234,78.316 155.045,77.906 157.608 C 76.992 163.320,73.238 164.521,67.276 161.009 C 67.097 160.904,66.731 159.466,66.463 157.813 C 66.099 155.575,65.410 154.539,63.758 153.747 C 62.539 153.163,61.108 151.991,60.578 151.142 C 60.049 150.294,58.874 149.600,57.968 149.600 C 51.634 149.600,53.460 139.753,59.987 138.709 C 62.068 138.376,63.188 137.730,63.456 136.709 C 63.673 135.879,64.377 135.200,65.020 135.200 C 65.743 135.200,66.369 134.103,66.657 132.329 C 67.525 126.976,73.505 124.910,76.355 128.978 " stroke="none" fill="#ffffff" fill-rule="evenodd"></path></g></svg>