<?xml version="1.0" standalone="no"?>
<!DOCTYPE svg PUBLIC "-//W3C//DTD SVG 20010904//EN"
 "http://www.w3.org/TR/2001/REC-SVG-20010904/DTD/svg10.dtd">
<svg version="1.0" xmlns="http://www.w3.org/2000/svg"
 width="100.000000pt" height="100.000000pt" viewBox="0 0 100.000000 100.000000"
 preserveAspectRatio="xMidYMid meet">

<g transform="translate(0.000000,100.000000) scale(0.100000,-0.100000)"
fill="#000000" stroke="none">
<path d="M390 850 c0 -5 -11 -10 -24 -10 -31 0 -43 -17 -16 -22 29 -4 26 -22
-5 -26 -33 -4 -32 -22 1 -22 33 0 27 -24 -7 -28 -35 -5 -48 -22 -17 -22 50 0
44 -36 -6 -42 -41 -4 -46 -28 -6 -28 46 0 38 -33 -10 -40 -23 -3 -36 -11 -38
-22 -3 -14 4 -18 31 -18 30 0 34 -3 30 -20 -4 -15 -14 -20 -39 -20 -23 0 -37
-6 -44 -19 -17 -33 -12 -41 26 -41 33 0 35 -2 32 -27 -3 -25 -8 -28 -45 -31
-36 -3 -43 -7 -52 -33 l-10 -29 45 0 46 0 -7 -32 c-10 -47 -12 -48 -60 -48
-39 0 -44 -3 -54 -31 -16 -47 -15 -48 37 -51 26 -2 46 -7 45 -13 -1 -5 -4 -27
-8 -47 l-7 -38 55 0 54 0 7 50 7 50 149 0 c167 0 155 6 162 -75 3 -29 4 -30
58 -30 37 0 54 4 53 12 -2 6 -5 30 -9 52 l-7 41 51 0 50 0 -13 38 c-12 35 -16
37 -60 40 -25 2 -48 9 -50 15 -19 64 -18 67 29 67 l44 0 -11 35 c-10 33 -13
35 -53 35 -37 0 -42 3 -46 25 -5 23 -2 25 33 25 41 0 46 8 29 41 -7 13 -21 19
-44 19 -25 0 -35 5 -39 20 -4 17 0 20 30 20 27 0 34 4 31 18 -2 11 -15 19 -38
22 -48 7 -56 40 -10 40 40 0 35 24 -6 28 -49 6 -56 42 -8 42 14 0 22 4 19 10
-3 6 -17 10 -30 10 -12 0 -25 7 -29 15 -4 11 1 15 19 15 33 0 32 18 0 22 -32
4 -34 21 -3 29 22 6 22 7 3 13 -11 4 -28 12 -37 17 -23 12 -48 12 -48 -1 0 -6
-30 -10 -70 -10 -40 0 -70 4 -70 10 0 6 -9 10 -20 10 -11 0 -20 -4 -20 -10z
m185 -45 c0 -5 -33 -11 -72 -13 -61 -2 -73 0 -73 13 0 13 12 15 73 13 39 -2
72 -7 72 -13z m5 -50 c0 -12 -16 -15 -80 -15 -64 0 -80 3 -80 15 0 12 16 15
80 15 64 0 80 -3 80 -15z m8 -57 c3 -16 -6 -18 -87 -18 -69 0 -91 3 -91 13 0
24 13 28 94 25 68 -3 81 -6 84 -20z m10 -70 c3 -16 -7 -18 -97 -18 -78 0 -101
3 -101 13 0 25 13 28 104 25 77 -3 91 -6 94 -20z m10 -80 c3 -16 -7 -18 -107
-18 -86 0 -111 3 -111 13 0 25 13 28 114 25 87 -3 101 -5 104 -20z m12 -108
l0 -30 -120 0 -120 0 0 30 0 30 120 0 120 0 0 -30z m14 -112 c15 -59 18 -58
-134 -58 -152 0 -149 -1 -134 58 6 21 10 22 134 22 124 0 128 -1 134 -22z"/>
</g>
</svg>
