<svg id="svg" version="1.1" width="500" height="500" xmlns="http://www.w3.org/2000/svg" xmlns:xlink="http://www.w3.org/1999/xlink" style="display: block;"><g id="svgg"><path id="path0" d="M214.390 35.000 C 214.385 35.770,214.381 108.040,214.381 195.600 L 214.381 354.800 222.990 355.045 C 235.467 355.400,238.785 354.820,237.204 352.563 C 236.126 351.024,235.990 332.977,236.006 193.510 C 236.016 106.985,235.800 35.609,235.526 34.896 C 234.743 32.856,214.404 32.956,214.390 35.000 M160.809 195.000 C 161.034 252.970,161.304 300.490,161.409 300.600 C 161.514 300.710,166.280 300.800,172.000 300.800 L 182.400 300.800 182.400 195.200 L 182.400 89.600 171.400 89.600 L 160.400 89.600 160.809 195.000 M322.114 91.000 C 323.075 92.962,323.434 292.226,322.483 295.671 C 321.288 299.999,323.167 300.800,334.513 300.800 C 339.659 300.800,344.439 300.581,345.135 300.314 C 346.280 299.875,346.400 289.827,346.400 194.714 L 346.400 89.600 333.914 89.600 C 322.296 89.600,321.476 89.697,322.114 91.000 M52.541 117.363 C 51.640 117.596,51.258 118.197,51.541 118.935 C 51.794 119.593,52.000 154.841,52.000 197.265 L 52.000 274.400 63.200 274.400 L 74.400 274.400 74.400 195.600 L 74.400 116.800 64.200 116.893 C 58.590 116.944,53.344 117.155,52.541 117.363 M105.794 195.777 L 106.000 246.800 115.200 247.032 C 120.260 247.160,125.120 247.086,126.000 246.867 C 127.581 246.475,127.598 245.875,127.431 195.835 L 127.262 145.200 116.425 144.977 L 105.588 144.755 105.794 195.777 M269.585 145.377 C 268.655 185.015,269.391 246.517,270.800 246.867 C 271.680 247.086,276.459 247.160,281.421 247.032 L 290.441 246.800 290.457 196.000 L 290.473 145.200 280.037 144.977 C 274.296 144.854,269.593 145.034,269.585 145.377 " stroke="none" fill="#000000" fill-rule="evenodd"></path><path id="path1" d="M213.800 33.293 C 212.624 33.811,212.324 354.010,213.497 355.861 C 214.189 356.952,236.869 357.005,237.951 355.918 C 238.564 355.302,238.540 34.274,237.927 33.659 C 237.327 33.058,215.099 32.720,213.800 33.293 M235.526 34.896 C 235.800 35.609,236.016 106.985,236.006 193.510 C 235.990 332.977,236.126 351.024,237.204 352.563 C 238.785 354.820,235.467 355.400,222.990 355.045 L 214.381 354.800 214.381 195.600 C 214.381 108.040,214.385 35.770,214.390 35.000 C 214.404 32.956,234.743 32.856,235.526 34.896 M160.277 88.400 L 158.365 89.200 158.369 194.800 L 158.373 300.400 160.103 301.822 C 163.189 304.360,182.534 303.507,183.285 300.800 C 184.378 296.864,184.099 89.878,183.000 88.968 C 181.661 87.860,162.702 87.386,160.277 88.400 M321.592 88.580 C 321.100 127.582,321.771 301.291,322.417 301.937 C 323.593 303.114,342.198 303.566,345.003 302.486 L 347.206 301.637 347.003 195.019 L 346.800 88.400 334.200 88.180 C 327.270 88.059,321.596 88.239,321.592 88.580 M182.400 195.200 L 182.400 300.800 172.000 300.800 C 166.280 300.800,161.514 300.710,161.409 300.600 C 161.304 300.490,161.034 252.970,160.809 195.000 L 160.400 89.600 171.400 89.600 L 182.400 89.600 182.400 195.200 M346.400 194.714 C 346.400 289.827,346.280 299.875,345.135 300.314 C 344.439 300.581,339.659 300.800,334.513 300.800 C 323.167 300.800,321.288 299.999,322.483 295.671 C 323.434 292.226,323.075 92.962,322.114 91.000 C 321.476 89.697,322.296 89.600,333.914 89.600 L 346.400 89.600 346.400 194.714 M52.000 115.435 L 50.000 116.447 49.796 195.447 C 49.603 270.127,49.669 274.479,50.996 275.024 C 51.768 275.341,57.440 275.600,63.600 275.600 L 74.800 275.600 75.020 196.800 C 75.141 153.460,75.044 117.190,74.805 116.200 C 74.284 114.048,55.958 113.433,52.000 115.435 M74.400 195.600 L 74.400 274.400 63.200 274.400 L 52.000 274.400 52.000 197.265 C 52.000 154.841,51.794 119.593,51.541 118.935 C 50.896 117.255,52.479 116.999,64.200 116.893 L 74.400 116.800 74.400 195.600 M105.262 143.637 C 104.282 147.544,104.673 246.483,105.674 247.689 C 106.825 249.076,124.051 249.257,127.881 247.922 L 130.400 247.043 130.400 196.061 L 130.400 145.079 128.548 143.339 C 126.842 141.737,125.875 141.600,116.235 141.600 L 105.773 141.600 105.262 143.637 M268.421 143.960 C 267.365 146.002,267.200 153.066,267.200 196.315 L 267.200 246.309 268.978 247.555 C 271.239 249.139,289.505 249.375,291.040 247.840 C 292.308 246.572,292.435 145.508,291.172 143.147 C 290.419 141.740,289.408 141.600,279.992 141.600 L 269.641 141.600 268.421 143.960 M127.431 195.835 C 127.598 245.875,127.581 246.475,126.000 246.867 C 125.120 247.086,120.260 247.160,115.200 247.032 L 106.000 246.800 105.794 195.777 L 105.588 144.755 116.425 144.977 L 127.262 145.200 127.431 195.835 M290.457 196.000 L 290.441 246.800 281.421 247.032 C 276.459 247.160,271.680 247.086,270.800 246.867 C 269.391 246.517,268.655 185.015,269.585 145.377 C 269.593 145.034,274.296 144.854,280.037 144.977 L 290.473 145.200 290.457 196.000 " stroke="none" fill="#3e3e3e" fill-rule="evenodd"></path><path id="path2" d="M212.175 33.400 C 210.613 37.204,211.546 355.772,213.124 357.516 C 215.826 360.501,237.568 359.849,239.236 356.732 C 240.408 354.543,240.272 34.491,239.098 33.077 C 237.581 31.249,212.937 31.545,212.175 33.400 M237.927 33.659 C 238.540 34.274,238.564 355.302,237.951 355.918 C 236.869 357.005,214.189 356.952,213.497 355.861 C 212.324 354.010,212.624 33.811,213.800 33.293 C 215.099 32.720,237.327 33.058,237.927 33.659 M159.482 86.395 C 158.537 86.776,157.540 87.450,157.267 87.892 C 155.892 90.117,156.750 301.985,158.138 303.000 C 160.013 304.371,182.474 304.406,183.840 303.040 C 185.675 301.205,185.180 88.592,183.337 86.924 C 181.709 85.451,162.858 85.032,159.482 86.395 M321.342 87.043 C 319.606 88.961,319.231 301.311,320.960 303.040 C 321.626 303.706,325.800 304.000,334.580 304.000 L 347.240 304.000 348.020 301.948 C 349.289 298.610,349.042 90.525,347.766 88.000 C 346.373 85.244,323.713 84.423,321.342 87.043 M183.000 88.968 C 184.099 89.878,184.378 296.864,183.285 300.800 C 182.534 303.507,163.189 304.360,160.103 301.822 L 158.373 300.400 158.369 194.800 L 158.365 89.200 160.277 88.400 C 162.702 87.386,181.661 87.860,183.000 88.968 M347.003 195.019 L 347.206 301.637 345.003 302.486 C 342.198 303.566,323.593 303.114,322.417 301.937 C 321.771 301.291,321.100 127.582,321.592 88.580 C 321.596 88.239,327.270 88.059,334.200 88.180 L 346.800 88.400 347.003 195.019 M49.953 113.935 C 47.756 115.542,47.065 273.351,49.246 275.531 C 50.986 277.272,74.486 277.424,75.913 275.704 C 77.467 273.832,76.767 114.573,75.200 113.583 C 73.178 112.305,51.774 112.604,49.953 113.935 M74.805 116.200 C 75.044 117.190,75.141 153.460,75.020 196.800 L 74.800 275.600 63.600 275.600 C 57.440 275.600,51.768 275.341,50.996 275.024 C 49.669 274.479,49.603 270.127,49.796 195.447 L 50.000 116.447 52.000 115.435 C 55.958 113.433,74.284 114.048,74.805 116.200 M104.875 141.525 C 102.341 144.059,102.219 246.864,104.747 249.152 C 107.150 251.327,129.196 250.732,130.865 248.447 C 132.893 245.671,132.519 144.819,130.471 142.289 C 128.195 139.476,107.540 138.860,104.875 141.525 M268.263 140.948 C 265.561 142.255,265.540 142.697,265.558 196.616 C 265.573 241.491,265.721 247.664,266.814 248.759 C 268.839 250.788,289.445 251.034,291.865 249.058 L 293.650 247.600 293.643 196.800 C 293.639 168.860,293.628 145.370,293.618 144.600 C 293.564 140.404,274.936 137.721,268.263 140.948 M128.548 143.339 L 130.400 145.079 130.400 196.061 L 130.400 247.043 127.881 247.922 C 124.051 249.257,106.825 249.076,105.674 247.689 C 104.673 246.483,104.282 147.544,105.262 143.637 L 105.773 141.600 116.235 141.600 C 125.875 141.600,126.842 141.737,128.548 143.339 M291.172 143.147 C 292.435 145.508,292.308 246.572,291.040 247.840 C 289.505 249.375,271.239 249.139,268.978 247.555 L 267.200 246.309 267.200 196.315 C 267.200 153.066,267.365 146.002,268.421 143.960 L 269.641 141.600 279.992 141.600 C 289.408 141.600,290.419 141.740,291.172 143.147 " stroke="none" fill="#757575" fill-rule="evenodd"></path><path id="path3" d="M211.800 31.264 C 210.474 32.036,210.400 40.693,210.400 195.240 L 210.400 358.400 212.056 360.056 C 214.723 362.723,237.809 362.110,240.072 359.311 C 242.236 356.636,242.503 33.817,240.343 31.657 C 238.853 30.168,214.264 29.829,211.800 31.264 M239.098 33.077 C 240.272 34.491,240.408 354.543,239.236 356.732 C 237.568 359.849,215.826 360.501,213.124 357.516 C 211.546 355.772,210.613 37.204,212.175 33.400 C 212.937 31.545,237.581 31.249,239.098 33.077 M156.864 84.736 C 154.324 87.276,154.330 86.973,154.570 197.465 C 154.795 301.197,154.831 303.352,156.353 304.465 C 157.549 305.339,161.008 305.600,171.394 305.600 L 184.882 305.600 186.041 302.826 C 187.990 298.162,187.757 90.320,185.799 86.400 L 184.400 83.600 171.420 83.380 C 159.410 83.177,158.322 83.278,156.864 84.736 M319.898 84.523 C 318.107 86.681,317.862 302.548,319.649 304.334 C 321.277 305.963,347.046 306.234,348.640 304.640 C 350.285 302.995,350.004 87.333,348.355 84.978 C 346.675 82.580,321.841 82.182,319.898 84.523 M183.337 86.924 C 185.180 88.592,185.675 301.205,183.840 303.040 C 182.474 304.406,160.013 304.371,158.138 303.000 C 156.750 301.985,155.892 90.117,157.267 87.892 C 158.880 85.282,180.630 84.475,183.337 86.924 M347.766 88.000 C 349.042 90.525,349.289 298.610,348.020 301.948 L 347.240 304.000 334.580 304.000 C 325.800 304.000,321.626 303.706,320.960 303.040 C 319.231 301.311,319.606 88.961,321.342 87.043 C 323.713 84.423,346.373 85.244,347.766 88.000 M50.822 111.071 C 46.257 112.103,46.425 108.915,46.412 194.935 C 46.399 279.718,46.265 276.275,49.657 278.030 C 52.596 279.549,72.249 279.687,75.378 278.210 C 78.478 276.747,78.402 278.868,78.381 195.300 C 78.364 125.102,78.079 113.018,76.406 111.337 C 75.689 110.617,53.832 110.390,50.822 111.071 M75.200 113.583 C 76.767 114.573,77.467 273.832,75.913 275.704 C 74.486 277.424,50.986 277.272,49.246 275.531 C 47.065 273.351,47.756 115.542,49.953 113.935 C 51.774 112.604,73.178 112.305,75.200 113.583 M102.825 140.448 C 101.711 141.650,100.791 143.121,100.779 143.717 C 99.983 184.652,100.903 247.642,102.331 250.063 L 103.946 252.800 117.115 252.800 L 130.284 252.800 131.942 250.692 C 134.105 247.942,134.602 143.278,132.466 140.353 C 131.437 138.945,130.099 138.775,118.091 138.532 L 104.850 138.263 102.825 140.448 M267.600 138.948 C 262.944 140.163,263.200 136.885,263.200 195.360 L 263.200 248.873 265.164 250.836 C 267.084 252.757,267.409 252.800,279.848 252.800 L 292.568 252.800 294.684 250.246 L 296.800 247.692 296.800 195.185 L 296.800 142.679 294.738 140.739 C 292.696 138.819,273.060 137.523,267.600 138.948 M130.471 142.289 C 132.519 144.819,132.893 245.671,130.865 248.447 C 129.196 250.732,107.150 251.327,104.747 249.152 C 102.219 246.864,102.341 144.059,104.875 141.525 C 107.540 138.860,128.195 139.476,130.471 142.289 M292.000 141.600 C 292.880 142.480,293.608 143.830,293.618 144.600 C 293.628 145.370,293.639 168.860,293.643 196.800 L 293.650 247.600 291.865 249.058 C 289.445 251.034,268.839 250.788,266.814 248.759 C 265.536 247.478,264.801 148.661,266.033 143.752 C 266.792 140.731,269.159 140.113,280.200 140.054 C 289.375 140.005,290.561 140.161,292.000 141.600 " stroke="none" fill="#cacaca" fill-rule="evenodd"></path><path id="path4" d="M0.000 200.000 L 0.000 400.000 200.000 400.000 L 400.000 400.000 400.000 200.000 L 400.000 0.000 200.000 0.000 L 0.000 0.000 0.000 200.000 M240.343 31.657 C 242.503 33.817,242.236 356.636,240.072 359.311 C 237.809 362.110,214.723 362.723,212.056 360.056 L 210.400 358.400 210.400 195.240 C 210.400 40.693,210.474 32.036,211.800 31.264 C 214.264 29.829,238.853 30.168,240.343 31.657 M185.799 86.400 C 187.757 90.320,187.990 298.162,186.041 302.826 L 184.882 305.600 171.394 305.600 C 161.008 305.600,157.549 305.339,156.353 304.465 C 154.803 303.332,153.332 97.219,154.815 88.955 C 155.794 83.496,156.872 83.134,171.420 83.380 L 184.400 83.600 185.799 86.400 M348.355 84.978 C 350.004 87.333,350.285 302.995,348.640 304.640 C 347.046 306.234,321.277 305.963,319.649 304.334 C 317.862 302.548,318.107 86.681,319.898 84.523 C 321.841 82.182,346.675 82.580,348.355 84.978 M76.406 111.337 C 78.079 113.018,78.364 125.102,78.381 195.300 C 78.402 278.868,78.478 276.747,75.378 278.210 C 72.249 279.687,52.596 279.549,49.657 278.030 C 46.265 276.275,46.399 279.718,46.412 194.935 C 46.425 108.915,46.257 112.103,50.822 111.071 C 53.832 110.390,75.689 110.617,76.406 111.337 M132.466 140.353 C 134.602 143.278,134.105 247.942,131.942 250.692 L 130.284 252.800 117.115 252.800 L 103.946 252.800 102.331 250.063 C 100.903 247.642,99.983 184.652,100.779 143.717 C 100.791 143.121,101.711 141.650,102.825 140.448 L 104.850 138.263 118.091 138.532 C 130.099 138.775,131.437 138.945,132.466 140.353 M294.738 140.739 L 296.800 142.679 296.800 195.185 L 296.800 247.692 294.684 250.246 L 292.568 252.800 279.848 252.800 C 267.409 252.800,267.084 252.757,265.164 250.836 L 263.200 248.873 263.200 195.360 C 263.200 145.402,263.293 141.766,264.600 140.607 C 268.062 137.537,291.442 137.640,294.738 140.739 " stroke="none" fill="#ffffff" fill-rule="evenodd"></path></g></svg>