<svg xmlns="http://www.w3.org/2000/svg" xmlns:xlink="http://www.w3.org/1999/xlink" version="1.1" x="0px" y="0px" viewBox="0 0 100 125" enable-background="new 0 0 100 100" xml:space="preserve"><g><path fill="#000000" d="M63.579,12.295c0,0-3.555,3.746-5.579,5.281c-2.826,2.143-4.874,7.894-5.136,9.151   C52.601,27.983,61.891,20.985,63.579,12.295z"/><polygon fill="#000000" points="47.581,8 48.284,14.882 47.581,28 52.499,28 51.796,21.967 52.499,8  "/><polygon fill="#000000" points="47.581,29 48.284,36.382 47.581,50 52.499,50 51.796,43.467 52.499,29  "/><polygon fill="#000000" points="47.581,51 48.284,58.382 47.581,72 52.499,72 51.796,65.467 52.499,51  "/><polygon fill="#000000" points="47.581,73 48.284,80.382 47.581,94 52.499,94 51.796,87.467 52.499,73  "/><path fill="#000000" d="M60.174,26.569c-2.402-0.33-6.17,1.46-6.904,1.94c-0.734,0.48,7.137,1.588,12.153-1.796   C65.422,26.714,61.894,26.806,60.174,26.569z"/><path fill="#000000" d="M35.732,65.957c0,0,3.555-3.746,5.579-5.281c2.826-2.143,4.874-7.894,5.136-9.151   C46.71,50.269,37.421,57.266,35.732,65.957z"/><path fill="#000000" d="M46.042,49.742c0.734-0.48-7.137-1.588-12.153,1.796c0,0,3.528-0.092,5.248,0.144   C41.539,52.012,45.308,50.222,46.042,49.742z"/></g><text x="0" y="115" fill="#000000" font-size="5px" font-weight="bold" font-family="'Helvetica Neue', Helvetica, Arial-Unicode, Arial, Sans-serif">Created by Carla Gom Mejorada</text><text x="0" y="120" fill="#000000" font-size="5px" font-weight="bold" font-family="'Helvetica Neue', Helvetica, Arial-Unicode, Arial, Sans-serif">from the Noun Project</text></svg>