<svg xmlns="http://www.w3.org/2000/svg" xmlns:xlink="http://www.w3.org/1999/xlink" version="1.1" x="0px" y="0px" viewBox="0 0 100 125" enable-background="new 0 0 100 100" xml:space="preserve"><g><g><path d="M49.97,5.104c-24.778,0-44.865,20.087-44.865,44.865c0,24.778,20.087,44.865,44.865,44.865s44.865-20.087,44.865-44.865    C94.835,25.191,74.748,5.104,49.97,5.104z M54.917,69.05c0,0.815-0.922,1.287-1.583,0.812L38.822,59.438    c-0.17-0.122-0.374-0.188-0.583-0.188H24c-0.552,0-1-0.448-1-1v-17c0-0.552,0.448-1,1-1h15.399c0.209,0,0.413-0.066,0.583-0.188    l13.351-9.591c0.662-0.475,1.583-0.002,1.583,0.812V69.05z M59.616,57.336c2.693-1.82,4.301-4.843,4.301-8.086    s-1.607-6.266-4.301-8.086c-0.915-0.619-1.155-1.862-0.537-2.777c0.619-0.916,1.861-1.156,2.777-0.538    c3.795,2.565,6.061,6.827,6.061,11.4c0,4.574-2.266,8.836-6.061,11.401c-0.344,0.232-0.733,0.343-1.118,0.343    c-0.643,0-1.272-0.308-1.659-0.88C58.461,59.198,58.701,57.955,59.616,57.336z M61.78,70.865    c-0.208,0.068-0.418,0.101-0.625,0.101c-0.841,0-1.623-0.534-1.899-1.375c-0.346-1.049,0.226-2.18,1.274-2.525    c7.708-2.535,12.887-9.695,12.887-17.815c0-8.224-5.497-15.611-13.367-17.966c-1.059-0.316-1.659-1.431-1.343-2.489    c0.316-1.059,1.434-1.658,2.489-1.343c9.551,2.857,16.221,11.82,16.221,21.798C77.417,59.102,71.133,67.789,61.78,70.865z"/></g></g><text x="0" y="115" fill="#000000" font-size="5px" font-weight="bold" font-family="'Helvetica Neue', Helvetica, Arial-Unicode, Arial, Sans-serif">Created by No More Heroes</text><text x="0" y="120" fill="#000000" font-size="5px" font-weight="bold" font-family="'Helvetica Neue', Helvetica, Arial-Unicode, Arial, Sans-serif">from the Noun Project</text></svg>